<?xml version="1.0" encoding="UTF-8"?>
<svg version="1.1" xmlns="http://www.w3.org/2000/svg" width="512" height="512">
<path d="M0 0 C0.66059956 -0.00444941 1.32119911 -0.00889881 2.00181684 -0.01348305 C4.24306136 -0.02729334 6.48427033 -0.03387479 8.72554684 -0.04050064 C10.3376322 -0.04880405 11.94971549 -0.05751754 13.56179661 -0.06660867 C18.01349636 -0.09031696 22.46520141 -0.10751481 26.91693461 -0.12354088 C30.73001101 -0.13804653 34.54306647 -0.15622898 38.35612703 -0.17437229 C74.49590654 -0.34556351 110.63618082 -0.43000205 146.77628326 -0.49829102 C151.48210399 -0.50734003 156.18792436 -0.51654959 160.89374447 -0.52591324 C162.64822998 -0.52939311 162.64822998 -0.52939311 164.43815964 -0.53294328 C183.38628807 -0.57171721 202.33401122 -0.652253 221.28192247 -0.749042 C240.72271497 -0.84752784 260.16329697 -0.90445829 279.60433334 -0.92186952 C290.52495598 -0.93278389 301.44483926 -0.96261625 312.36521244 -1.03982162 C321.66612657 -1.10555593 330.96620792 -1.13428138 340.26734973 -1.11425409 C345.01424559 -1.1052124 349.75933949 -1.11409217 354.50594234 -1.17094421 C358.8527148 -1.22260376 363.19643543 -1.22340962 367.54330789 -1.18390086 C369.11479483 -1.17855973 370.68647899 -1.19181341 372.25761134 -1.22561952 C383.97600105 -1.46274983 383.97600105 -1.46274983 388.40977275 2.51623487 C390.47233591 5.31070655 392.14158128 8.09414387 393.77728939 11.15377426 C394.8825621 12.82660972 396.00144722 14.49063735 397.14130306 16.14010239 C398.24524551 17.82002155 399.34648685 19.5017183 400.44525814 21.18502426 C401.04679211 22.10102402 401.64832607 23.01702377 402.26808834 23.9607811 C404.16954982 26.85677533 406.06750404 29.7550427 407.96478939 32.65377426 C409.83640659 35.51136086 411.70886079 38.3683529 413.58592892 41.22236252 C414.82754631 43.11728792 416.06095048 45.0176199 417.28615475 46.9231987 C420.18840294 51.40357381 423.13300981 55.68178271 426.56708431 59.77267075 C437.74381931 73.44546352 437.40299115 86.07269638 436.71478939 103.21627426 C436.66661164 105.8105731 436.62425418 108.40498682 436.58783627 110.99947739 C436.49608882 115.69695827 436.39586853 120.39280326 436.210639 125.08761215 C436.17586956 126.02069702 436.14110012 126.95378189 436.10527706 127.91514206 C435.77728939 130.15377426 435.77728939 130.15377426 433.77728939 132.15377426 C430.51947689 132.34908676 430.51947689 132.34908676 426.65228939 132.27877426 C425.37096127 132.26072739 424.08963314 132.24268051 422.76947689 132.22408676 C421.78205502 132.20088364 420.79463314 132.17768051 419.77728939 132.15377426 C419.78282015 133.01884724 419.78835091 133.88392021 419.79404926 134.77520752 C419.92676296 155.85930936 420.0259445 176.94333885 420.08816242 198.027771 C420.11905312 208.2242219 420.16114185 218.42039338 420.22992611 228.61666489 C420.28987497 237.50748189 420.3284733 246.39809643 420.34182036 255.28910995 C420.34961799 259.99356394 420.36784342 264.69743894 420.41166973 269.4017067 C420.45265604 273.83743047 420.46490645 278.27234153 420.45593548 282.70823669 C420.45757457 284.32869903 420.46935427 285.94919098 420.49252224 287.56948853 C420.63903417 298.35283411 419.42167986 307.49220881 412.15372944 316.06991577 C403.06229413 324.59570508 392.75066789 324.73393479 380.9827795 324.67516708 C379.26764061 324.68121291 377.55250711 324.68899329 375.83738309 324.69835222 C371.13773644 324.71889424 366.43839524 324.71455336 361.73872364 324.70599103 C356.66495189 324.70105324 351.59125337 324.71908898 346.51750851 324.73406601 C336.58249191 324.75955538 326.64758343 324.76314796 316.71253964 324.75846548 C308.63599473 324.7548982 300.55948262 324.75840042 292.48294163 324.76691437 C290.75814234 324.76869993 290.75814234 324.76869993 288.99849862 324.77052157 C286.6624692 324.7729451 284.32643978 324.77537337 281.99041037 324.77780633 C260.08629194 324.79955578 238.18223511 324.79523316 216.27811322 324.78303663 C196.24694902 324.77269933 176.21597936 324.79520662 156.18485364 324.83323307 C135.60922655 324.87199327 115.03369149 324.88850123 94.45802766 324.88098657 C82.90944219 324.87716287 71.36102229 324.88213422 59.81246662 324.91041565 C49.98057449 324.9342497 40.14894983 324.93704613 30.317054 324.91283531 C25.30279613 324.90106192 20.28902742 324.89884628 15.27480221 324.92284012 C10.6796203 324.94457281 6.08533549 324.93833556 1.49019543 324.91031675 C-0.16720739 324.90502674 -1.82468068 324.90974406 -3.48201428 324.92578848 C-14.31488386 325.02333533 -23.68681142 323.87409183 -32.21080595 316.41376323 C-33.80226386 314.75853319 -35.00877863 313.1008995 -36.22271061 311.15377426 C-36.76878279 310.29034204 -36.76878279 310.29034204 -37.32588673 309.40946674 C-41.31786046 301.82453905 -40.75559405 293.85031371 -40.67681217 285.526577 C-40.67568244 283.85039421 -40.67632001 282.17420944 -40.67858219 280.4980278 C-40.67972536 275.96960403 -40.65628074 271.44160789 -40.62828636 266.91328311 C-40.60320618 262.17275483 -40.6009255 257.43221571 -40.59618473 252.69163132 C-40.58377435 243.72451403 -40.55097905 234.75759284 -40.51078677 225.79056174 C-40.46600864 215.57775765 -40.44406684 205.36494399 -40.42400503 195.15206611 C-40.38224466 174.15252623 -40.3119304 153.15316262 -40.22271061 132.15377426 C-41.21013248 132.17697739 -42.19755436 132.20018051 -43.21489811 132.22408676 C-44.49622623 132.24213364 -45.77755436 132.26018051 -47.09771061 132.27877426 C-48.37388248 132.30197739 -49.65005436 132.32518051 -50.96489811 132.34908676 C-54.22271061 132.15377426 -54.22271061 132.15377426 -56.22271061 130.15377426 C-60.96952018 107.52167917 -61.14487591 79.00347746 -48.69870853 59.10596848 C-43.27697878 51.01489723 -37.19643756 43.40359628 -31.01177311 35.88814926 C-25.75360338 29.43674889 -21.25758522 22.51115024 -16.75847721 15.52004623 C-14.76136717 12.42711378 -12.71921615 9.36468285 -10.67583561 6.30221176 C-10.02775944 5.32429672 -9.37968327 4.34638168 -8.71196842 3.33883286 C-6.06302608 -0.54773008 -4.73957209 0.02230984 0 0 Z " fill="#FBCB59" transform="translate(66.22271060943604,185.8462257385254)"/>
<path d="M0 0 C0.66059956 -0.00444941 1.32119911 -0.00889881 2.00181684 -0.01348305 C4.24306136 -0.02729334 6.48427033 -0.03387479 8.72554684 -0.04050064 C10.3376322 -0.04880405 11.94971549 -0.05751754 13.56179661 -0.06660867 C18.01349636 -0.09031696 22.46520141 -0.10751481 26.91693461 -0.12354088 C30.73001101 -0.13804653 34.54306647 -0.15622898 38.35612703 -0.17437229 C74.49590654 -0.34556351 110.63618082 -0.43000205 146.77628326 -0.49829102 C151.48210399 -0.50734003 156.18792436 -0.51654959 160.89374447 -0.52591324 C162.64822998 -0.52939311 162.64822998 -0.52939311 164.43815964 -0.53294328 C183.38628807 -0.57171721 202.33401122 -0.652253 221.28192247 -0.749042 C240.72271497 -0.84752784 260.16329697 -0.90445829 279.60433334 -0.92186952 C290.52495598 -0.93278389 301.44483926 -0.96261625 312.36521244 -1.03982162 C321.66612657 -1.10555593 330.96620792 -1.13428138 340.26734973 -1.11425409 C345.01424559 -1.1052124 349.75933949 -1.11409217 354.50594234 -1.17094421 C358.8527148 -1.22260376 363.19643543 -1.22340962 367.54330789 -1.18390086 C369.11479483 -1.17855973 370.68647899 -1.19181341 372.25761134 -1.22561952 C383.97600105 -1.46274983 383.97600105 -1.46274983 388.40977275 2.51623487 C390.47233591 5.31070655 392.14158128 8.09414387 393.77728939 11.15377426 C394.8825621 12.82660972 396.00144722 14.49063735 397.14130306 16.14010239 C398.24524551 17.82002155 399.34648685 19.5017183 400.44525814 21.18502426 C401.04679211 22.10102402 401.64832607 23.01702377 402.26808834 23.9607811 C404.16954982 26.85677533 406.06750404 29.7550427 407.96478939 32.65377426 C409.83640659 35.51136086 411.70886079 38.3683529 413.58592892 41.22236252 C414.82754631 43.11728792 416.06095048 45.0176199 417.28615475 46.9231987 C420.18840294 51.40357381 423.13300981 55.68178271 426.56708431 59.77267075 C437.74381931 73.44546352 437.40299115 86.07269638 436.71478939 103.21627426 C436.66661164 105.8105731 436.62425418 108.40498682 436.58783627 110.99947739 C436.49608882 115.69695827 436.39586853 120.39280326 436.210639 125.08761215 C436.17586956 126.02069702 436.14110012 126.95378189 436.10527706 127.91514206 C435.77728939 130.15377426 435.77728939 130.15377426 433.77728939 132.15377426 C430.51947689 132.34908676 430.51947689 132.34908676 426.65228939 132.27877426 C425.37096127 132.26072739 424.08963314 132.24268051 422.76947689 132.22408676 C421.78205502 132.20088364 420.79463314 132.17768051 419.77728939 132.15377426 C419.78282015 133.01884724 419.78835091 133.88392021 419.79404926 134.77520752 C419.92676296 155.85930936 420.0259445 176.94333885 420.08816242 198.027771 C420.11905312 208.2242219 420.16114185 218.42039338 420.22992611 228.61666489 C420.28987497 237.50748189 420.3284733 246.39809643 420.34182036 255.28910995 C420.34961799 259.99356394 420.36784342 264.69743894 420.41166973 269.4017067 C420.45265604 273.83743047 420.46490645 278.27234153 420.45593548 282.70823669 C420.45757457 284.32869903 420.46935427 285.94919098 420.49252224 287.56948853 C420.63903417 298.35283411 419.42167986 307.49220881 412.15372944 316.06991577 C403.06229413 324.59570508 392.75066789 324.73393479 380.9827795 324.67516708 C379.26764061 324.68121291 377.55250711 324.68899329 375.83738309 324.69835222 C371.13773644 324.71889424 366.43839524 324.71455336 361.73872364 324.70599103 C356.66495189 324.70105324 351.59125337 324.71908898 346.51750851 324.73406601 C336.58249191 324.75955538 326.64758343 324.76314796 316.71253964 324.75846548 C308.63599473 324.7548982 300.55948262 324.75840042 292.48294163 324.76691437 C290.75814234 324.76869993 290.75814234 324.76869993 288.99849862 324.77052157 C286.6624692 324.7729451 284.32643978 324.77537337 281.99041037 324.77780633 C260.08629194 324.79955578 238.18223511 324.79523316 216.27811322 324.78303663 C196.24694902 324.77269933 176.21597936 324.79520662 156.18485364 324.83323307 C135.60922655 324.87199327 115.03369149 324.88850123 94.45802766 324.88098657 C82.90944219 324.87716287 71.36102229 324.88213422 59.81246662 324.91041565 C49.98057449 324.9342497 40.14894983 324.93704613 30.317054 324.91283531 C25.30279613 324.90106192 20.28902742 324.89884628 15.27480221 324.92284012 C10.6796203 324.94457281 6.08533549 324.93833556 1.49019543 324.91031675 C-0.16720739 324.90502674 -1.82468068 324.90974406 -3.48201428 324.92578848 C-14.31488386 325.02333533 -23.68681142 323.87409183 -32.21080595 316.41376323 C-33.80226386 314.75853319 -35.00877863 313.1008995 -36.22271061 311.15377426 C-36.76878279 310.29034204 -36.76878279 310.29034204 -37.32588673 309.40946674 C-41.31786046 301.82453905 -40.75559405 293.85031371 -40.67681217 285.526577 C-40.67568244 283.85039421 -40.67632001 282.17420944 -40.67858219 280.4980278 C-40.67972536 275.96960403 -40.65628074 271.44160789 -40.62828636 266.91328311 C-40.60320618 262.17275483 -40.6009255 257.43221571 -40.59618473 252.69163132 C-40.58377435 243.72451403 -40.55097905 234.75759284 -40.51078677 225.79056174 C-40.46600864 215.57775765 -40.44406684 205.36494399 -40.42400503 195.15206611 C-40.38224466 174.15252623 -40.3119304 153.15316262 -40.22271061 132.15377426 C-41.21013248 132.17697739 -42.19755436 132.20018051 -43.21489811 132.22408676 C-44.49622623 132.24213364 -45.77755436 132.26018051 -47.09771061 132.27877426 C-48.37388248 132.30197739 -49.65005436 132.32518051 -50.96489811 132.34908676 C-54.22271061 132.15377426 -54.22271061 132.15377426 -56.22271061 130.15377426 C-60.96952018 107.52167917 -61.14487591 79.00347746 -48.69870853 59.10596848 C-43.27697878 51.01489723 -37.19643756 43.40359628 -31.01177311 35.88814926 C-25.75360338 29.43674889 -21.25758522 22.51115024 -16.75847721 15.52004623 C-14.76136717 12.42711378 -12.71921615 9.36468285 -10.67583561 6.30221176 C-10.02775944 5.32429672 -9.37968327 4.34638168 -8.71196842 3.33883286 C-6.06302608 -0.54773008 -4.73957209 0.02230984 0 0 Z M-28.22271061 132.15377426 C-39.19533135 222.2161946 -39.19533135 222.2161946 -24.22271061 306.15377426 C-19.13790997 310.98433487 -15.34349305 312.40309296 -8.36536121 312.41104317 C-7.32621605 312.41630228 -7.32621605 312.41630228 -6.26607805 312.42166764 C-3.93340743 312.43100757 -1.60098505 312.4260517 0.73169613 312.4211998 C2.41649223 312.42493477 4.10128661 312.42953567 5.78607821 312.43493044 C10.42485938 312.44719504 15.06356861 312.44689591 19.7023623 312.44454169 C24.70182142 312.44413439 29.70125721 312.4551644 34.70070553 312.46465683 C44.49935071 312.48128712 54.29797184 312.48676731 64.09662995 312.48788159 C72.06033378 312.48883117 80.02402966 312.49293696 87.98773098 312.49928284 C110.55662624 312.51690134 133.12550245 312.52612084 155.69440463 312.52462189 C156.91172242 312.52454198 158.12904021 312.52446206 159.38324642 312.52437973 C160.60204737 312.52429797 161.82084833 312.52421621 163.07658264 312.52413197 C182.82942817 312.52331905 202.58219745 312.5424565 222.33502093 312.57065646 C242.6076141 312.59937051 262.88017008 312.61319755 283.15278411 312.61146891 C294.53808132 312.61080446 305.92329862 312.61632064 317.30857754 312.63782501 C327.00267911 312.65601741 336.69666454 312.66040016 346.39077577 312.64680617 C351.33757688 312.64026652 356.28415506 312.64019525 361.2309351 312.65751266 C365.75993258 312.67320453 370.28852965 312.67041958 374.81751713 312.6529444 C376.45548507 312.64986591 378.09348261 312.65353881 379.73141566 312.66466455 C391.35553454 312.80526242 391.35553454 312.80526242 401.77728939 308.15377426 C442.74247064 266.11056193 407.77728939 190.85452194 407.77728939 132.15377426 C263.89728939 132.15377426 120.01728939 132.15377426 -28.22271061 132.15377426 Z " fill="#000000" transform="translate(66.22271060943604,185.8462257385254)"/>
<path d="M0 0 C143.88 0 287.76 0 436 0 C436 166 436 166 432 174 C426.84047714 179.0272274 422.10934404 180.24887355 415.01960278 180.26006222 C414.32568549 180.26386789 413.6317682 180.26767356 412.91682312 180.27159455 C410.5862528 180.28191983 408.25592562 180.27800249 405.92533875 180.27415466 C404.23967924 180.27860655 402.55402183 180.28392044 400.86836749 180.29002339 C396.23184937 180.30421954 391.59539822 180.30586637 386.95886147 180.30542648 C381.96009883 180.30707324 376.9613639 180.32013706 371.96261597 180.33161926 C361.03090575 180.35447843 350.09921493 180.36239072 339.16748405 180.36744571 C332.34321347 180.37070136 325.51894855 180.377223 318.69468117 180.3844471 C299.80409139 180.40401345 280.91350687 180.42041771 262.0229063 180.42332363 C260.20930895 180.42360499 260.20930895 180.42360499 258.35907327 180.42389202 C255.9079595 180.42425828 253.45684573 180.42462198 251.00573196 180.42498314 C249.78897958 180.42516595 248.57222719 180.42534876 247.31860352 180.42553711 C246.10036807 180.42571766 244.88213261 180.42589821 243.62698094 180.42608423 C223.88064935 180.42962699 204.13442674 180.45665566 184.38813295 180.494035 C164.12002776 180.53209548 143.85197668 180.55148094 123.58383495 180.55178314 C112.20188434 180.55236819 100.82006377 180.56089061 89.43814659 180.58978081 C79.7477129 180.61426434 70.05745667 180.62159797 60.36700042 180.60653328 C55.42216906 180.59935226 50.47768834 180.60027325 45.53289604 180.62294388 C41.00571638 180.64350118 36.47915767 180.64096401 31.95198498 180.62006903 C30.31471701 180.61656793 28.67740454 180.62151043 27.04019495 180.63577347 C10.90215324 180.76729816 10.90215324 180.76729816 5 175 C-30.89149555 128.98526211 0 58.357138 0 0 Z M55.73655796 28.39590263 C52.17451137 34.64276308 51.14336236 39.58837962 51.27124023 46.73876953 C51.2655452 47.76125793 51.25985016 48.78374634 51.25398254 49.83721924 C51.24295027 53.18647315 51.27483303 56.53373487 51.30859375 59.8828125 C51.31217466 62.22589896 51.31352747 64.56898979 51.3127594 66.91207886 C51.31743811 71.8093382 51.34218521 76.7059347 51.38256836 81.60302734 C51.43359276 87.86853869 51.44500875 94.13332443 51.44273281 100.39901924 C51.44354989 105.23244097 51.46002414 110.0657053 51.48173714 114.89907455 C51.49125664 117.20905239 51.49718985 119.51904797 51.49941826 121.82904434 C51.50594939 125.05967633 51.53226572 128.28955134 51.56420898 131.52001953 C51.56284943 132.46672516 51.56148987 133.41343079 51.56008911 134.38882446 C51.67297611 142.22738522 53.16609714 149.3196209 59 155 C65.92125201 160.08665444 71.96587852 160.71618176 80.37965393 160.62818909 C82.21419511 160.63883067 82.21419511 160.63883067 84.08579773 160.64968723 C87.45959616 160.66418681 90.83197889 160.65642551 94.20567214 160.6389643 C97.8519558 160.62554778 101.49813561 160.64104259 105.14440918 160.65278625 C112.27876744 160.67113488 119.41285124 160.66266948 126.54720087 160.64469803 C132.34642259 160.63065539 138.14556996 160.6267828 143.94480705 160.6301403 C144.77111087 160.63061775 145.59741469 160.63109519 146.44875802 160.6315871 C148.12752138 160.63261346 149.80628472 160.63366882 151.48504805 160.63475286 C166.31878151 160.64331417 181.15238271 160.62666288 195.98608398 160.59692383 C210.37220819 160.56808258 224.75814191 160.56100609 239.14428711 160.57641602 C254.8203779 160.59318476 270.49637831 160.59720593 286.17247146 160.57970566 C287.84465054 160.57786132 289.51682962 160.57602659 291.18900871 160.57420158 C292.42304129 160.57283345 292.42304129 160.57283345 293.68200381 160.57143768 C299.47324006 160.56583686 305.26443212 160.56913516 311.05566597 160.57574654 C318.11464412 160.58348548 325.1734349 160.57670684 332.23237533 160.5515715 C335.83242117 160.53908996 339.43217549 160.53291338 343.03223228 160.54411316 C346.93744416 160.55603273 350.84215488 160.53686937 354.74732971 160.5146637 C355.88128144 160.52290446 357.01523317 160.53114523 358.18354708 160.53963572 C366.25216661 160.45489529 371.50546184 158.85916758 377.75 153.75 C383.30194137 146.96429388 384.59418872 141.08652627 384.54931641 132.42822266 C384.55953827 131.39948532 384.56976013 130.37074799 384.58029175 129.31083679 C384.60796947 125.92833841 384.60617915 122.54666029 384.6015625 119.1640625 C384.60934279 116.8004832 384.61801344 114.43690668 384.62753296 112.07333374 C384.64243283 107.12561976 384.64189293 102.17819128 384.63134766 97.23046875 C384.61976219 90.90653026 384.65362062 84.58376405 384.700037 78.2600193 C384.72957685 73.38019032 384.73124634 68.50064155 384.72501755 63.62073898 C384.72604074 61.29004978 384.73645551 58.95934423 384.75664139 56.62874222 C384.78146493 53.3619206 384.7677358 50.09735501 384.74462891 46.83056641 C384.75991638 45.8785585 384.77520386 44.9265506 384.79095459 43.94569397 C384.67954897 36.77866543 382.50535091 31.59644508 378 26 C373.00882833 21.98851592 368.44410683 19.88075621 361.98919582 19.8601923 C360.42718367 19.85165544 360.42718367 19.85165544 358.83361572 19.84294611 C357.6857819 19.84176624 356.53794808 19.84058636 355.35533142 19.83937073 C353.53059676 19.831739 353.53059676 19.831739 351.66899878 19.82395309 C348.28600281 19.81094142 344.90305086 19.8024616 341.52003968 19.7959801 C338.61981535 19.78961025 335.71960872 19.77953994 332.81939542 19.76941944 C323.26308826 19.73608905 313.70677033 19.71457192 304.15042409 19.69621959 C301.66176367 19.6914244 299.17310368 19.68644109 296.68444371 19.68141437 C281.22878801 19.65044107 265.77312856 19.6237567 250.31745052 19.60699558 C246.73710562 19.6030461 243.15676078 19.59904311 239.57641602 19.5949707 C238.68654181 19.59396234 237.7966676 19.59295398 236.87982751 19.59191506 C222.46956788 19.57491401 208.05948017 19.53381161 193.64930444 19.48294771 C178.85277932 19.43115007 164.05634256 19.40205043 149.25972754 19.3947987 C140.95275651 19.39013895 132.64606691 19.37541426 124.33918571 19.3350544 C117.26327479 19.30071708 110.18769606 19.2868299 103.11170661 19.29947854 C99.50317761 19.30529706 95.89535083 19.30150025 92.28692818 19.2713089 C88.36885805 19.23879533 84.45173195 19.2531263 80.53355408 19.27174377 C78.83522593 19.24655138 78.83522593 19.24655138 77.10258812 19.22085005 C68.2542006 19.32576007 61.87001386 21.90350615 55.73655796 28.39590263 Z " fill="#E5F8FB" transform="translate(38,318)"/>
<path d="M0 0 C1.44211949 0.00452535 2.88423562 0.0102478 4.32634622 0.01703924 C5.8718804 -0.01901794 7.41730256 -0.06017434 8.96257889 -0.10596812 C13.19862976 -0.2160303 17.43247472 -0.25136029 21.66977566 -0.27368063 C26.24429601 -0.31037694 30.81736377 -0.41516991 35.39098245 -0.50984675 C46.4352187 -0.72289873 57.47937349 -0.82119624 68.52520493 -0.90791884 C73.73812615 -0.95155895 78.95090493 -1.00806444 84.16371232 -1.06343752 C101.51518989 -1.24350999 118.8665372 -1.39641344 136.21885091 -1.46405417 C140.71877927 -1.4818715 145.21870751 -1.49970913 149.71863443 -1.51788813 C150.8369558 -1.52238146 151.95527716 -1.52687479 153.10748706 -1.53150428 C171.18446794 -1.60918089 189.25353739 -1.87339829 207.32721015 -2.21775048 C225.92216911 -2.56912521 244.51314587 -2.75629917 263.11145222 -2.78440344 C273.54023264 -2.80405509 283.95784766 -2.89347686 294.38340455 -3.16372973 C361.8838193 -4.84844553 361.8838193 -4.84844553 376.14012313 8.44156194 C384.43916608 17.56862002 389.6276355 28.14504906 394.03863603 39.56267637 C396.58933695 46.0264244 400.32860012 51.44190288 404.36606008 57.05154794 C406.20911294 59.74944586 406.20911294 59.74944586 406.20911294 61.74944586 C255.72911294 61.74944586 105.24911294 61.74944586 -49.79088706 61.74944586 C-48.3213024 58.07548421 -47.17538278 55.58625923 -45.02868003 52.42498296 C-44.47405082 51.60320059 -43.9194216 50.78141821 -43.34798545 49.93473333 C-42.74906485 49.0576119 -42.15014426 48.18049047 -41.53307456 47.27678961 C-40.60025153 45.89844694 -40.60025153 45.89844694 -39.64858359 44.49225897 C-37.65877404 41.55412755 -35.66251043 38.62045006 -33.66588706 35.68694586 C-31.69217869 32.77744418 -29.71979137 29.86705004 -27.74746054 26.95661443 C-26.52192244 25.14924022 -25.29533837 23.34257458 -24.06746787 21.53678411 C-23.49392569 20.69293661 -22.92038352 19.84908911 -22.32946128 18.97967046 C-21.77732453 18.19220184 -21.22518778 17.40473322 -20.65631962 16.59340191 C-18.73254284 13.77392524 -18.73254284 13.77392524 -17.2267884 10.67458665 C-12.75825804 2.47012826 -9.2789319 0.35577148 0 0 Z " fill="#52EB87" transform="translate(77.79088705778122,196.25055414438248)"/>
<path d="M0 0 C1.05960937 0.36222656 2.11921875 0.72445313 3.2109375 1.09765625 C15.10410516 5.60727638 24.98815596 13.14570568 34 22 C34.61359375 22.60070312 35.2271875 23.20140625 35.859375 23.8203125 C53.78964277 42.81981642 57.89895412 66.68777297 57.18359375 91.83984375 C56.79213587 98.57791656 55.23143954 104.63491016 53 111 C52.63777344 112.05960937 52.27554688 113.11921875 51.90234375 114.2109375 C44.2223927 134.46518129 27.50701961 151.7644732 8 161 C-13.04642315 169.31063888 -36.3312171 171.59652734 -58 164 C-59.05960938 163.63777344 -60.11921875 163.27554688 -61.2109375 162.90234375 C-82.49167113 154.83317097 -98.82448026 137.79842072 -108.49609375 117.53515625 C-117.02992551 97.47511017 -118.24176769 73.65684553 -111 53 C-110.63777344 51.94039062 -110.27554688 50.88078125 -109.90234375 49.7890625 C-101.83317097 28.50832887 -84.79842072 12.17551974 -64.53515625 2.50390625 C-44.47511017 -6.02992551 -20.65684553 -7.24176769 0 0 Z " fill="#FACA59" transform="translate(285,6)"/>
<path d="M0 0 C154.44 0 308.88 0 468 0 C468 11.88 468 23.76 468 36 C313.56 36 159.12 36 0 36 C0 24.12 0 12.24 0 0 Z " fill="#38D669" transform="translate(22,270)"/>
<path d="M0 0 C1.22247075 -0.00865438 2.44494149 -0.01730876 3.70445681 -0.02622539 C7.07235835 -0.04399275 10.43821619 -0.0351028 13.80596948 -0.01451623 C17.44752089 0.00118662 21.08891989 -0.01783412 24.73045349 -0.03231812 C31.85402198 -0.05509422 38.97719702 -0.04569817 46.10075748 -0.02481725 C51.89231959 -0.00850556 57.68377462 -0.00434045 63.47535706 -0.00878334 C64.71374338 -0.00972935 64.71374338 -0.00972935 65.97714761 -0.01069448 C67.65453798 -0.01204059 69.33192833 -0.01342016 71.00931865 -0.01483283 C86.72290149 -0.02675795 102.43626913 -0.00273366 118.14980298 0.03418525 C131.62057474 0.06507646 145.09109885 0.06744792 158.56188965 0.04838562 C174.22080855 0.02625232 189.87958875 0.02014856 205.53851461 0.04070824 C207.20959058 0.04287109 208.88066656 0.04502018 210.55174255 0.04715538 C211.37385453 0.04822175 212.1959665 0.04928811 213.04299095 0.05038679 C218.8247933 0.05684496 224.60652404 0.05210283 230.38832092 0.04313087 C237.4384736 0.03257373 244.4883363 0.04016469 251.53843558 0.07058666 C255.13271488 0.08567132 258.72653729 0.09293683 262.32082939 0.07839584 C266.22319462 0.06289355 270.12478604 0.08637447 274.02709961 0.11352539 C275.7182655 0.09781816 275.7182655 0.09781816 277.44359636 0.08179361 C284.81342635 0.1771601 290.32672656 1.65623931 296.5135498 5.75517273 C298.76745605 8.14189148 298.76745605 8.14189148 300.0760498 10.44267273 C300.53108887 11.20966492 300.98612793 11.9766571 301.45495605 12.76689148 C303.07635584 15.81225121 303.64172702 17.55134509 303.66072083 21.00398254 C303.67145378 22.34123634 303.67145378 22.34123634 303.68240356 23.70550537 C303.68509247 24.68627548 303.68778137 25.66704559 303.69055176 26.67753601 C303.69712296 27.70860977 303.70369415 28.73968353 303.71046448 29.80200195 C303.73023197 33.22649707 303.74186925 36.65094821 303.75183105 40.07548523 C303.75590658 41.24415005 303.75998211 42.41281487 303.76418114 43.61689377 C303.78505898 49.80523757 303.79935193 55.99355911 303.80871582 62.18193054 C303.81976933 68.57095897 303.85415254 74.95963807 303.89388752 81.34854317 C303.92005324 86.26255433 303.92840777 91.17648239 303.9319973 96.0905571 C303.93686522 98.44522835 303.94848496 100.79989584 303.96703529 103.15449905 C303.99141941 106.45542648 303.9904623 109.75545207 303.98352051 113.05644226 C304.0027356 114.50937935 304.0027356 114.50937935 304.02233887 115.9916687 C303.9644972 123.55877707 302.04743656 128.65820003 297.2635498 134.50517273 C289.92257262 140.51142679 283.61914029 141.33893811 274.26760864 141.27656555 C272.4364658 141.28804219 272.4364658 141.28804219 270.56833017 141.29975069 C267.19633987 141.31676843 263.82522572 141.31596302 260.45326138 141.3073895 C256.81032199 141.30244407 253.1674839 141.32049681 249.52458191 141.33546448 C242.39415117 141.36093252 235.26387116 141.36454915 228.1334026 141.35986395 C222.33608371 141.35629438 216.53881048 141.35980376 210.74149704 141.36831284 C209.91563518 141.36950321 209.08977332 141.37069359 208.23888534 141.37192004 C206.56101191 141.37434361 204.8831385 141.37677187 203.20526509 141.37920479 C187.47839914 141.40094588 171.75161902 141.39663552 156.02474825 141.3844351 C141.64711618 141.37409767 127.26975516 141.39660676 112.8921767 141.43463154 C98.11806737 141.47340455 83.34408621 141.48989752 68.56992567 141.48238504 C60.27982943 141.47856337 51.98996387 141.48351269 43.69990921 141.51181412 C36.64238047 141.53566461 29.5852244 141.53842655 22.52769043 141.51423378 C18.9292802 141.50247161 15.3315512 141.50021194 11.73318672 141.52423859 C7.82627478 141.55002151 3.92039005 141.5289909 0.01345825 141.50361633 C-1.679754 141.52573919 -1.679754 141.52573919 -3.40717256 141.54830897 C-11.06274881 141.44387053 -16.52418626 139.67445875 -22.4864502 134.75517273 C-26.64426641 129.63263623 -28.58773175 124.92483339 -28.64707947 118.317276 C-28.65712509 117.43432861 -28.66717072 116.55138123 -28.67752075 115.64167786 C-28.68335175 114.68059113 -28.68918274 113.71950439 -28.69519043 112.72929382 C-28.70497421 111.71089417 -28.714758 110.69249451 -28.72483826 109.64323425 C-28.75475978 106.27170614 -28.77617034 102.90021765 -28.79504395 99.52861023 C-28.80161577 98.37530842 -28.8081876 97.22200661 -28.81495857 96.03375626 C-28.84754001 89.92739844 -28.87199237 83.82105797 -28.89147949 77.71464539 C-28.90928085 72.66881331 -28.94408544 67.62354129 -28.99401855 62.57792664 C-29.05430719 56.4783674 -29.08496748 50.3793268 -29.09465218 44.2794838 C-29.10319383 41.95992116 -29.1219798 39.6403719 -29.1513958 37.32098007 C-29.19045223 34.0658505 -29.19132574 30.81272846 -29.18347168 27.55741882 C-29.20347229 26.60847748 -29.2234729 25.65953613 -29.24407959 24.68183899 C-29.16843075 17.65895421 -27.38430068 11.93227293 -22.4864502 6.75517273 C-15.23582214 0.99779183 -9.08457271 -0.11334283 0 0 Z M-15.4864502 17.75517273 C-15.8164502 18.08517273 -16.1464502 18.41517273 -16.4864502 18.75517273 C-16.59782461 21.88937499 -16.64385779 25.00174107 -16.64758301 28.13676453 C-16.65254791 29.12213699 -16.65751282 30.10750946 -16.66262817 31.1227417 C-16.67729599 34.39996527 -16.68406054 37.6771404 -16.6895752 40.95439148 C-16.6953242 43.22545372 -16.70108196 45.49651593 -16.70684814 47.76757812 C-16.7173722 52.53842903 -16.72320522 57.30926301 -16.72668457 62.0801239 C-16.73216291 68.19243074 -16.75617105 74.30451408 -16.78465652 80.41675091 C-16.80328775 85.11193491 -16.80848884 89.80706525 -16.81002045 94.5022831 C-16.81304795 96.75532563 -16.82107973 99.00836719 -16.83420563 101.26137352 C-16.85127092 104.41662383 -16.84938413 107.57133046 -16.84289551 110.72660828 C-16.85211029 111.65724091 -16.86132507 112.58787354 -16.87081909 113.54670715 C-16.83773325 118.6858724 -16.42738281 122.3431001 -13.4864502 126.75517273 C-10.22316196 128.93069822 -9.31663764 129.00596739 -5.54255962 129.00964832 C-4.00297275 129.01839661 -4.00297275 129.01839661 -2.4322831 129.02732164 C-1.30117555 129.02354231 -0.17006799 129.01976299 0.99531555 129.01586914 C2.79365696 129.02160746 2.79365696 129.02160746 4.6283285 129.02746171 C7.96210473 129.03601518 11.29566122 129.03555041 14.62943137 129.03128111 C18.22258592 129.02882063 21.81571422 129.03781968 25.40885925 129.0453186 C32.45104063 129.05808728 39.49318392 129.05985654 46.53537492 129.05751834 C52.25894107 129.05573717 57.98249564 129.0574805 63.70606041 129.06174278 C64.51987781 129.06233797 65.3336952 129.06293316 66.17217373 129.06354639 C67.82533275 129.06475811 69.47849176 129.06597224 71.13165077 129.06718876 C86.64613586 129.07807299 102.16059924 129.07589784 117.67508557 129.06980392 C131.87136095 129.06463592 146.0675677 129.07588552 160.26382951 129.09490214 C174.83433985 129.11427067 189.40481771 129.12253814 203.97534102 129.11877888 C212.15800496 129.11686509 220.34061048 129.11937157 228.52326393 129.13349342 C235.49054023 129.14539578 242.45772219 129.14682515 249.42499975 129.13470326 C252.98016805 129.12880601 256.53516369 129.12773824 260.09032059 129.13970566 C263.94391075 129.15252688 267.79723806 129.14211976 271.65083313 129.12939453 C272.77524852 129.13676882 273.89966391 129.1441431 275.0581525 129.15174085 C280.59544846 129.11315624 284.78421777 128.99662686 289.5135498 125.75517273 C292.38352998 121.36976214 291.81631632 115.97137466 291.81994629 110.90361023 C291.82826981 109.91604736 291.83659332 108.9284845 291.84516907 107.91099548 C291.86924012 104.65068102 291.87803644 101.39056659 291.88464355 98.13017273 C291.89360998 95.86243123 291.90273183 93.59469035 291.91200256 91.32695007 C291.92848576 86.57579612 291.93619184 81.8247126 291.93908691 77.0735321 C291.94447904 70.98347706 291.98219691 64.89408266 292.02783108 58.80421448 C292.05755582 54.12192863 292.06480943 49.43980304 292.06581306 44.75743103 C292.07002216 42.51191675 292.08248391 40.26640229 292.10333061 38.02098083 C292.13015728 34.88240179 292.12544564 31.74537 292.11291504 28.60673523 C292.12774933 27.6787915 292.14258362 26.75084778 292.15786743 25.79478455 C292.10665913 21.29532046 291.98581926 19.36877619 289.16358948 15.70195007 C285.53060586 13.03308052 282.9518232 12.62965088 278.56686592 12.61815834 C277.53985797 12.6130838 276.51285002 12.60800925 275.45472062 12.60278094 C274.32293094 12.60228318 273.19114126 12.60178542 272.02505493 12.60127258 C270.82545509 12.59689033 269.62585525 12.59250808 268.3899039 12.58799303 C265.05426056 12.57692317 261.71866414 12.570379 258.3830092 12.56581187 C254.78783103 12.55985619 251.19267016 12.54824647 247.59750366 12.53752136 C238.91345817 12.51299984 230.22940695 12.49837226 221.5453375 12.48546129 C219.09343463 12.48174972 216.64153233 12.47777648 214.18963003 12.47370863 C198.96899129 12.44847671 183.74835165 12.42642012 168.52769661 12.41398048 C165.0023104 12.41105072 161.47692422 12.40808906 157.95153809 12.40507507 C157.0753054 12.40432902 156.19907271 12.40358297 155.29628752 12.40281431 C141.09283631 12.39015294 126.88951006 12.35691886 112.68611731 12.31527324 C98.10996738 12.2728842 83.53388151 12.24928912 68.95767009 12.24405992 C60.77106326 12.24064277 52.58465187 12.22885167 44.39810562 12.19595718 C37.42820865 12.16799732 30.45854718 12.15693944 23.48859848 12.16815265 C19.93140192 12.17334948 16.37469884 12.17038716 12.81757355 12.1456871 C8.96351754 12.11914805 5.11013917 12.13121997 1.25601196 12.14717102 C-0.43498039 12.12634789 -0.43498039 12.12634789 -2.1601342 12.10510409 C-8.53357674 12.17038032 -11.65867508 12.4706718 -15.4864502 17.75517273 Z " fill="#000000" transform="translate(118.4864501953125,337.2448272705078)"/>
<path d="M0 0 C0.85465332 -0.00709439 1.70930663 -0.01418877 2.58985853 -0.02149814 C5.43508734 -0.03900898 8.27893749 -0.02100894 11.12414551 -0.00291443 C13.1714388 -0.00805588 15.21872766 -0.01533887 17.26600647 -0.02459717 C22.81358081 -0.04309033 28.3606737 -0.03018546 33.90822792 -0.01050687 C39.71942312 0.00589798 45.53058826 -0.00293583 51.34179688 -0.00802612 C61.0998909 -0.01254501 70.85779312 0.0033102 80.61584473 0.03126526 C91.89036257 0.06331609 103.1645345 0.06330066 114.4390769 0.04605049 C125.29402844 0.03017544 136.14885342 0.03692531 147.00379944 0.0539875 C151.61926145 0.06085213 156.23462183 0.05983154 160.8500824 0.05244255 C166.28718565 0.04476991 171.7238962 0.05693819 177.16093254 0.08429146 C179.15391309 0.09116604 181.14693037 0.09128323 183.13990974 0.08407593 C185.86527417 0.07535726 188.58943334 0.09137793 191.31469727 0.11352539 C192.09914577 0.10528462 192.88359427 0.09704386 193.69181395 0.08855337 C199.25148637 0.171665 203.49697272 1.55750612 208.15734863 4.62818909 C212.77188439 9.48559515 214.63762322 13.61807749 214.47375488 20.24928284 C213.77680614 25.48930489 211.46372412 29.35531041 207.71984863 33.00318909 C202.39753796 36.37831293 197.89978353 36.92129548 191.67546082 36.90234375 C190.82337077 36.90758043 189.97128073 36.91281711 189.09336978 36.91821247 C186.23924162 36.93320963 183.38529278 36.93391756 180.53112793 36.93458557 C178.48428037 36.94220723 176.43743568 36.95063474 174.39059448 36.95980835 C168.83060785 36.98175926 163.27067623 36.99055304 157.71065116 36.99563479 C154.23657119 36.99927759 150.76250564 37.00551725 147.28843117 37.01263618 C135.16733797 37.03713251 123.04628758 37.05018303 110.9251709 37.0537262 C99.6285511 37.05736184 88.33220294 37.08725895 77.03566617 37.12913078 C67.33529882 37.16382514 57.63502153 37.17927449 47.93459255 37.17997223 C42.14171831 37.18076531 36.34912076 37.18951882 30.55631065 37.21796989 C25.1069313 37.24413569 19.65805834 37.24636376 14.20864487 37.23031425 C12.21080611 37.22849861 10.21293833 37.23520081 8.21516228 37.25113297 C5.48290593 37.2715908 2.75242189 37.26104379 0.02018738 37.24291992 C-1.15955492 37.26271987 -1.15955492 37.26271987 -2.36313039 37.28291982 C-8.24253545 37.19412943 -12.29898677 35.36110244 -16.84265137 31.62818909 C-20.80685152 26.54588119 -22.28192123 22.39328546 -22.17858887 16.03834534 C-21.49421691 11.12837447 -19.11737652 7.39407281 -15.22042036 4.36884075 C-10.03448296 0.84040267 -6.20913186 -0.09368314 0 0 Z " fill="#000000" transform="translate(159.8426513671875,209.37181091308594)"/>
<path d="M0 0 C1.05960937 0.36222656 2.11921875 0.72445313 3.2109375 1.09765625 C15.10410516 5.60727638 24.98815596 13.14570568 34 22 C34.61359375 22.60070312 35.2271875 23.20140625 35.859375 23.8203125 C53.78964277 42.81981642 57.89895412 66.68777297 57.18359375 91.83984375 C56.79213587 98.57791656 55.23143954 104.63491016 53 111 C52.63777344 112.05960937 52.27554688 113.11921875 51.90234375 114.2109375 C44.2223927 134.46518129 27.50701961 151.7644732 8 161 C-13.04642315 169.31063888 -36.3312171 171.59652734 -58 164 C-59.05960938 163.63777344 -60.11921875 163.27554688 -61.2109375 162.90234375 C-82.49167113 154.83317097 -98.82448026 137.79842072 -108.49609375 117.53515625 C-117.02992551 97.47511017 -118.24176769 73.65684553 -111 53 C-110.63777344 51.94039062 -110.27554688 50.88078125 -109.90234375 49.7890625 C-101.83317097 28.50832887 -84.79842072 12.17551974 -64.53515625 2.50390625 C-44.47511017 -6.02992551 -20.65684553 -7.24176769 0 0 Z M-79 27 C-79.70769531 27.62648438 -80.41539062 28.25296875 -81.14453125 28.8984375 C-86.53016485 33.94425101 -90.33535998 39.62280781 -94 46 C-94.4640625 46.79148438 -94.928125 47.58296875 -95.40625 48.3984375 C-104.21404514 64.56396395 -105.38068886 83.11472322 -100.9765625 100.79296875 C-94.93386825 120.63717667 -82.69695274 137.28924129 -64.5546875 147.65625 C-47.20948802 156.77971884 -26.76809263 159.02526698 -7.953125 153.390625 C11.31445342 146.95529223 27.89029451 134.26519843 37.29541016 116.03198242 C46.51318269 96.8923351 48.0019057 76.13730216 41 56 C37.49516491 46.93000874 32.50024206 39.1904222 26 32 C25.37351562 31.29230469 24.74703125 30.58460937 24.1015625 29.85546875 C11.59955806 16.51149258 -7.14636239 8.55102821 -25.3125 7.76171875 C-45.80370597 7.27585602 -63.59594373 13.07451806 -79 27 Z " fill="#010100" transform="translate(285,6)"/>
<path d="M0 0 C16.60215364 13.43151678 27.04823136 29.64184546 30 51 C31.85946414 70.89183896 26.99679656 90.88981567 14.203125 106.5390625 C0.9264532 121.89852036 -16.8170767 132.11370386 -37.19335938 134.22753906 C-57.21613899 135.62264071 -76.35957063 130.18206487 -91.76171875 117.0234375 C-92.50035156 116.35570312 -93.23898438 115.68796875 -94 115 C-94.70769531 114.37351563 -95.41539062 113.74703125 -96.14453125 113.1015625 C-109.48850742 100.59955806 -117.44897179 81.85363761 -118.23828125 63.6875 C-118.72414398 43.19629403 -112.92548194 25.40405627 -99 10 C-98.06027344 8.93845703 -98.06027344 8.93845703 -97.1015625 7.85546875 C-92.05574899 2.46983515 -86.37719219 -1.33535998 -80 -5 C-79.20851562 -5.4640625 -78.41703125 -5.928125 -77.6015625 -6.40625 C-53.08474549 -19.76424997 -22.42798591 -15.86107164 0 0 Z M-90.9765625 18.51171875 C-102.86535657 33.13172227 -107.74948201 48.95265713 -106.29101562 67.6328125 C-104.22738664 84.41884154 -94.51251993 99.15541832 -81.6875 109.75 C-67.35313739 120.32003435 -52.43821199 123.38971793 -35 122 C-31.13446431 121.37827048 -27.64522557 120.41420122 -24 119 C-23.24976563 118.7215625 -22.49953125 118.443125 -21.7265625 118.15625 C-4.28655268 111.05786004 6.99354591 98.92247451 14.3515625 81.8671875 C19.95406648 67.07496476 19.96200525 50.54025484 13.87744141 35.90380859 C5.90494941 18.60567488 -7.32823853 7.25561947 -25 0.5625 C-48.645135 -7.67635173 -74.28283048 0.54578782 -90.9765625 18.51171875 Z " fill="#F7DB6B" transform="translate(300,28)"/>
<path d="M0 0 C11.85583382 10.30392863 21.87791315 24.78172727 23.16796875 40.83447266 C24.12807531 59.0884987 19.77192498 76.31164072 7.56640625 90.35546875 C-4.36025738 102.52720081 -19.2665103 110.68845334 -36.53149414 111.08520508 C-53.73788723 111.22667418 -67.90361697 106.04661452 -80.99609375 94.79296875 C-81.60195312 94.29410156 -82.2078125 93.79523438 -82.83203125 93.28125 C-93.32717495 83.85461641 -100.38525963 67.82661045 -101.47265625 53.9609375 C-102.26272527 36.20319564 -97.35982962 21.14990236 -85.68359375 7.60546875 C-62.31812851 -17.27875173 -27.4277684 -20.20428833 0 0 Z M-76.9609375 15.28515625 C-86.57788698 27.13560071 -90.10698527 39.66925262 -88.99609375 54.79296875 C-87.19094115 68.87761622 -80.19028015 79.80230655 -69.5234375 88.9375 C-58.24873958 97.21490574 -45.80418652 100.30822606 -31.99609375 98.79296875 C-22.20958821 97.02133163 -13.57993857 93.30747738 -5.99609375 86.79296875 C-5.35285156 86.24769531 -4.70960938 85.70242187 -4.046875 85.140625 C5.94103689 75.9326802 10.88470444 63.16111689 11.47680664 49.71606445 C11.66922677 35.17360975 6.10004899 23.02967022 -3.80859375 12.48046875 C-14.87076728 2.03880398 -27.63874995 -1.60233249 -42.59765625 -1.4140625 C-56.13679658 -0.5892643 -67.73093017 5.40184531 -76.9609375 15.28515625 Z " fill="#050402" transform="translate(294.99609375,39.20703125)"/>
<path d="M0 0 C5.94 0 11.88 0 18 0 C18.00364563 2.05745453 18.00729126 4.11490906 18.01104736 6.23471069 C18.04730171 25.62757168 18.10552725 45.02027819 18.18390274 64.41301537 C18.22366958 74.38293087 18.25607405 84.35276771 18.27099609 94.32275391 C18.28402481 103.01514105 18.31102062 111.70735494 18.35461307 120.39964449 C18.37720043 124.99987278 18.39291232 129.59988758 18.39188385 134.20017624 C18.39113563 138.53574317 18.40915128 142.87083868 18.44116783 147.20628357 C18.44964231 148.79204278 18.4514335 150.37785501 18.44580269 151.96362686 C18.41290207 162.65908417 19.21390122 171.37291349 26 180 C12.54214603 180.92317596 12.54214603 180.92317596 6.5859375 176.5 C2.56076432 172.69293965 0.10811484 168.60220627 -0.12304783 163.03837299 C-0.12212604 161.81699729 -0.12120424 160.59562159 -0.12025452 159.3372345 C-0.12110894 158.65680153 -0.12196337 157.97636856 -0.12284368 157.27531642 C-0.12449353 154.9905652 -0.1189852 152.70588706 -0.11352539 150.42114258 C-0.11324339 148.78525291 -0.11340151 147.14936311 -0.1139679 145.51347351 C-0.11425535 141.06750092 -0.10836694 136.62155519 -0.10139394 132.17558885 C-0.09515183 127.53109768 -0.09455592 122.88660592 -0.09336853 118.24211121 C-0.09025775 109.44487888 -0.08204776 100.64765896 -0.07201904 91.8504321 C-0.06085006 81.83604448 -0.05534547 71.82165627 -0.05032361 61.80726397 C-0.03986495 41.20483554 -0.02206946 20.60241898 0 0 Z " fill="#F4FCFD" transform="translate(38,318)"/>
<path d="M0 0 C0.83686925 -0.00467997 1.67373849 -0.00935994 2.53596741 -0.01418173 C5.35047746 -0.02618279 8.16450518 -0.0166546 10.97901917 -0.00723267 C12.99265325 -0.01129613 15.00628511 -0.01663674 17.01991272 -0.02316284 C22.49715703 -0.0368699 27.97423231 -0.03152357 33.45147967 -0.02202559 C39.17648964 -0.01444549 44.90148485 -0.0214701 50.62649536 -0.02618408 C60.24289048 -0.03164689 69.85921655 -0.0244367 79.4756012 -0.01016235 C90.60064971 0.0061605 101.72553326 0.00088037 112.85057777 -0.01564157 C122.3928867 -0.02924699 131.93514591 -0.03118057 141.4774614 -0.02332556 C147.18072563 -0.01864326 152.88391228 -0.0180394 158.58717155 -0.02793503 C163.94943096 -0.0365885 169.31147734 -0.03061235 174.67371368 -0.01325226 C176.64419005 -0.00927856 178.61468428 -0.01043649 180.58515358 -0.01704025 C183.27039166 -0.02521106 185.95494268 -0.0149883 188.64013672 0 C189.42408339 -0.00669217 190.20803007 -0.01338433 191.01573271 -0.02027929 C195.24162552 0.02562423 197.82582533 0.34091738 200.88356018 3.38095093 C200.57106018 6.75595093 200.57106018 6.75595093 199.88356018 10.38095093 C196.10988727 12.89673287 193.13108966 12.66558023 188.76039124 12.64837646 C187.50402902 12.65517313 187.50402902 12.65517313 186.22228575 12.66210711 C183.40554568 12.67480415 180.58899764 12.67312735 177.77223206 12.67147827 C175.75697581 12.67746012 173.74172186 12.68426487 171.72647095 12.6918335 C166.24520481 12.7095334 160.76400107 12.71419049 155.28270912 12.71546507 C150.71231596 12.71736144 146.14193743 12.72471576 141.57154989 12.73180926 C130.7932216 12.74810518 120.01492672 12.75297703 109.23658752 12.7515564 C98.10354207 12.75035392 86.97069015 12.77147413 75.83769369 12.80304372 C66.29030996 12.82915616 56.74298966 12.83992585 47.19557047 12.83864558 C41.48838408 12.83813456 35.7813697 12.843895 30.07421875 12.86500168 C24.70947016 12.88429999 19.34505917 12.8845664 13.980299 12.86996841 C12.00778145 12.86786889 10.03524322 12.87264873 8.06276131 12.88468933 C5.37701451 12.90002635 2.69244877 12.8909111 0.00672913 12.87542725 C-0.78013039 12.88571437 -1.56698991 12.8960015 -2.37769365 12.90660036 C-7.63024152 12.83933566 -7.63024152 12.83933566 -10.10070038 10.51020241 C-11.35797557 7.87462979 -11.56046967 6.26714497 -11.11643982 3.38095093 C-8.54240524 -0.7442888 -4.35017309 -0.03702991 0 0 Z " fill="#545555" transform="translate(161.11643981933594,221.61904907226563)"/>
<path d="M0 0 C5.87529418 3.25573627 8.7563121 8.2001242 11.6875 14.0625 C11.79856292 15.82806079 11.84670218 17.59773821 11.86450195 19.36669922 C11.88375481 21.02884964 11.88375481 21.02884964 11.90339661 22.72457886 C11.91078354 23.92663971 11.91817047 25.12870056 11.92578125 26.3671875 C11.933853 27.59784943 11.94192474 28.82851135 11.95024109 30.09646606 C11.96409032 32.70410753 11.9748087 35.31176719 11.98266602 37.91943359 C11.99153561 40.59479481 12.01242948 43.26963822 12.04418945 45.94482422 C12.0866954 49.79410586 12.10301205 53.64270082 12.11328125 57.4921875 C12.13078934 58.69019989 12.14829742 59.88821228 12.16633606 61.12252808 C12.16341049 62.23693268 12.16048492 63.35133728 12.1574707 64.49951172 C12.16333694 65.47943085 12.16920319 66.45934998 12.17524719 67.46896362 C11.54817995 70.80331743 10.3164894 71.98529658 7.6875 74.0625 C5.125 74.5625 5.125 74.5625 2.6875 74.0625 C0.3357308 71.72513727 -0.27895138 70.3604214 -0.65307617 67.03808594 C-0.63736572 65.88598633 -0.62165527 64.73388672 -0.60546875 63.546875 C-0.59580078 62.29648437 -0.58613281 61.04609375 -0.57617188 59.7578125 C-0.55103516 58.45585937 -0.52589844 57.15390625 -0.5 55.8125 C-0.47969727 53.83636719 -0.47969727 53.83636719 -0.45898438 51.8203125 C-0.42362809 48.567534 -0.36982152 45.31496557 -0.3125 42.0625 C-6.9125 42.0625 -13.5125 42.0625 -20.3125 42.0625 C-20.26609375 44.03734375 -20.2196875 46.0121875 -20.171875 48.046875 C-20.13436012 50.63540157 -20.09795966 53.22394446 -20.0625 55.8125 C-20.02898437 57.11445313 -19.99546875 58.41640625 -19.9609375 59.7578125 C-19.94804687 61.00820313 -19.93515625 62.25859375 -19.921875 63.546875 C-19.90092773 64.69897461 -19.87998047 65.85107422 -19.85839844 67.03808594 C-20.40859564 70.70251764 -21.39909451 71.84713954 -24.3125 74.0625 C-26.875 74.5625 -26.875 74.5625 -29.3125 74.0625 C-32.24400194 71.01123651 -32.69846318 68.79115896 -32.74829102 64.62646484 C-32.76743057 63.53788177 -32.78657013 62.44929871 -32.80628967 61.32772827 C-32.80962814 60.15481232 -32.81296661 58.98189636 -32.81640625 57.7734375 C-32.82639145 56.55983551 -32.83637665 55.34623352 -32.84666443 54.09585571 C-32.8618568 51.52536427 -32.86888988 48.95481364 -32.8684082 46.38427734 C-32.87494134 42.47262338 -32.92934014 38.56354541 -32.98632812 34.65234375 C-32.99513599 32.15105031 -33.00108632 29.64974486 -33.00390625 27.1484375 C-33.0254628 25.98766693 -33.04701935 24.82689636 -33.06922913 23.63095093 C-33.00275922 15.65521479 -31.23678643 10.37776473 -26.3125 4.0625 C-18.75842314 -3.18249025 -9.403884 -4.03225011 0 0 Z " fill="#020100" transform="translate(322.3125,371.9375)"/>
<path d="M0 0 C5.87529418 3.25573627 8.7563121 8.2001242 11.6875 14.0625 C11.79856292 15.82806079 11.84670218 17.59773821 11.86450195 19.36669922 C11.88375481 21.02884964 11.88375481 21.02884964 11.90339661 22.72457886 C11.91078354 23.92663971 11.91817047 25.12870056 11.92578125 26.3671875 C11.933853 27.59784943 11.94192474 28.82851135 11.95024109 30.09646606 C11.96409032 32.70410753 11.9748087 35.31176719 11.98266602 37.91943359 C11.99153561 40.59479481 12.01242948 43.26963822 12.04418945 45.94482422 C12.0866954 49.79410586 12.10301205 53.64270082 12.11328125 57.4921875 C12.13078934 58.69019989 12.14829742 59.88821228 12.16633606 61.12252808 C12.16341049 62.23693268 12.16048492 63.35133728 12.1574707 64.49951172 C12.16333694 65.47943085 12.16920319 66.45934998 12.17524719 67.46896362 C11.54817995 70.80331743 10.3164894 71.98529658 7.6875 74.0625 C5.125 74.5625 5.125 74.5625 2.6875 74.0625 C0.3357308 71.72513727 -0.27895138 70.3604214 -0.65307617 67.03808594 C-0.63736572 65.88598633 -0.62165527 64.73388672 -0.60546875 63.546875 C-0.59580078 62.29648437 -0.58613281 61.04609375 -0.57617188 59.7578125 C-0.55103516 58.45585937 -0.52589844 57.15390625 -0.5 55.8125 C-0.47969727 53.83636719 -0.47969727 53.83636719 -0.45898438 51.8203125 C-0.42362809 48.567534 -0.36982152 45.31496557 -0.3125 42.0625 C-6.9125 42.0625 -13.5125 42.0625 -20.3125 42.0625 C-20.26609375 44.03734375 -20.2196875 46.0121875 -20.171875 48.046875 C-20.13436012 50.63540157 -20.09795966 53.22394446 -20.0625 55.8125 C-20.02898437 57.11445313 -19.99546875 58.41640625 -19.9609375 59.7578125 C-19.94804687 61.00820313 -19.93515625 62.25859375 -19.921875 63.546875 C-19.90092773 64.69897461 -19.87998047 65.85107422 -19.85839844 67.03808594 C-20.40859564 70.70251764 -21.39909451 71.84713954 -24.3125 74.0625 C-26.875 74.5625 -26.875 74.5625 -29.3125 74.0625 C-32.24400194 71.01123651 -32.69846318 68.79115896 -32.74829102 64.62646484 C-32.76743057 63.53788177 -32.78657013 62.44929871 -32.80628967 61.32772827 C-32.80962814 60.15481232 -32.81296661 58.98189636 -32.81640625 57.7734375 C-32.82639145 56.55983551 -32.83637665 55.34623352 -32.84666443 54.09585571 C-32.8618568 51.52536427 -32.86888988 48.95481364 -32.8684082 46.38427734 C-32.87494134 42.47262338 -32.92934014 38.56354541 -32.98632812 34.65234375 C-32.99513599 32.15105031 -33.00108632 29.64974486 -33.00390625 27.1484375 C-33.0254628 25.98766693 -33.04701935 24.82689636 -33.06922913 23.63095093 C-33.00275922 15.65521479 -31.23678643 10.37776473 -26.3125 4.0625 C-18.75842314 -3.18249025 -9.403884 -4.03225011 0 0 Z " fill="#020100" transform="translate(210.3125,371.9375)"/>
<path d="M0 0 C3.4375 0.8125 3.4375 0.8125 5.4375 2.8125 C5.75634766 5.70166016 5.75634766 5.70166016 5.8515625 9.3515625 C5.89023438 10.65351563 5.92890625 11.95546875 5.96875 13.296875 C6.00020763 14.67707862 6.03145491 16.05728704 6.0625 17.4375 C6.10067934 18.82554541 6.13973105 20.21356711 6.1796875 21.6015625 C6.27422943 25.00507185 6.35977897 28.40857165 6.4375 31.8125 C7.03288574 30.91418457 7.62827148 30.01586914 8.24169922 29.09033203 C10.44964481 25.76032405 12.66063675 22.43234831 14.87255859 19.10498047 C15.82977284 17.66412796 16.78615818 16.22272441 17.74169922 14.78076172 C19.11468848 12.70915903 20.49063886 10.6395512 21.8671875 8.5703125 C22.29434052 7.92442169 22.72149353 7.27853088 23.16159058 6.61306763 C24.7981101 4.15797952 26.34541821 1.90458179 28.4375 -0.1875 C31.9375 0 31.9375 0 35.4375 0.8125 C37.4375 3.8125 37.4375 3.8125 37.3190918 6.60522461 C36.26820883 10.42838981 34.63291521 12.90260593 32.33203125 16.12890625 C31.50545549 17.31677635 30.67929577 18.50493604 29.85351562 19.69335938 C28.5495676 21.54343267 27.23994911 23.38903503 25.92211914 25.22924805 C24.64688832 27.01846648 23.39482413 28.8222106 22.14453125 30.62890625 C21.3863208 31.69568604 20.62811035 32.76246582 19.84692383 33.86157227 C18.14193003 36.66711207 18.14193003 36.66711207 18.95898438 39.34204102 C20.65297879 42.17254456 22.44976129 44.85193923 24.38671875 47.5234375 C25.16038432 48.61396018 25.93314373 49.7051262 26.70507812 50.796875 C27.91434955 52.49737454 29.12891649 54.19286243 30.35961914 55.87792969 C31.55363145 57.51835308 32.72152462 59.17496915 33.88671875 60.8359375 C34.59143311 61.81481934 35.29614746 62.79370117 36.0222168 63.80224609 C37.82606433 67.63896165 37.56808823 69.77030564 36.4375 73.8125 C33.20695341 75.96619773 32.18579669 76.32044675 28.4375 75.8125 C26.8046875 74.44140625 26.8046875 74.44140625 25.3125 72.375 C24.73113281 71.57320313 24.14976562 70.77140625 23.55078125 69.9453125 C19.0709877 63.30428768 14.72620791 56.57819595 10.4375 49.8125 C6.70901246 53.53358975 6.02322849 56.06335869 5.92578125 61.09960938 C5.92964844 61.85048828 5.93351563 62.60136719 5.9375 63.375 C5.97704431 71.09273211 5.97704431 71.09273211 3.56640625 74.30859375 C1.4375 75.8125 1.4375 75.8125 -1.125 76.3125 C-3.5625 75.8125 -3.5625 75.8125 -5.19058228 74.20252991 C-7.01657087 71.02145916 -6.94344906 68.73310544 -6.95068359 65.07202148 C-6.95594055 64.40325989 -6.96119751 63.73449829 -6.96661377 63.04547119 C-6.97978693 60.84127247 -6.97108686 58.63779944 -6.9609375 56.43359375 C-6.96295878 54.89949912 -6.96587068 53.36540543 -6.96963501 51.83131409 C-6.9740545 48.6193017 -6.96763871 45.40753987 -6.95361328 42.19555664 C-6.93650692 38.0772 -6.94637371 33.95942925 -6.96433067 29.84109402 C-6.97516649 26.67466306 -6.97172341 23.50837124 -6.9639473 20.34193611 C-6.96194546 18.82327264 -6.96440399 17.30459654 -6.97138596 15.7859478 C-6.97899903 13.66481882 -6.96740047 11.54464197 -6.95068359 9.42358398 C-6.94829681 8.21653305 -6.94591003 7.00948212 -6.94345093 5.76585388 C-6.5625 2.8125 -6.5625 2.8125 -5.26089478 0.8875885 C-3.5625 -0.1875 -3.5625 -0.1875 0 0 Z " fill="#040301" transform="translate(240.5625,370.1875)"/>
<path d="M0 0 C0.80752213 -0.00287018 1.61504425 -0.00574036 2.44703674 -0.00869751 C4.1542328 -0.01073814 5.86145224 -0.00520828 7.56860352 0.00732422 C10.17843118 0.02335779 12.78670536 0.0074871 15.39648438 -0.01171875 C17.055993 -0.00973591 18.71550065 -0.00589138 20.375 0 C21.54391029 -0.00910904 21.54391029 -0.00910904 22.73643494 -0.0184021 C27.00661865 0.03685498 29.66781039 0.3148934 32.75390625 3.3984375 C32.41894172 10.69882872 29.02778163 16.48345619 25.75 22.89453125 C25.14520682 24.09477905 24.54130306 25.2954754 23.93824768 26.49659729 C22.35735172 29.63940194 20.7645325 32.77601002 19.16906738 35.91143799 C17.53964525 39.1189114 15.92169157 42.33215742 14.30273438 45.54492188 C11.13092892 51.83509116 7.94647844 58.11877933 4.75390625 64.3984375 C5.45999023 64.38272705 6.16607422 64.3670166 6.89355469 64.35083008 C10.09692354 64.28841653 13.30016437 64.24942639 16.50390625 64.2109375 C17.61507812 64.18580078 18.72625 64.16066406 19.87109375 64.13476562 C20.94101563 64.12509766 22.0109375 64.11542969 23.11328125 64.10546875 C24.09780273 64.0897583 25.08232422 64.07404785 26.09667969 64.05786133 C29.14673034 64.44878568 30.49504348 65.36686694 32.75390625 67.3984375 C32.44140625 70.7734375 32.44140625 70.7734375 31.75390625 74.3984375 C27.96064306 76.92727963 24.87139309 76.72189463 20.47265625 76.734375 C19.66276245 76.7410318 18.85286865 76.7476886 18.01843262 76.75454712 C16.30707062 76.76466657 14.59566923 76.76936436 12.88427734 76.76904297 C10.26333936 76.77342174 7.64407812 76.80976154 5.0234375 76.84765625 C3.36068285 76.85352343 1.69792019 76.85749348 0.03515625 76.859375 C-0.74927856 76.87374603 -1.53371338 76.88811707 -2.34191895 76.90292358 C-5.579651 76.87566439 -7.70936811 76.80904522 -10.32617188 74.80712891 C-12.03939322 70.32128979 -10.93023991 67.01803155 -9.13571167 62.76980591 C-7.63456433 59.59495987 -6.06071572 56.46614307 -4.4609375 53.33984375 C-3.88525528 52.19555405 -3.30957306 51.05126434 -2.71644592 49.87229919 C-1.19473443 46.84785734 0.33889678 43.82961972 1.87518311 40.81256104 C3.44428702 37.72573751 5.00191348 34.63313531 6.56054688 31.54101562 C9.61450252 25.48813546 12.67981547 19.44111422 15.75390625 13.3984375 C14.68692505 13.38441895 14.68692505 13.38441895 13.59838867 13.37011719 C10.37868565 13.31646862 7.16044442 13.23281115 3.94140625 13.1484375 C2.82185547 13.13425781 1.70230469 13.12007813 0.54882812 13.10546875 C-1.06088867 13.05712891 -1.06088867 13.05712891 -2.703125 13.0078125 C-4.18776245 12.9763916 -4.18776245 12.9763916 -5.70239258 12.94433594 C-8.24609375 12.3984375 -8.24609375 12.3984375 -10.0690918 10.52050781 C-11.53128395 7.88425513 -11.70332932 6.37046869 -11.24609375 3.3984375 C-8.67068457 -0.75939191 -4.36984166 -0.03396491 0 0 Z " fill="#040301" transform="translate(133.24609375,369.6015625)"/>
<path d="M0 0 C0.80752213 -0.00287018 1.61504425 -0.00574036 2.44703674 -0.00869751 C4.1542328 -0.01073814 5.86145224 -0.00520828 7.56860352 0.00732422 C10.17843118 0.02335779 12.78670536 0.0074871 15.39648438 -0.01171875 C17.055993 -0.00973591 18.71550065 -0.00589138 20.375 0 C21.54391029 -0.00910904 21.54391029 -0.00910904 22.73643494 -0.0184021 C27.00661865 0.03685498 29.66781039 0.3148934 32.75390625 3.3984375 C32.44140625 6.7734375 32.44140625 6.7734375 31.75390625 10.3984375 C28.22711526 12.74963149 26.7251114 12.61287202 22.56640625 12.5234375 C20.93638672 12.49636719 20.93638672 12.49636719 19.2734375 12.46875 C18.02626953 12.43394531 18.02626953 12.43394531 16.75390625 12.3984375 C16.7627887 13.14123962 16.77167114 13.88404175 16.78082275 14.64935303 C16.86100369 21.65293655 16.92188811 28.65636085 16.96115494 35.66027451 C16.98202138 39.26102036 17.01032046 42.86138666 17.05566406 46.46191406 C17.0991575 49.93731663 17.12305046 53.41235438 17.13341522 56.88800812 C17.1443924 58.85789534 17.17561325 60.82763597 17.20709229 62.79730225 C17.20739441 63.99824524 17.20769653 65.19918823 17.20800781 66.43652344 C17.21689026 67.49353455 17.22577271 68.55054565 17.23492432 69.6395874 C16.63176847 73.09895139 15.49202929 74.26803713 12.75390625 76.3984375 C10.19140625 76.8984375 10.19140625 76.8984375 7.75390625 76.3984375 C4.62413472 73.21575795 4.38577791 70.80813439 4.41333008 66.43652344 C4.41355667 65.23558044 4.41378326 64.03463745 4.41401672 62.79730225 C4.42950058 61.50552063 4.44498444 60.21373901 4.4609375 58.8828125 C4.46653573 57.54331945 4.47080476 56.20382024 4.47380066 54.86431885 C4.48523171 51.34605829 4.51468331 47.82817179 4.5479126 44.31005859 C4.57865136 40.71717386 4.59231409 37.12422844 4.60742188 33.53125 C4.63955512 26.48682654 4.69073004 19.4426565 4.75390625 12.3984375 C3.39845703 12.46804688 3.39845703 12.46804688 2.015625 12.5390625 C0.83613281 12.57515625 -0.34335937 12.61125 -1.55859375 12.6484375 C-3.31623047 12.71804688 -3.31623047 12.71804688 -5.109375 12.7890625 C-8.24609375 12.3984375 -8.24609375 12.3984375 -10.140625 10.54296875 C-11.50514567 7.89589508 -11.69838116 6.33830565 -11.24609375 3.3984375 C-8.67068457 -0.75939191 -4.36984166 -0.03396491 0 0 Z " fill="#010100" transform="translate(357.24609375,369.6015625)"/>
<path d="M0 0 C0.79068888 -0.00085442 1.58137776 -0.00170885 2.39602691 -0.00258917 C5.0539018 -0.00424045 7.71171402 0.00127169 10.36958313 0.00672913 C12.27147927 0.0070111 14.17337553 0.00685307 16.07527161 0.00628662 C21.24642613 0.00599904 26.41755758 0.01188941 31.58870673 0.01886058 C36.98993295 0.02510068 42.39115965 0.02569844 47.79238892 0.02688599 C58.02396708 0.02999736 68.25553459 0.03820815 78.48710805 0.04823548 C90.13387116 0.05940261 101.78063477 0.06490858 113.4274019 0.06993091 C137.38901054 0.08039091 161.35060971 0.09798662 185.31221008 0.12025452 C183.56221008 4.99525452 183.56221008 4.99525452 181.31221008 6.12025452 C178.74271064 6.21585831 176.20045514 6.25039942 173.63078308 6.24050903 C172.82869797 6.24136346 172.02661286 6.24221788 171.20022213 6.2430982 C168.49778303 6.24475253 165.79540524 6.23923238 163.0929718 6.23377991 C161.16166689 6.233498 159.23036186 6.23365584 157.29905701 6.23422241 C152.04313539 6.23451025 146.78723643 6.22861577 141.5313201 6.22164845 C136.04333707 6.2154126 130.55535357 6.21481093 125.06736755 6.21362305 C114.66930113 6.21051042 104.27124518 6.20229795 93.87318337 6.19227356 C82.0378134 6.1811103 70.20244293 6.17560143 58.36706901 6.17057812 C34.01544355 6.16011528 9.6638274 6.14251716 -14.68778992 6.12025452 C-10.2711084 0.18057938 -7.08286275 -0.02779689 0 0 Z " fill="#646565" transform="translate(176.6877899169922,227.87974548339844)"/>
<path d="M0 0 C3.93539483 0.2997155 6.68003836 0.81811425 10.171875 2.7421875 C13.40412633 8.26829461 12.40392881 13.7512359 12.109375 20.0546875 C5.509375 20.0546875 -1.090625 20.0546875 -7.890625 20.0546875 C-8.49245666 7.17548994 -8.49245666 7.17548994 -6.8125 4.046875 C-5.453125 2.7421875 -5.453125 2.7421875 -2.890625 1.0546875 C-1.890625 0.0546875 -1.890625 0.0546875 0 0 Z " fill="#F7C858" transform="translate(309.890625,381.9453125)"/>
<path d="M0 0 C3.93539483 0.2997155 6.68003836 0.81811425 10.171875 2.7421875 C13.40412633 8.26829461 12.40392881 13.7512359 12.109375 20.0546875 C5.509375 20.0546875 -1.090625 20.0546875 -7.890625 20.0546875 C-8.49245666 7.17548994 -8.49245666 7.17548994 -6.8125 4.046875 C-5.453125 2.7421875 -5.453125 2.7421875 -2.890625 1.0546875 C-1.890625 0.0546875 -1.890625 0.0546875 0 0 Z " fill="#F7C858" transform="translate(197.890625,381.9453125)"/>
</svg>
