<?xml version="1.0" encoding="UTF-8"?>
<svg version="1.1" xmlns="http://www.w3.org/2000/svg" width="512" height="512">
<path d="M0 0 C6.13052573 3.70468329 9.9448497 8.95587425 12.5625 15.5 C12.5625 25.73 12.5625 35.96 12.5625 46.5 C91.7625 46.5 170.9625 46.5 252.5625 46.5 C252.5625 36.27 252.5625 26.04 252.5625 15.5 C257.08783784 6.44932432 257.08783784 6.44932432 260.5 3.625 C261.14839844 3.07070313 261.79679687 2.51640625 262.46484375 1.9453125 C268.96607557 -2.53412097 275.93390917 -2.17463728 283.5625 -1.5 C290.22209333 0.18085583 294.74797447 4.96378322 298.5625 10.5 C300.63344738 14.68128779 300.79598079 18.13208461 300.7578125 22.76953125 C300.75356766 23.79103523 300.75356766 23.79103523 300.74923706 24.83317566 C300.73810525 26.99313455 300.71301457 29.15266794 300.6875 31.3125 C300.67746111 32.78319711 300.66833685 34.25390076 300.66015625 35.72460938 C300.63818913 39.31654286 300.6037082 42.90822985 300.5625 46.5 C302.25608643 46.4685791 302.25608643 46.4685791 303.98388672 46.43652344 C308.21438676 46.36355532 312.44483237 46.31799588 316.67578125 46.28027344 C318.49911892 46.26028636 320.32239356 46.23308714 322.14550781 46.19824219 C335.27973938 45.95368366 345.76200848 46.09592517 355.80859375 55.57421875 C361.72762431 62.07328794 364.80847209 69.07294528 364.81976891 77.92631149 C364.8262178 79.20701358 364.83266669 80.48771566 364.839311 81.8072269 C364.83636897 83.22115541 364.83323356 84.63508353 364.82992554 86.04901123 C364.83366309 87.55674188 364.83826503 89.0644706 364.84365618 90.57219625 C364.85588872 94.71233228 364.85562541 98.85238752 364.85326743 102.9925375 C364.85285933 107.45893537 364.86389783 111.92530732 364.87338257 116.39169312 C364.88999514 125.14130118 364.89549224 133.89088229 364.89660732 142.64050481 C364.89755772 149.75317135 364.90166756 156.86582901 364.90800858 163.97849274 C364.925622 184.14592712 364.93484733 204.31334023 364.93334763 224.48078236 C364.93326772 225.56800309 364.9331878 226.65522381 364.93310547 227.77539062 C364.93302371 228.86393952 364.93294195 229.95248841 364.93285771 231.07402363 C364.93204487 248.71407393 364.95118172 266.35403883 364.9793822 283.99406442 C365.00811234 302.10840753 365.02192241 320.222709 365.02019465 338.33707547 C365.01953077 348.50621474 365.02502198 358.67526449 365.04655075 368.84438324 C365.06476428 377.50303157 365.06910848 386.1615498 365.0555319 394.820209 C365.04900302 399.23666176 365.04888212 403.65286497 365.0662384 408.06929398 C365.08197785 412.11598866 365.07909678 416.16223608 365.06167014 420.20891991 C365.05860214 421.66920692 365.06222514 423.12952739 365.07339029 424.58977494 C365.15595759 436.15896049 363.59202671 445.15647062 355.48828125 453.74609375 C348.69685234 459.93139107 341.6027651 462.74688096 332.38655472 462.75726891 C331.68364091 462.76077498 330.98072711 462.76428105 330.25651288 462.76789337 C327.90133709 462.77719664 325.54640915 462.77228688 323.19122314 462.76742554 C321.48550234 462.77116234 319.77978325 462.77576398 318.07406688 462.78115618 C313.38665793 462.79339791 308.69932029 462.79312433 304.01189899 462.79076743 C298.95654002 462.79035956 293.90120401 462.80139559 288.84585571 462.81088257 C278.94120168 462.82750012 269.03657144 462.83299246 259.13190463 462.83410732 C251.08102328 462.83505747 243.0301498 462.83916607 234.97927094 462.84550858 C212.15563571 462.86312326 189.3320193 462.87234712 166.50837722 462.87084763 C164.66248245 462.87072776 164.66248245 462.87072776 162.77929688 462.87060547 C160.93114927 462.87048283 160.93114927 462.87048283 159.04566535 462.87035771 C139.07766982 462.8695448 119.10974971 462.88868299 99.141776 462.9168822 C78.6408474 462.9456057 58.1399556 462.95942278 37.63900638 462.95769465 C26.12847887 462.95703055 14.61803044 462.96253156 3.10752106 462.98405075 C-6.69297406 463.00225551 -16.49335427 463.00661566 -26.29385898 462.9930319 C-31.29357786 462.98649866 -36.29307624 462.98639802 -41.2927742 463.0037384 C-45.87237305 463.01945829 -50.45157637 463.0166165 -55.03116551 462.99917014 C-56.68525988 462.99609786 -58.33938369 462.99974123 -59.99344334 463.01089029 C-71.94697395 463.08610679 -81.6457232 461.95241872 -90.68359375 453.42578125 C-96.60262431 446.92671206 -99.68347209 439.92705472 -99.69476891 431.07368851 C-99.7012178 429.79298642 -99.70766669 428.51228434 -99.714311 427.1927731 C-99.71136897 425.77884459 -99.70823356 424.36491647 -99.70492554 422.95098877 C-99.70866309 421.44325812 -99.71326503 419.9355294 -99.71865618 418.42780375 C-99.73088872 414.28766772 -99.73062541 410.14761248 -99.72826743 406.0074625 C-99.72785933 401.54106463 -99.73889783 397.07469268 -99.74838257 392.60830688 C-99.76499514 383.85869882 -99.77049224 375.10911771 -99.77160732 366.35949519 C-99.77255772 359.24682865 -99.77666756 352.13417099 -99.78300858 345.02150726 C-99.800622 324.85407288 -99.80984733 304.68665977 -99.80834763 284.51921764 C-99.80826772 283.43199691 -99.8081878 282.34477619 -99.80810547 281.22460938 C-99.80802371 280.13606048 -99.80794195 279.04751159 -99.80785771 277.92597637 C-99.80704487 260.28592607 -99.82618172 242.64596117 -99.8543822 225.00593558 C-99.88311234 206.89159247 -99.89692241 188.777291 -99.89519465 170.66292453 C-99.89453077 160.49378526 -99.90002198 150.32473551 -99.92155075 140.15561676 C-99.93976428 131.49696843 -99.94410848 122.8384502 -99.9305319 114.179791 C-99.92400302 109.76333824 -99.92388212 105.34713503 -99.9412384 100.93070602 C-99.95697785 96.88401134 -99.95409678 92.83776392 -99.93667014 88.79108009 C-99.93360214 87.33079308 -99.93722514 85.87047261 -99.94839029 84.41022506 C-100.03095759 72.84103951 -98.46702671 63.84352938 -90.36328125 55.25390625 C-82.88028785 48.43876622 -75.27881285 46.17964661 -65.3203125 46.3046875 C-64.0345784 46.30893234 -64.0345784 46.30893234 -62.72286987 46.31326294 C-60.00260068 46.32440001 -57.28266859 46.3494924 -54.5625 46.375 C-52.71094228 46.38503818 -50.85937936 46.39416256 -49.0078125 46.40234375 C-44.4842464 46.42431812 -39.96093023 46.458803 -35.4375 46.5 C-35.45844727 45.6028125 -35.47939453 44.705625 -35.50097656 43.78125 C-35.56957616 40.41900141 -35.61950294 37.05750765 -35.65722656 33.69482422 C-35.67721295 32.24581083 -35.70441197 30.79687675 -35.73925781 29.34814453 C-35.95970504 19.94023473 -36.01603743 12.7248121 -29.47265625 5.2578125 C-28.82167969 4.71898437 -28.17070313 4.18015625 -27.5 3.625 C-26.85160156 3.07070313 -26.20320313 2.51640625 -25.53515625 1.9453125 C-18.47077988 -2.92213491 -7.84396301 -3.47595223 0 0 Z " fill="#FEF49F" transform="translate(123.4375,25.5)"/>
<path d="M0 0 C6.13052573 3.70468329 9.9448497 8.95587425 12.5625 15.5 C12.5625 25.73 12.5625 35.96 12.5625 46.5 C91.7625 46.5 170.9625 46.5 252.5625 46.5 C252.5625 36.27 252.5625 26.04 252.5625 15.5 C257.08783784 6.44932432 257.08783784 6.44932432 260.5 3.625 C261.14839844 3.07070313 261.79679687 2.51640625 262.46484375 1.9453125 C268.96607557 -2.53412097 275.93390917 -2.17463728 283.5625 -1.5 C290.22209333 0.18085583 294.74797447 4.96378322 298.5625 10.5 C300.63344738 14.68128779 300.79598079 18.13208461 300.7578125 22.76953125 C300.75356766 23.79103523 300.75356766 23.79103523 300.74923706 24.83317566 C300.73810525 26.99313455 300.71301457 29.15266794 300.6875 31.3125 C300.67746111 32.78319711 300.66833685 34.25390076 300.66015625 35.72460938 C300.63818913 39.31654286 300.6037082 42.90822985 300.5625 46.5 C302.25608643 46.4685791 302.25608643 46.4685791 303.98388672 46.43652344 C308.21438676 46.36355532 312.44483237 46.31799588 316.67578125 46.28027344 C318.49911892 46.26028636 320.32239356 46.23308714 322.14550781 46.19824219 C335.27973938 45.95368366 345.76200848 46.09592517 355.80859375 55.57421875 C361.72762431 62.07328794 364.80847209 69.07294528 364.81976891 77.92631149 C364.8262178 79.20701358 364.83266669 80.48771566 364.839311 81.8072269 C364.83636897 83.22115541 364.83323356 84.63508353 364.82992554 86.04901123 C364.83366309 87.55674188 364.83826503 89.0644706 364.84365618 90.57219625 C364.85588872 94.71233228 364.85562541 98.85238752 364.85326743 102.9925375 C364.85285933 107.45893537 364.86389783 111.92530732 364.87338257 116.39169312 C364.88999514 125.14130118 364.89549224 133.89088229 364.89660732 142.64050481 C364.89755772 149.75317135 364.90166756 156.86582901 364.90800858 163.97849274 C364.925622 184.14592712 364.93484733 204.31334023 364.93334763 224.48078236 C364.93326772 225.56800309 364.9331878 226.65522381 364.93310547 227.77539062 C364.93302371 228.86393952 364.93294195 229.95248841 364.93285771 231.07402363 C364.93204487 248.71407393 364.95118172 266.35403883 364.9793822 283.99406442 C365.00811234 302.10840753 365.02192241 320.222709 365.02019465 338.33707547 C365.01953077 348.50621474 365.02502198 358.67526449 365.04655075 368.84438324 C365.06476428 377.50303157 365.06910848 386.1615498 365.0555319 394.820209 C365.04900302 399.23666176 365.04888212 403.65286497 365.0662384 408.06929398 C365.08197785 412.11598866 365.07909678 416.16223608 365.06167014 420.20891991 C365.05860214 421.66920692 365.06222514 423.12952739 365.07339029 424.58977494 C365.15595759 436.15896049 363.59202671 445.15647062 355.48828125 453.74609375 C348.69685234 459.93139107 341.6027651 462.74688096 332.38655472 462.75726891 C331.68364091 462.76077498 330.98072711 462.76428105 330.25651288 462.76789337 C327.90133709 462.77719664 325.54640915 462.77228688 323.19122314 462.76742554 C321.48550234 462.77116234 319.77978325 462.77576398 318.07406688 462.78115618 C313.38665793 462.79339791 308.69932029 462.79312433 304.01189899 462.79076743 C298.95654002 462.79035956 293.90120401 462.80139559 288.84585571 462.81088257 C278.94120168 462.82750012 269.03657144 462.83299246 259.13190463 462.83410732 C251.08102328 462.83505747 243.0301498 462.83916607 234.97927094 462.84550858 C212.15563571 462.86312326 189.3320193 462.87234712 166.50837722 462.87084763 C164.66248245 462.87072776 164.66248245 462.87072776 162.77929688 462.87060547 C160.93114927 462.87048283 160.93114927 462.87048283 159.04566535 462.87035771 C139.07766982 462.8695448 119.10974971 462.88868299 99.141776 462.9168822 C78.6408474 462.9456057 58.1399556 462.95942278 37.63900638 462.95769465 C26.12847887 462.95703055 14.61803044 462.96253156 3.10752106 462.98405075 C-6.69297406 463.00225551 -16.49335427 463.00661566 -26.29385898 462.9930319 C-31.29357786 462.98649866 -36.29307624 462.98639802 -41.2927742 463.0037384 C-45.87237305 463.01945829 -50.45157637 463.0166165 -55.03116551 462.99917014 C-56.68525988 462.99609786 -58.33938369 462.99974123 -59.99344334 463.01089029 C-71.94697395 463.08610679 -81.6457232 461.95241872 -90.68359375 453.42578125 C-96.60262431 446.92671206 -99.68347209 439.92705472 -99.69476891 431.07368851 C-99.7012178 429.79298642 -99.70766669 428.51228434 -99.714311 427.1927731 C-99.71136897 425.77884459 -99.70823356 424.36491647 -99.70492554 422.95098877 C-99.70866309 421.44325812 -99.71326503 419.9355294 -99.71865618 418.42780375 C-99.73088872 414.28766772 -99.73062541 410.14761248 -99.72826743 406.0074625 C-99.72785933 401.54106463 -99.73889783 397.07469268 -99.74838257 392.60830688 C-99.76499514 383.85869882 -99.77049224 375.10911771 -99.77160732 366.35949519 C-99.77255772 359.24682865 -99.77666756 352.13417099 -99.78300858 345.02150726 C-99.800622 324.85407288 -99.80984733 304.68665977 -99.80834763 284.51921764 C-99.80826772 283.43199691 -99.8081878 282.34477619 -99.80810547 281.22460938 C-99.80802371 280.13606048 -99.80794195 279.04751159 -99.80785771 277.92597637 C-99.80704487 260.28592607 -99.82618172 242.64596117 -99.8543822 225.00593558 C-99.88311234 206.89159247 -99.89692241 188.777291 -99.89519465 170.66292453 C-99.89453077 160.49378526 -99.90002198 150.32473551 -99.92155075 140.15561676 C-99.93976428 131.49696843 -99.94410848 122.8384502 -99.9305319 114.179791 C-99.92400302 109.76333824 -99.92388212 105.34713503 -99.9412384 100.93070602 C-99.95697785 96.88401134 -99.95409678 92.83776392 -99.93667014 88.79108009 C-99.93360214 87.33079308 -99.93722514 85.87047261 -99.94839029 84.41022506 C-100.03095759 72.84103951 -98.46702671 63.84352938 -90.36328125 55.25390625 C-82.88028785 48.43876622 -75.27881285 46.17964661 -65.3203125 46.3046875 C-64.0345784 46.30893234 -64.0345784 46.30893234 -62.72286987 46.31326294 C-60.00260068 46.32440001 -57.28266859 46.3494924 -54.5625 46.375 C-52.71094228 46.38503818 -50.85937936 46.39416256 -49.0078125 46.40234375 C-44.4842464 46.42431812 -39.96093023 46.458803 -35.4375 46.5 C-35.45844727 45.6028125 -35.47939453 44.705625 -35.50097656 43.78125 C-35.56957616 40.41900141 -35.61950294 37.05750765 -35.65722656 33.69482422 C-35.67721295 32.24581083 -35.70441197 30.79687675 -35.73925781 29.34814453 C-35.95970504 19.94023473 -36.01603743 12.7248121 -29.47265625 5.2578125 C-28.82167969 4.71898437 -28.17070313 4.18015625 -27.5 3.625 C-26.85160156 3.07070313 -26.20320313 2.51640625 -25.53515625 1.9453125 C-18.47077988 -2.92213491 -7.84396301 -3.47595223 0 0 Z M-83.4375 142.5 C-83.540625 190.35 -83.64375 238.2 -83.75 287.5 C-83.79552002 302.61941406 -83.84104004 317.73882812 -83.88793945 333.31640625 C-83.90465965 346.84679891 -83.90465965 346.84679891 -83.91471863 360.37719727 C-83.91938465 366.41277786 -83.93773928 372.44812751 -83.96537781 378.48364258 C-83.99720606 385.44437095 -84.01167946 392.40487752 -84.00472475 399.3656792 C-84.00171265 402.92648761 -84.00648629 406.48680031 -84.03357565 410.04751778 C-84.06241927 413.86202535 -84.05246642 417.67587378 -84.03877258 421.49047852 C-84.05333591 422.59912262 -84.06789923 423.70776672 -84.08290386 424.8500061 C-84.0170029 431.66837042 -82.91616653 436.24719897 -78.4375 441.5 C-73.6947585 445.80155624 -71.20497917 446.62499939 -64.857481 446.63701439 C-64.170402 446.63966622 -63.48332299 446.64231804 -62.77542341 446.64505023 C-60.45011209 446.6527705 -58.12485333 446.65330344 -55.79953003 446.65390015 C-54.12471067 446.65791299 -52.44989228 446.66235091 -50.77507508 446.6671797 C-46.15459885 446.67917115 -41.53413307 446.6847996 -36.91364431 446.68936086 C-31.93733119 446.69530728 -26.96103062 446.70691956 -21.98472595 446.71765137 C-9.95724114 446.74219819 2.07024784 446.75680626 14.09775001 446.76971143 C17.49347273 446.77342183 20.88919504 446.77739519 24.28491735 446.7814641 C45.36023966 446.80670005 66.43556259 446.82875883 87.51089668 446.84119225 C92.39495979 446.84412207 97.27902288 446.84708372 102.16308594 446.85009766 C103.98401203 446.85121673 103.98401203 446.85121673 105.8417245 446.85235842 C125.51064377 446.86501424 145.17947268 446.8982389 164.84834971 446.93989949 C185.03047374 446.9822976 205.2125515 447.00588487 225.39471996 447.01111281 C236.73089144 447.01452944 248.06692176 447.02631419 259.40304947 447.05921555 C269.05695068 447.08718808 278.71068181 447.09822769 288.3646204 447.08702008 C293.29120958 447.0818262 298.2174424 447.0847676 303.14398003 447.10948563 C307.65461727 447.1319282 312.16464115 447.1312772 316.67528878 447.11228175 C318.3065937 447.10947472 319.93793976 447.11511934 321.56917836 447.13009469 C333.51921232 447.34778682 333.51921232 447.34778682 343.5625 441.5 C347.45886489 437.30391474 348.68798435 434.25111136 348.68554783 428.58620167 C348.6875387 427.56624041 348.68952957 426.54627914 348.69158077 425.49540997 C348.68866811 424.37220254 348.68575544 423.24899511 348.68275452 422.0917511 C348.68361053 420.90375412 348.68446655 419.71575714 348.68534851 418.49176025 C348.68671883 415.18203217 348.68357067 411.87236278 348.67857273 408.56264175 C348.67421585 404.94332525 348.67566669 401.3240103 348.67639065 397.70469189 C348.67692301 390.67429096 348.67229885 383.64390276 348.66588932 376.61350511 C348.65869911 368.483994 348.65789511 360.35449058 348.65710449 352.22497559 C348.6518507 330.75414837 348.63788964 309.28332399 348.625 287.8125 C348.604375 239.859375 348.58375 191.90625 348.5625 142.5 C206.0025 142.5 63.4425 142.5 -83.4375 142.5 Z " fill="#000000" transform="translate(123.4375,25.5)"/>
<path d="M0 0 C2.9432763 2.09127527 3.84014885 3.28066982 4.625 6.8125 C3.39787773 13.07082358 -1.31832079 16.57970944 -6.25 20.25 C-26.47633604 35.59762182 -37.72732316 60.50154194 -42 85 C-44.17651437 118.90127767 -36.62692841 147.02999388 -14 173 C-13.45988281 173.62519531 -12.91976562 174.25039063 -12.36328125 174.89453125 C4.37697466 192.89979391 30.51239474 204.3339441 54.8515625 205.2734375 C73.90538857 205.67535745 91.78424969 203.73295657 109 195 C109.62213379 194.68546875 110.24426758 194.3709375 110.88525391 194.046875 C119.99044417 189.37553546 127.74743892 184.32436861 135 177 C135.9075 176.13375 136.815 175.2675 137.75 174.375 C139.60113431 172.42102489 141.33336305 170.43451795 143.0625 168.375 C147.5067395 163.20885358 147.5067395 163.20885358 150 162 C153.80680688 162.06797869 156.22988777 162.53793266 159.5 164.5 C161.79981647 168.33302745 160.80664981 171.72365101 160 176 C159.1644521 178.97842016 158.09688389 181.82121895 156.9375 184.6875 C156.47331665 185.85261108 156.47331665 185.85261108 155.99975586 187.04125977 C142.70957905 219.44748984 115.85390932 247.18192403 83.61181641 261.02539062 C65.05866794 268.47161764 47.07146211 272.37649922 27.07666016 272.26074219 C24.86984014 272.24997482 22.66382762 272.26073511 20.45703125 272.2734375 C12.1407088 272.28227 4.15384332 271.76893789 -4 270 C-5.07894531 269.76651855 -5.07894531 269.76651855 -6.1796875 269.52832031 C-39.77431561 261.5953314 -69.67318085 239.37480497 -88.125 210.375 C-95.86581161 197.79943647 -102.37896023 184.34879309 -106 170 C-106.17370117 169.33226562 -106.34740234 168.66453125 -106.52636719 167.9765625 C-107.09449843 165.77939175 -107.64476328 163.5785744 -108.1875 161.375 C-108.35483643 160.70645996 -108.52217285 160.03791992 -108.69458008 159.34912109 C-116.6396264 125.56116236 -108.67798639 90.25370909 -91 61 C-88.51432824 57.16522758 -85.86388274 53.55883668 -83 50 C-82.26910156 49.06800781 -81.53820312 48.13601562 -80.78515625 47.17578125 C-63.82302721 25.92237853 -41.55320943 11.06438234 -16 2 C-15.02933594 1.649375 -14.05867188 1.29875 -13.05859375 0.9375 C-8.43244852 -0.60684654 -4.76946537 -1.70338049 0 0 Z " fill="#040301" transform="translate(231,184)"/>
<path d="M0 0 C1.69786944 0.03013394 3.39579032 0.05750371 5.09375 0.08203125 C9.23044796 0.14776596 13.36465236 0.25109207 17.5 0.375 C17.51401855 1.62204712 17.51401855 1.62204712 17.52832031 2.89428711 C17.57270059 6.02026843 17.63447604 9.14531896 17.70751953 12.27075195 C17.74915877 14.27206771 17.7712655 16.2737594 17.79296875 18.27539062 C18.01222135 26.97971866 18.74648091 33.90510351 24.46484375 40.71484375 C31.49000874 46.40453183 36.40106191 48.18983028 45.5 47.375 C52.5371581 46.30665256 56.28387744 43.13426914 60.87109375 37.82421875 C68.08371359 26.97934431 65.08377847 12.44542446 65.5 0.375 C144.7 0.375 223.9 0.375 305.5 0.375 C305.83 9.615 306.16 18.855 306.5 28.375 C309.50051546 36.37637456 311.82349137 41.53663139 319.25 45.8125 C325.23141528 48.4607602 331.52468529 48.24069643 337.6875 46.25 C344.46955897 43.29055609 348.79365376 38.99319547 351.67480469 32.20605469 C353.37215051 26.38285287 353.18468677 20.33616095 353.25 14.3125 C353.27821611 12.95634307 353.30815124 11.60022077 353.33984375 10.24414062 C353.410088 6.95436826 353.46301258 3.66528612 353.5 0.375 C358.21391399 0.300443 362.92747929 0.24620727 367.6418457 0.21020508 C369.24314356 0.19518534 370.84440075 0.17476337 372.44555664 0.14868164 C374.75677571 0.11199562 377.06744756 0.09520565 379.37890625 0.08203125 C380.08648575 0.06654739 380.79406525 0.05106354 381.52308655 0.03511047 C387.31006123 0.03318261 392.00493076 1.23281904 396.4609375 5.05859375 C396.92757813 5.63738281 397.39421875 6.21617188 397.875 6.8125 C398.59816406 7.67681641 398.59816406 7.67681641 399.3359375 8.55859375 C409.38238421 24.23509616 401.5 45.75555266 401.5 64.375 C258.94 64.375 116.38 64.375 -30.5 64.375 C-30.5 11.43528834 -30.5 11.43528834 -25.00976562 4.48974609 C-18.095006 -1.83334256 -8.73527251 -0.26958624 0 0 Z " fill="#02796C" transform="translate(70.5,87.625)"/>
<path d="M0 0 C0.66 0.33 1.32 0.66 2 1 C1.50371094 1.825 1.00742188 2.65 0.49609375 3.5 C-15.87777167 31.1387602 -24.49301395 62.84830912 -16.58642578 94.82958984 C-7.16761162 129.68939745 13.64465443 157.78807971 44.91455078 176.12255859 C71.49037031 191.16740636 102.81693336 195.02509352 132.32958984 187.39794922 C142.35331431 184.56584929 151.55885983 180.51487358 160.7421875 175.63671875 C163.26342223 174.37005526 165.25249755 173.4763258 168 173 C164.38594035 178.97105508 159.75320366 183.91499804 155 189 C154.3090625 189.75667969 153.618125 190.51335937 152.90625 191.29296875 C138.01668756 206.98812318 118.59839758 216.26047651 98 222 C97.04843018 222.27142822 96.09686035 222.54285645 95.11645508 222.82250977 C87.08866643 224.91335656 79.37487086 225.43750586 71.11645508 225.33618164 C69.06746867 225.31255729 67.01979208 225.31565487 64.97070312 225.32226562 C53.1106271 225.29880074 41.37903166 224.33200674 30.125 220.375 C29.37452393 220.11630127 28.62404785 219.85760254 27.85083008 219.59106445 C9.34074805 212.98407184 -5.89897481 202.57953757 -20 189 C-20.96679688 188.12794922 -20.96679688 188.12794922 -21.953125 187.23828125 C-42.75693293 167.94129119 -53.96671161 136.28164359 -55.296875 108.61328125 C-56.37255562 74.6149978 -44.8777927 43.97881448 -22 19 C-21.26007813 18.18917969 -20.52015625 17.37835938 -19.7578125 16.54296875 C-13.76167411 10.2722819 -6.95302896 5.14760567 0 0 Z " fill="#F8B327" transform="translate(191,215)"/>
<path d="M0 0 C2.34106623 1.46970163 4.2834316 2.86554086 6.375 4.625 C6.94299316 5.0785083 7.51098633 5.5320166 8.09619141 5.99926758 C10.56065557 7.96908609 12.97923248 9.98220415 15.375 12.03515625 C16.035 12.58042969 16.695 13.12570312 17.375 13.6875 C17.91898437 14.16574219 18.46296875 14.64398438 19.0234375 15.13671875 C24.67823724 17.60650282 32.41564038 13.67749519 37.95117188 11.72851562 C42.82089293 10.10842414 46.86057794 9.65370739 52 10 C54.5 11.5 54.5 11.5 56 14 C56.81483559 22.08497977 53.81962064 28.17837157 50.66796875 35.48632812 C50.11689453 36.82920898 50.11689453 36.82920898 49.5546875 38.19921875 C49.03624268 39.40324341 49.03624268 39.40324341 48.50732422 40.6315918 C47.70279963 44.38745945 49.21385715 46.76249394 51.20507812 49.89697266 C51.64271484 50.4801123 52.08035156 51.06325195 52.53125 51.6640625 C53.01207031 52.31117188 53.49289062 52.95828125 53.98828125 53.625 C54.73658203 54.615 54.73658203 54.615 55.5 55.625 C56.49004478 56.95017621 57.4796451 58.27568462 58.46875 59.6015625 C58.90638672 60.18244629 59.34402344 60.76333008 59.79492188 61.36181641 C62.88375325 65.56077478 63.63263866 67.75813684 63 73 C60.79836229 76.69006883 60.79836229 76.69006883 58 78 C54.63617611 78.07034776 51.40420122 77.7164905 48.05786133 77.37280273 C36.55836371 76.06585258 36.55836371 76.06585258 26.11035156 80.02294922 C21.24446679 85.06214207 17.57158826 90.82003889 14.2355957 96.95874023 C13 99 13 99 11 100 C4.74200797 100.57944371 4.74200797 100.57944371 1.87158203 98.33789062 C-0.3056224 95.61823114 -0.86236623 93.6772054 -1.5703125 90.28125 C-1.828125 89.18425781 -2.0859375 88.08726562 -2.3515625 86.95703125 C-2.8660945 84.65722912 -3.35842166 82.35234351 -3.828125 80.04296875 C-5.16024689 73.92262155 -5.16024689 73.92262155 -9.17504883 69.43359375 C-11.76291407 68.38680562 -14.28953793 67.66044791 -17 67 C-18.46291782 66.49593764 -19.92053176 65.97608829 -21.37109375 65.4375 C-23.42295657 64.70986133 -25.47502947 63.98729235 -27.53710938 63.2890625 C-31.4743783 61.87392816 -33.99885452 60.7621535 -36 57 C-36.75 53.6875 -36.75 53.6875 -36 50 C-32.43734961 46.03526571 -27.97036384 43.36739149 -23.09765625 41.3203125 C-18.61836364 39.23478378 -14.67629938 37.29947013 -12 33 C-10.67247548 27.00260199 -10.7798006 21.00129171 -11.03125 14.88989258 C-11.40932853 5.64873286 -11.40932853 5.64873286 -8.8828125 1.64453125 C-5.42198309 -0.32973593 -3.91703316 -0.76357355 0 0 Z " fill="#030301" transform="translate(263,248)"/>
<path d="M0 0 C4.05849678 0.84552016 5.40187475 2.43410449 8 5.625 C8.62145996 8.81213379 8.62145996 8.81213379 8.61523438 12.44726562 C8.62078339 13.11296066 8.6263324 13.7786557 8.63204956 14.46452332 C8.64381299 16.65417606 8.61960909 18.8417436 8.59375 21.03125 C8.59203789 22.55912176 8.5921056 24.08699646 8.59387207 25.61486816 C8.59222073 28.8127056 8.57355839 32.00984039 8.54199219 35.20751953 C8.50231448 39.29991941 8.49794795 43.39139964 8.50545502 47.48395538 C8.50852928 50.63763811 8.49638812 53.79111533 8.47932434 56.94474792 C8.47230909 58.45337128 8.46916802 59.96201792 8.47001648 61.47065735 C8.46821217 63.58177525 8.44677892 65.69180541 8.41992188 67.80273438 C8.41150269 69.00232788 8.4030835 70.20192139 8.39440918 71.43786621 C7.96267056 74.926651 7.09354151 76.82780348 5 79.625 C2.19084526 81.02957737 0.11189466 80.87395157 -3 80.625 C-6.1359157 78.84515595 -6.84102736 78.10191793 -8 74.625 C-8.11471388 72.42864887 -8.16938102 70.22900451 -8.19287109 68.02978516 C-8.20104858 67.36438217 -8.20922607 66.69897919 -8.21765137 66.01341248 C-8.24244353 63.81363821 -8.25900377 61.61392812 -8.2734375 59.4140625 C-8.27876118 58.66180767 -8.28408485 57.90955284 -8.28956985 57.13450241 C-8.31627229 53.15413177 -8.33565797 49.17379221 -8.35009766 45.19335938 C-8.3634468 41.90108517 -8.3913201 38.60942934 -8.43212891 35.31738281 C-8.48143965 31.33920858 -8.50621609 27.36159592 -8.51332474 23.38312912 C-8.5200366 21.86884808 -8.53525729 20.35457955 -8.55921555 18.84047318 C-8.59086941 16.71931974 -8.59090568 14.60033191 -8.58349609 12.47900391 C-8.59158295 11.27337799 -8.5996698 10.06775208 -8.60800171 8.82559204 C-7.65856353 3.8276385 -4.98208815 1.03793503 0 0 Z " fill="#FCF39D" transform="translate(400,39.375)"/>
<path d="M0 0 C4.05849678 0.84552016 5.40187475 2.43410449 8 5.625 C8.62145996 8.81213379 8.62145996 8.81213379 8.61523438 12.44726562 C8.62078339 13.11296066 8.6263324 13.7786557 8.63204956 14.46452332 C8.64381299 16.65417606 8.61960909 18.8417436 8.59375 21.03125 C8.59203789 22.55912176 8.5921056 24.08699646 8.59387207 25.61486816 C8.59222073 28.8127056 8.57355839 32.00984039 8.54199219 35.20751953 C8.50231448 39.29991941 8.49794795 43.39139964 8.50545502 47.48395538 C8.50852928 50.63763811 8.49638812 53.79111533 8.47932434 56.94474792 C8.47230909 58.45337128 8.46916802 59.96201792 8.47001648 61.47065735 C8.46821217 63.58177525 8.44677892 65.69180541 8.41992188 67.80273438 C8.41150269 69.00232788 8.4030835 70.20192139 8.39440918 71.43786621 C7.96267056 74.926651 7.09354151 76.82780348 5 79.625 C2.19084526 81.02957737 0.11189466 80.87395157 -3 80.625 C-6.1359157 78.84515595 -6.84102736 78.10191793 -8 74.625 C-8.11471388 72.42864887 -8.16938102 70.22900451 -8.19287109 68.02978516 C-8.20104858 67.36438217 -8.20922607 66.69897919 -8.21765137 66.01341248 C-8.24244353 63.81363821 -8.25900377 61.61392812 -8.2734375 59.4140625 C-8.27876118 58.66180767 -8.28408485 57.90955284 -8.28956985 57.13450241 C-8.31627229 53.15413177 -8.33565797 49.17379221 -8.35009766 45.19335938 C-8.3634468 41.90108517 -8.3913201 38.60942934 -8.43212891 35.31738281 C-8.48143965 31.33920858 -8.50621609 27.36159592 -8.51332474 23.38312912 C-8.5200366 21.86884808 -8.53525729 20.35457955 -8.55921555 18.84047318 C-8.59086941 16.71931974 -8.59090568 14.60033191 -8.58349609 12.47900391 C-8.59158295 11.27337799 -8.5996698 10.06775208 -8.60800171 8.82559204 C-7.65856353 3.8276385 -4.98208815 1.03793503 0 0 Z " fill="#FCF39D" transform="translate(112,39.375)"/>
<path d="M0 0 C2.97508453 1.7312352 5.70613738 3.5198628 8.375 5.6875 C11.9836298 8.28633969 14.52602962 8.56941441 19 8 C21.0078864 7.35747635 23.00882592 6.69258229 25 6 C27.875 5.875 27.875 5.875 30 6 C29.7834375 6.53367187 29.566875 7.06734375 29.34375 7.6171875 C27.19740252 13.36065436 25.64504494 18.89342171 27 25 C29.01445253 28.61799684 31.43525894 31.76136015 34 35 C34 35.33 34 35.66 34 36 C32.2984375 35.95166016 32.2984375 35.95166016 30.5625 35.90234375 C21.91568023 35.69733099 21.91568023 35.69733099 14.1953125 38.96484375 C12.25567694 41.22287231 10.61874931 43.50625107 9 46 C8.02725786 47.02653433 7.03654753 48.03793492 6 49 C4.46922572 45.033903 3.0852085 41.42604251 2.25 37.25 C0.85897744 33.63334134 -0.46231782 32.53321153 -3.9140625 30.84375 C-7.55158979 29.37239065 -11.24188194 28.12487887 -15 27 C-12.08836898 23.84495288 -8.6916765 21.83477617 -5.05859375 19.59765625 C-2.72035596 17.78297076 -1.94109552 16.79432979 -1 14 C-0.71121265 11.59162245 -0.50954974 9.17189532 -0.375 6.75 C-0.30023438 5.48671875 -0.22546875 4.2234375 -0.1484375 2.921875 C-0.09945313 1.95765625 -0.05046875 0.9934375 0 0 Z " fill="#F5BB2B" transform="translate(268,273)"/>
</svg>
