<?xml version="1.0" encoding="UTF-8"?>
<svg version="1.1" xmlns="http://www.w3.org/2000/svg" width="512" height="512">
<path d="M0 0 C168.96 0 337.92 0 512 0 C512 168.96 512 337.92 512 512 C343.04 512 174.08 512 0 512 C0 343.04 0 174.08 0 0 Z " fill="#030300" transform="translate(0,0)"/>
<path d="M0 0 C157.41 0 314.82 0 477 0 C477 39.27 477 78.54 477 119 C319.59 119 162.18 119 0 119 C0 79.73 0 40.46 0 0 Z " fill="#01A8F2" transform="translate(18,291)"/>
<path d="M0 0 C157.74 0 315.48 0 478 0 C478 22.44 478 44.88 478 68 C320.26 68 162.52 68 0 68 C0 45.56 0 23.12 0 0 Z " fill="#FDDB00" transform="translate(18,427)"/>
<path d="M0 0 C27.99591283 23.75799942 48.63352699 57.9322048 52 95 C52 97.97 52 100.94 52 104 C-43.37 104 -138.74 104 -237 104 C-237 67.39873648 -218.74525565 33.16663475 -193.49658203 7.46923828 C-189.59202899 3.63602455 -185.37570835 0.27417398 -181 -3 C-179.59427734 -4.07121094 -179.59427734 -4.07121094 -178.16015625 -5.1640625 C-164.22885931 -15.31221445 -148.64146495 -23.43670448 -132 -28 C-130.96746094 -28.29261719 -129.93492187 -28.58523437 -128.87109375 -28.88671875 C-125.92623992 -29.67380485 -122.98041558 -30.36162451 -120 -31 C-119.06800781 -31.20625 -118.13601562 -31.4125 -117.17578125 -31.625 C-76.57681468 -39.26715841 -31.53268101 -26.19314703 0 0 Z " fill="#FEEA39" transform="translate(349,170)"/>
<path d="M0 0 C2.31023481 0.09039415 4.62080944 0.17250561 6.93164062 0.24609375 C12.56606497 0.4434778 18.18769486 0.74357747 23.8125 1.125 C24.0444232 12.60782796 24.22199326 24.09009704 24.33062172 35.57479191 C24.38276543 40.90804449 24.45345812 46.2396925 24.56689453 51.57202148 C24.67572939 56.72039422 24.7353774 61.86722624 24.76127243 67.01666069 C24.77971936 68.97883807 24.81574586 70.94093305 24.86980057 72.90245247 C25.27629657 88.26743778 25.27629657 88.26743778 21.69206238 92.81584167 C19.1221392 94.64468734 16.7052294 95.88737436 13.8125 97.125 C12.16362952 98.13648657 10.52719242 99.16883183 8.91015625 100.23046875 C7.23342515 101.2605103 5.55498535 102.28777466 3.875 103.3125 C2.02040799 104.45243329 0.16625006 105.59307306 -1.6875 106.734375 C-2.61046875 107.30220703 -3.5334375 107.87003906 -4.484375 108.45507812 C-8.54754522 110.96520134 -12.58879003 113.50931085 -16.625 116.0625 C-17.39618164 116.55024902 -18.16736328 117.03799805 -18.96191406 117.54052734 C-23.11969859 120.17367648 -27.27216785 122.81507934 -31.421875 125.4609375 C-42.11725643 132.28024401 -52.82996616 139.06909519 -63.60327148 145.76489258 C-68.1338312 148.58134766 -72.65044227 151.41129096 -77.1171875 154.328125 C-77.85533691 154.80540039 -78.59348633 155.28267578 -79.35400391 155.77441406 C-80.6989643 156.64625856 -82.03772392 157.52777984 -83.36865234 158.42089844 C-87.55165646 161.11581814 -87.55165646 161.11581814 -90.3515625 161.15625 C-92.91562005 159.71601342 -94.42705301 157.87918754 -96.3125 155.625 C-100.89988295 150.32775579 -105.89155656 145.70228723 -111.1875 141.125 C-109.78983767 137.33698331 -108.0383857 134.04743267 -105.9140625 130.6171875 C-105.26042725 129.55806152 -104.60679199 128.49893555 -103.93334961 127.40771484 C-103.2265484 126.27171739 -102.51959496 125.13581463 -101.8125 124 C-101.08252095 122.82127658 -100.35278708 121.64240129 -99.62329102 120.46337891 C-94.54104617 112.25945795 -89.40283475 104.09123661 -84.234375 95.94140625 C-80.75761986 90.45486676 -77.31554691 84.94679452 -73.875 79.4375 C-73.24456787 78.42800293 -72.61413574 77.41850586 -71.96459961 76.37841797 C-70.6798985 74.32087228 -69.39531255 72.26325468 -68.11083984 70.20556641 C-65.59356522 66.17370919 -63.07436812 62.14305539 -60.55493164 58.11254883 C-59.31045273 56.12161035 -58.0661492 54.13056225 -56.82202148 52.1394043 C-53.64975856 47.06254041 -50.47527162 41.98708894 -47.296875 36.9140625 C-46.65041016 35.88152344 -46.00394531 34.84898438 -45.33789062 33.78515625 C-44.13424714 31.8627904 -42.92990679 29.94086054 -41.72460938 28.01953125 C-41.16064453 27.11847656 -40.59667969 26.21742187 -40.015625 25.2890625 C-39.40372314 24.35852051 -38.79182129 23.42797852 -38.16137695 22.46923828 C-36.57538612 19.78217552 -35.37684718 17.28921697 -34.17260742 14.43310547 C-26.71821256 -1.95237013 -16.62017917 -1.13101155 0 0 Z " fill="#FEDB00" transform="translate(471.1875,16.875)"/>
<path d="M0 0 C43.71441821 -4.36398202 43.71441821 -4.36398202 52.69775391 2.24560547 C58.20134125 8.11390637 61.02912456 15.15933772 63.71679688 22.65380859 C65.54936922 27.43258268 68.19171208 31.4175318 71.0625 35.625 C72.03307943 37.14348453 72.99787111 38.66568298 73.95703125 40.19140625 C74.4463916 40.96371582 74.93575195 41.73602539 75.43994141 42.53173828 C83.78386369 55.73315523 92.0161638 69.00372507 100.1875 82.3125 C104.77081387 89.77691076 109.37652082 97.22457681 114.0625 104.625 C114.52438721 105.35831543 114.98627441 106.09163086 115.4621582 106.84716797 C118.31966276 111.37705951 121.22008099 115.87627995 124.14453125 120.36328125 C125.55491138 122.55454342 126.96507002 124.74594816 128.375 126.9375 C129.06086182 127.97535645 129.74672363 129.01321289 130.45336914 130.08251953 C131.0746167 131.05431152 131.69586426 132.02610352 132.3359375 133.02734375 C132.89845215 133.89093506 133.4609668 134.75452637 134.04052734 135.64428711 C135 138 135 138 134.29785156 140.18310547 C132.59223385 142.57084192 130.61061412 144.28757407 128.375 146.1875 C124.03508156 149.95126765 120.40545607 153.91140802 116.88671875 158.4453125 C115 160 115 160 112.68310547 159.78198242 C109.73787276 158.92360386 107.7232928 157.75723403 105.18359375 156.04296875 C104.26465332 155.43098633 103.34571289 154.81900391 102.39892578 154.18847656 C101.42165527 153.5281543 100.44438477 152.86783203 99.4375 152.1875 C91.93025678 147.19692319 84.3869801 142.33516496 76.625 137.75 C69.05204877 133.26566293 61.63690357 128.59042948 54.26953125 123.77734375 C49.74995533 120.82678862 45.19128238 117.9400878 40.625 115.0625 C39.83851074 114.5665332 39.05202148 114.07056641 38.24169922 113.55957031 C34.99694043 111.51463769 31.75085195 109.47183402 28.50341797 107.43115234 C26.83245847 106.38106738 25.16188505 105.3303678 23.49169922 104.27905273 C21.94343124 103.30449973 20.3943615 102.33121849 18.84423828 101.35961914 C17.41030709 100.45672015 15.98890186 99.53355148 14.5821991 98.58879089 C11.99209192 96.91283217 11.99209192 96.91283217 8.96110535 95.67047119 C0.90363548 91.63715347 0.90363548 91.63715347 -0.66969109 87.04558563 C-1.72584123 80.99574848 -1.37449281 74.86022179 -1.171875 68.75 C-1.14947238 66.76608425 -1.13240078 64.78210177 -1.12042236 62.7980957 C-1.07476406 57.59472943 -0.9570484 52.39543129 -0.82397461 47.19366455 C-0.70085679 41.8783675 -0.64633612 36.56240794 -0.5859375 31.24609375 C-0.45752713 20.82894886 -0.25293337 10.41481363 0 0 Z " fill="#FEDB00" transform="translate(18,18)"/>
<path d="M0 0 C1.58056351 -0.00691249 3.16111739 -0.01644119 4.74165106 -0.02836347 C9.0877658 -0.0534537 13.43309196 -0.04101221 17.77920985 -0.02244616 C22.46506948 -0.00889399 27.15079165 -0.02981317 31.83662415 -0.04632568 C41.01725536 -0.07303589 50.19759262 -0.06722929 59.37823546 -0.04984984 C66.83805294 -0.03631142 74.2977879 -0.03445666 81.75761414 -0.04099274 C82.81845643 -0.04191214 83.87929872 -0.04283153 84.97228774 -0.04377879 C87.12722244 -0.0456971 89.28215712 -0.04764238 91.43709177 -0.04961434 C111.65425377 -0.06673252 131.87125266 -0.04703769 152.08838791 -0.01481214 C169.44381329 0.01199524 186.79899791 0.00733935 204.15441895 -0.02032471 C224.29815274 -0.05241812 244.4417435 -0.06508448 264.58549929 -0.04665112 C266.73260273 -0.04473979 268.8797062 -0.04285356 271.02680969 -0.04099274 C272.08328543 -0.04006708 273.13976116 -0.03914143 274.22825131 -0.03818773 C281.68098556 -0.03300246 289.13362926 -0.04176165 296.58634949 -0.05587006 C305.6661157 -0.07268036 314.74557061 -0.06818186 323.82530105 -0.03618559 C328.45993937 -0.02039294 333.09405828 -0.01428195 337.72869301 -0.03408051 C341.96905534 -0.05192111 346.20841542 -0.04220038 350.44868642 -0.01021519 C351.98494482 -0.00349647 353.52128739 -0.00695993 355.05749196 -0.02146992 C366.46733342 -0.12099761 366.46733342 -0.12099761 369.9241209 2.02093649 C372.40798781 4.78335153 372.88986138 6.6937363 373.01721191 10.38690186 C371.66245204 14.45118148 370.46180938 15.47300535 366.89221191 17.76190186 C363.83398962 18.26329851 363.83398962 18.26329851 360.34072113 18.26526642 C359.69317952 18.27108018 359.0456379 18.27689394 358.37847382 18.28288388 C356.20538814 18.29749943 354.03342928 18.28359281 351.86035156 18.26983643 C350.28804493 18.27444476 348.7157426 18.28079723 347.14344931 18.2887454 C342.82028253 18.30547122 338.49746814 18.29717769 334.17429996 18.28480053 C329.51301079 18.27576563 324.85178303 18.289712 320.19050598 18.30072021 C311.05805376 18.31852672 301.92573288 18.31465597 292.79327548 18.30306965 C285.3725639 18.29404398 277.95188919 18.29280757 270.53117371 18.29716492 C269.47588214 18.29777785 268.42059057 18.29839078 267.33332047 18.29902229 C265.18965978 18.30030116 263.04599911 18.30159801 260.90233845 18.30291265 C240.7910817 18.31432469 220.67989784 18.30119495 200.56865305 18.27971119 C183.30423643 18.26183965 166.03992738 18.26494358 148.7755127 18.28338623 C128.73727665 18.30478192 108.69910451 18.313226 88.66085863 18.30093718 C86.52498914 18.29966295 84.38911963 18.29840547 82.25325012 18.29716492 C80.67682885 18.29623926 80.67682885 18.29623926 79.06856069 18.29529491 C71.65491905 18.2918381 64.24131787 18.29767748 56.8276825 18.30708313 C47.79555743 18.31829003 38.76357145 18.31529065 29.73146236 18.29396015 C25.12122368 18.28343209 20.51121707 18.27935773 15.90098 18.29255676 C11.68302439 18.30445025 7.46551662 18.29796873 3.24760181 18.27664655 C1.71941313 18.27216752 0.19118684 18.27447586 -1.33697778 18.28414971 C-3.41062606 18.29627268 -5.48273029 18.28388333 -7.5562973 18.26526642 C-8.7090759 18.26461701 -9.86185451 18.2639676 -11.04956579 18.26329851 C-14.79962572 17.64847482 -16.4521815 16.44040764 -19.10778809 13.76190186 C-20.52695152 9.50441154 -20.53096888 7.62228095 -18.54421234 3.58295822 C-14.0316778 -1.43562519 -6.21345477 -0.05868825 0 0 Z " fill="#000203" transform="translate(80.1077880859375,307.23809814453125)"/>
<path d="M0 0 C27.06 0 54.12 0 82 0 C82.639375 9.69375 83.27875 19.3875 83.9375 29.375 C84.13722412 32.39575684 84.33694824 35.41651367 84.54272461 38.52880859 C85.03660291 46.01868817 85.52200327 53.50909025 86 61 C86.09222336 62.43934906 86.09222336 62.43934906 86.18630981 63.90777588 C86.80200574 73.65390118 87.13764852 83.35569213 87.0625 93.125 C87.05798828 94.28386719 87.05347656 95.44273438 87.04882812 96.63671875 C87.0373082 99.42454018 87.02105561 102.21223726 87 105 C86.43603516 105.14099121 85.87207031 105.28198242 85.29101562 105.42724609 C84.11055664 105.72236084 84.11055664 105.72236084 82.90625 106.0234375 C79.32291667 106.91927083 75.73958333 107.81510417 72.15625 108.7109375 C71.29128906 108.92717773 70.42632812 109.14341797 69.53515625 109.36621094 C68.69855469 109.57536133 67.86195313 109.78451172 67 110 C66.19433594 110.20141602 65.38867188 110.40283203 64.55859375 110.61035156 C63.46224609 110.88443848 63.46224609 110.88443848 62.34375 111.1640625 C61.2403125 111.43992187 60.136875 111.71578125 59 112 C54.61653737 104.91076849 50.66860673 97.6689981 46.875 90.25 C42.65896899 82.06967745 38.37333248 73.93828612 33.9375 65.875 C29.34485328 57.52226519 24.90183798 49.10155551 20.51733398 40.63793945 C16.45464492 32.81758004 12.26201293 25.07316744 8.0078125 17.35546875 C0 2.79983166 0 2.79983166 0 0 Z " fill="#FDDA00" transform="translate(141,18)"/>
<path d="M0 0 C27.06 0 54.12 0 82 0 C80.56559271 4.30322187 79.22066662 7.76869061 77.1640625 11.71875 C76.60058105 12.80446289 76.03709961 13.89017578 75.45654297 15.00878906 C74.85213379 16.16088867 74.24772461 17.31298828 73.625 18.5 C72.99221062 19.71314332 72.35956273 20.92636045 71.72705078 22.13964844 C67.3812588 30.45588958 62.92351059 38.70835505 58.40087891 46.9296875 C54.84421834 53.40793283 51.40011275 59.93837891 48 66.5 C42.61793871 76.88246623 37.08682116 87.17920845 31.41113281 97.40429688 C30.39677338 99.27015665 29.41552678 101.15415901 28.45605469 103.04882812 C27.94204102 104.04849609 27.42802734 105.04816406 26.8984375 106.078125 C26.43872559 106.9949707 25.97901367 107.91181641 25.50537109 108.85644531 C24 111 24 111 22.05810547 111.86547852 C18.45670227 112.10087272 15.13997696 110.77524043 11.75 109.6875 C10.28696667 109.23143899 8.82342533 108.77700437 7.359375 108.32421875 C6.64330078 108.10169434 5.92722656 107.87916992 5.18945312 107.64990234 C1.81956119 106.64960659 -1.58291898 105.82334645 -5 105 C-5.68061274 80.59877277 -3.62553231 56.33078859 -2 32 C-1.34 21.44 -0.68 10.88 0 0 Z " fill="#FDDA00" transform="translate(290,18)"/>
<path d="M0 0 C0.66 0 1.32 0 2 0 C2 31.02 2 62.04 2 94 C-23.74 94 -49.48 94 -76 94 C-76.99 86.08 -77.98 78.16 -79 70 C-79.96288837 65.92353831 -80.87859775 62.17347489 -82.1875 58.25 C-82.72710146 56.54827815 -83.26244965 54.84520016 -83.79296875 53.140625 C-84.0252417 52.43454102 -84.25751465 51.72845703 -84.49682617 51.00097656 C-85 49 -85 49 -85 45 C-84.17612793 44.5781543 -83.35225586 44.15630859 -82.50341797 43.72167969 C-68.41139837 36.49831934 -54.33690694 29.26804891 -40.47729492 21.60522461 C-30.75291133 16.25849385 -20.87035064 11.21719743 -10.99023438 6.16601562 C-10.33477127 5.83014938 -9.67930817 5.49428314 -9.00398254 5.14823914 C-7.20689717 4.22773498 -5.40853965 3.30971567 -3.61010742 2.3918457 C-1.14062667 1.23770067 -1.14062667 1.23770067 0 0 Z " fill="#FEDB00" transform="translate(494,180)"/>
<path d="M0 0 C4.58840881 1.5294696 8.34972232 3.07680739 12.59375 5.2734375 C13.21336609 5.59302429 13.83298218 5.91261108 14.47137451 6.24188232 C16.48335439 7.28162358 18.49178003 8.3280175 20.5 9.375 C21.90587186 10.10410538 23.31179686 10.8331083 24.71777344 11.56201172 C33.47311352 16.11132544 42.16398013 20.7671558 50.80322266 25.53369141 C62.41356329 31.91883264 74.21663776 37.94214672 86 44 C85.38684832 49.23222767 84.18085327 53.94583421 82.625 59 C79.24134796 71.03046738 79.24134796 71.03046738 77 92 C51.59 92 26.18 92 0 92 C0 61.64 0 31.28 0 0 Z " fill="#FEDB00" transform="translate(18,181)"/>
<path d="M0 0 C1.396633 -0.01169993 1.396633 -0.01169993 2.82148081 -0.02363622 C5.94320238 -0.04358897 9.06370932 -0.02777838 12.18544006 -0.01205444 C14.42272657 -0.01882912 16.66000749 -0.02773141 18.89727783 -0.03860474 C24.97584189 -0.06142342 31.05398223 -0.05255048 37.13255382 -0.03670931 C43.49057211 -0.02406222 49.84855379 -0.03578726 56.20657349 -0.04364014 C67.56978937 -0.05332398 78.93278988 -0.03777092 90.2959627 -0.01234345 C100.59515496 0.0099899 110.8940654 0.00611964 121.19325256 -0.01693726 C133.15642778 -0.04370685 145.11943181 -0.05364821 157.08264738 -0.03887594 C163.41420576 -0.03107801 169.74557008 -0.03004934 176.07711601 -0.04655838 C182.0304847 -0.0609965 187.98332101 -0.05099261 193.93663216 -0.0220871 C196.12234742 -0.01547258 198.30810744 -0.01738012 200.49380493 -0.02840042 C203.47637495 -0.04205262 206.4572363 -0.024943 209.43969727 0 C210.30594583 -0.01115361 211.17219439 -0.02230722 212.06469291 -0.03379881 C216.24223368 0.03402763 218.9876645 0.36221992 222.33606815 2.98319435 C224.78334045 5.63491821 224.78334045 5.63491821 225.28334045 8.69741821 C224.80332431 11.51751306 224.43929715 13.31657885 222.78334045 15.63491821 C220.0168988 17.29104571 217.9524896 17.88615537 214.7443552 17.89777374 C213.54571287 17.90929718 213.54571287 17.90929718 212.32285553 17.92105341 C211.45078129 17.91932045 210.57870704 17.91758748 209.6802063 17.915802 C208.28379659 17.92471537 208.28379659 17.92471537 206.85917658 17.9338088 C203.73238054 17.95118496 200.60573762 17.95419939 197.47889709 17.95718384 C195.24013949 17.96643986 193.00138504 17.97648913 190.76263428 17.98727417 C184.67595389 18.01352504 178.58931762 18.026412 172.50258946 18.03529549 C168.70206243 18.04115501 164.90154749 18.04936413 161.10102654 18.05830383 C150.57780756 18.082518 140.05459573 18.1032846 129.53135014 18.11005402 C128.85813306 18.11049315 128.18491599 18.11093228 127.4912984 18.11138472 C126.47907074 18.11203955 126.47907074 18.11203955 125.44639403 18.11270761 C124.07897317 18.11359455 122.71155232 18.11448767 121.34413147 18.11538696 C120.32670156 18.11605125 120.32670156 18.11605125 119.2887175 18.11672896 C108.29266576 18.12462876 97.29687879 18.15955096 86.30092937 18.20610601 C75.01082034 18.25352077 63.72083966 18.27794093 52.43061537 18.28078985 C46.09172161 18.28288927 39.75320154 18.29477498 33.4144001 18.33042908 C27.45447878 18.36330053 21.49521391 18.3677462 15.53523445 18.35015106 C13.34584805 18.34860557 11.15642699 18.3573583 8.96712875 18.37706757 C5.98178268 18.40237108 2.99878582 18.39083345 0.01345825 18.36990356 C-1.29130704 18.39407278 -1.29130704 18.39407278 -2.62243122 18.41873026 C-8.32152284 18.32503935 -8.32152284 18.32503935 -10.87323487 16.3577528 C-13.06975938 13.84934779 -14.17436896 11.8421421 -14.84165955 8.57241821 C-13.1011853 0.39218925 -7.06355256 -0.090715 0 0 Z " fill="#000000" transform="translate(151.21665954589844,375.3650817871094)"/>
<path d="M0 0 C11.22 0 22.44 0 34 0 C39.98116163 10.64294938 45.78110276 21.34551793 51.39550781 32.18579102 C54.8488026 38.83684557 58.39094299 45.4322939 62 52 C66.61272743 60.39633551 71.07825797 68.85975503 75.48461914 77.3659668 C79.51632001 85.12707365 83.67661503 92.81276157 87.90429688 100.46875 C97 116.99029142 97 116.99029142 97 120 C89.08 124.455 89.08 124.455 81 129 C77.93898893 125.93898893 76.04884292 123.76636575 73.85546875 120.203125 C73.26894531 119.25695312 72.68242187 118.31078125 72.078125 117.3359375 C71.45421875 116.31757813 70.8303125 115.29921875 70.1875 114.25 C68.83738323 112.06761946 67.48711874 109.8853303 66.13671875 107.703125 C65.44884277 106.58744141 64.7609668 105.47175781 64.05224609 104.32226562 C60.88914556 99.2017003 57.69393513 94.10136565 54.5 89 C53.24855173 86.99748718 51.99725006 84.99488275 50.74609375 82.9921875 C48.26156813 79.01668778 45.77438801 75.04286705 43.28515625 71.0703125 C36.75014914 60.63608734 30.2540722 50.17970467 23.8125 39.6875 C18.999195 31.84890546 14.1620838 24.02714596 9.25 16.25 C8.77280518 15.49420654 8.29561035 14.73841309 7.80395508 13.9597168 C5.80627025 10.80739686 3.78889636 7.68294893 1.671875 4.609375 C0 2 0 2 0 0 Z " fill="#FC9600" transform="translate(87,18)"/>
<path d="M0 0 C11.22 0 22.44 0 34 0 C32.50391364 3.74021591 31.15892382 6.55953747 29.05078125 9.89453125 C28.4578125 10.83748047 27.86484375 11.78042969 27.25390625 12.75195312 C26.61324219 13.76193359 25.97257812 14.77191406 25.3125 15.8125 C23.9439033 17.98560963 22.57541674 20.15878862 21.20703125 22.33203125 C20.50658691 23.44143066 19.80614258 24.55083008 19.08447266 25.69384766 C15.87390856 30.78607756 12.68743617 35.89327462 9.5 41 C8.25013188 43.00008242 7.00013146 45.00008217 5.75 47 C5.13125 47.99 4.5125 48.98 3.875 50 C-3 61 -9.875 72 -16.75 83 C-17.36963623 83.99161133 -17.98927246 84.98322266 -18.62768555 86.00488281 C-19.86803049 87.98904655 -21.10906985 89.97277638 -22.35083008 91.95605469 C-25.62961006 97.19485768 -28.89321187 102.44239845 -32.13671875 107.703125 C-32.81476563 108.79882812 -33.4928125 109.89453125 -34.19140625 111.0234375 C-35.49143513 113.12485404 -36.78722981 115.22889783 -38.078125 117.3359375 C-38.66464844 118.28210938 -39.25117188 119.22828125 -39.85546875 120.203125 C-40.36746826 121.03489258 -40.87946777 121.86666016 -41.40698242 122.72363281 C-43.06759986 125.09659787 -44.89604962 127.01652762 -47 129 C-47.98742187 128.43410156 -48.97484375 127.86820312 -49.9921875 127.28515625 C-51.28644206 126.54424241 -52.58071379 125.80335855 -53.875 125.0625 C-54.52597656 124.68931641 -55.17695313 124.31613281 -55.84765625 123.93164062 C-59.38746834 121.89866922 -59.38746834 121.89866922 -63 120 C-61.32635281 114.09300993 -58.48305802 108.89780045 -55.625 103.5 C-55.09189209 102.48534668 -54.55878418 101.47069336 -54.00952148 100.42529297 C-49.94232974 92.71155044 -45.77238726 85.0562665 -41.57275391 77.4140625 C-37.78179349 70.49325567 -34.12187074 63.51057615 -30.5 56.5 C-24.99390914 45.84883316 -19.31450614 35.304107 -13.53662109 24.79833984 C-10.76278602 19.74691029 -8.00790848 14.68513621 -5.25 9.625 C-3.5175 6.44875 -1.785 3.2725 0 0 Z " fill="#FC9600" transform="translate(392,18)"/>
<path d="M0 0 C0.72353306 -0.00709439 1.44706613 -0.01418877 2.19252443 -0.02149814 C4.61192563 -0.0390713 7.02971875 -0.02097866 9.44909668 -0.00291443 C11.18554923 -0.00805355 12.92199656 -0.01533478 14.65843201 -0.02459717 C19.37132753 -0.04312039 24.08365773 -0.03016685 28.79652977 -0.01050687 C33.72829222 0.00587335 38.66001868 -0.00293239 43.59179688 -0.00802612 C51.87391189 -0.01254778 60.15580112 0.00332724 68.43786621 0.03126526 C78.01340078 0.06331747 87.5885281 0.06330165 97.16409159 0.04605049 C106.37506626 0.03018733 115.5858916 0.03691761 124.79685974 0.0539875 C128.71703566 0.06086053 132.63709199 0.05982296 136.55726624 0.05244255 C141.1735722 0.04478203 145.78941464 0.05689816 150.40564156 0.08429146 C152.09994188 0.09117883 153.79428547 0.09126947 155.48858452 0.08407593 C157.80141951 0.07538769 160.11282191 0.09132457 162.42553711 0.11352539 C164.36677082 0.11773577 164.36677082 0.11773577 166.34722137 0.12203121 C170.30249412 0.71688023 171.95274231 1.77438662 174.71276855 4.62818909 C175.77526855 8.06568909 175.77526855 8.06568909 175.71276855 11.62818909 C173.62651516 15.05560538 172.53833745 16.35299945 168.71276855 17.62818909 C166.37826928 17.73334322 164.04084312 17.77635806 161.70401001 17.78881836 C160.98626935 17.79390618 160.26852869 17.798994 159.52903831 17.80423599 C157.11779016 17.81996459 154.70657198 17.8284865 152.29528809 17.83692932 C150.56898813 17.84646722 148.8426901 17.85635836 147.11639404 17.86657715 C141.4428128 17.89796149 135.76921686 17.91822486 130.09558105 17.93678284 C128.64831517 17.94172882 128.64831517 17.94172882 127.17181158 17.94677472 C118.07548245 17.97754869 108.97915003 18.00425972 99.88278389 18.0211935 C88.24130241 18.04311877 76.60028104 18.08513446 64.95898354 18.15463108 C56.7763249 18.20182567 48.59379063 18.22612075 40.41100013 18.23339039 C35.5218464 18.23835238 30.63321133 18.2534856 25.74420547 18.29313469 C21.14593172 18.32993572 16.54847427 18.33843246 11.95008087 18.32512856 C10.26218529 18.32518261 8.57425412 18.33552164 6.88649368 18.35688019 C4.58183731 18.38448758 2.28017378 18.37509129 -0.02450562 18.35644531 C-1.95857427 18.36279322 -1.95857427 18.36279322 -3.93171501 18.36926937 C-8.63562179 17.33039126 -9.65608244 15.59784939 -12.28723145 11.62818909 C-12.91223145 8.56568909 -12.91223145 8.56568909 -12.28723145 5.62818909 C-8.50091244 0.82293202 -6.03595352 0.00273455 0 0 Z " fill="#000101" transform="translate(243.2872314453125,341.37181091308594)"/>
<path d="M0 0 C3.05153232 1.16617398 5.86937869 2.39924545 8.65234375 4.109375 C9.33482178 4.52695068 10.0172998 4.94452637 10.72045898 5.37475586 C11.45208252 5.82858643 12.18370605 6.28241699 12.9375 6.75 C13.71746338 7.23025635 14.49742676 7.7105127 15.30102539 8.20532227 C24.36394945 13.80686771 33.33618485 19.55183382 42.31445312 25.28759766 C46.43099206 27.91245258 50.55837666 30.52000075 54.6875 33.125 C55.45956787 33.61218506 56.23163574 34.09937012 57.02709961 34.60131836 C58.57577765 35.57839666 60.12452409 36.55536657 61.67333984 37.53222656 C64.02877889 39.01815516 66.38364014 40.50499482 68.73828125 41.9921875 C69.52517334 42.48904053 70.31206543 42.98589355 71.12280273 43.49780273 C72.69459687 44.49105007 74.26573504 45.4853363 75.83618164 46.48071289 C80.00248662 49.11921357 84.18207331 51.73301957 88.3828125 54.31640625 C89.26001953 54.85974609 90.13722656 55.40308594 91.04101562 55.96289062 C92.73073918 57.00890997 94.42460963 58.04826754 96.12304688 59.08007812 C96.87908203 59.54994141 97.63511719 60.01980469 98.4140625 60.50390625 C99.0838916 60.91455322 99.7537207 61.3252002 100.44384766 61.74829102 C102 63 102 63 103 66 C102.28735352 67.80932617 102.28735352 67.80932617 101.12890625 69.79296875 C100.71962891 70.50517578 100.31035156 71.21738281 99.88867188 71.95117188 C99.2322168 73.0581543 99.2322168 73.0581543 98.5625 74.1875 C98.12873047 74.93708984 97.69496094 75.68667969 97.24804688 76.45898438 C96.17442769 78.31127243 95.08837319 80.1563425 94 82 C88.92333405 80.49609739 84.51221764 78.30681394 79.875 75.8125 C79.0607959 75.3796167 78.2465918 74.9467334 77.40771484 74.50073242 C72.44636229 71.85868153 67.4977686 69.19283164 62.546875 66.53125 C60.23964713 65.29154793 57.93235381 64.05196767 55.625 62.8125 C55.04047058 62.49809967 54.45594116 62.18369934 53.85369873 61.85977173 C46.98958527 58.1694222 40.10734349 54.51906415 33.1796875 50.94921875 C32.53448151 50.61670609 31.88927551 50.28419342 31.22451782 49.94160461 C28.13392356 48.35075236 25.04054442 46.76573002 21.94384766 45.18676758 C19.70298749 44.03812234 17.4727683 42.86842806 15.25488281 41.67602539 C12.01046687 39.9409818 12.01046687 39.9409818 8.51855469 38.60327148 C5.02289796 37.04052244 2.63914787 35.78519446 0 33 C-1.47105727 27.28203105 -1.14285398 21.90774719 -0.75 16.0625 C-0.68974438 14.50476271 -0.63500216 12.9468018 -0.5859375 11.38867188 C-0.45425492 7.58689253 -0.24770457 3.7959137 0 0 Z " fill="#FC9600" transform="translate(18,128)"/>
<path d="M0 0 C0 10.89 0 21.78 0 33 C-9.91140714 38.70656775 -19.95270645 44.08797205 -30.125 49.3125 C-38.89068888 53.81494615 -47.61756401 58.3700609 -56.25 63.125 C-64.36931798 67.59192142 -72.53762301 71.95636781 -80.75 76.25 C-81.84086914 76.82379395 -82.93173828 77.39758789 -84.05566406 77.98876953 C-85.56725098 78.77550049 -85.56725098 78.77550049 -87.109375 79.578125 C-88.00624023 80.04637695 -88.90310547 80.51462891 -89.82714844 80.99707031 C-92 82 -92 82 -94 82 C-95.5333805 79.40251918 -97.05179668 76.79812104 -98.5625 74.1875 C-99.00013672 73.44951172 -99.43777344 72.71152344 -99.88867188 71.95117188 C-100.50258789 70.88286133 -100.50258789 70.88286133 -101.12890625 69.79296875 C-101.51119385 69.1383667 -101.89348145 68.48376465 -102.28735352 67.80932617 C-103 66 -103 66 -102 63 C-100.52319336 61.79589844 -100.52319336 61.79589844 -98.58984375 60.609375 C-97.85958984 60.15498047 -97.12933594 59.70058594 -96.37695312 59.23242188 C-95.57193359 58.74322266 -94.76691406 58.25402344 -93.9375 57.75 C-93.09767578 57.22986328 -92.25785156 56.70972656 -91.39257812 56.17382812 C-89.5643403 55.04168085 -87.73400182 53.91292053 -85.90185547 52.78710938 C-80.91807573 49.71784573 -75.96131345 46.6053941 -71 43.5 C-68.9544656 42.22259457 -66.90889301 40.9452503 -64.86328125 39.66796875 C-57.32364964 34.95554547 -49.80732587 30.20655343 -42.29443359 25.45166016 C-39.95349466 23.97057664 -37.61167713 22.49089283 -35.26953125 21.01171875 C-34.4815918 20.51406006 -33.69365234 20.01640137 -32.88183594 19.50366211 C-31.30859474 18.51046894 -29.73503299 17.51778332 -28.16113281 16.52563477 C-23.98254261 13.89030357 -19.8124117 11.24261578 -15.65234375 8.578125 C-14.77964844 8.02125 -13.90695312 7.464375 -13.0078125 6.890625 C-11.32448197 5.8161587 -9.64339844 4.73816203 -7.96484375 3.65625 C-7.21203125 3.17671875 -6.45921875 2.6971875 -5.68359375 2.203125 C-5.01900146 1.77676758 -4.35440918 1.35041016 -3.66967773 0.91113281 C-2 0 -2 0 0 0 Z " fill="#FD9600" transform="translate(495,128)"/>
<path d="M0 0 C10.89 0 21.78 0 33 0 C32.22724725 20.81551871 31.17365192 41.61047571 30.0770874 62.41088867 C29.84127465 66.89040297 29.60724709 71.37001054 29.37304688 75.84960938 C28.91706229 84.56649604 28.45901019 93.28327213 28 102 C20.41 102 12.82 102 5 102 C4.34642095 89.58686517 3.69416726 77.17366265 3.04424286 64.76033592 C2.74240054 58.99626728 2.43997877 53.23223026 2.13623047 47.46826172 C1.84308869 41.90515764 1.551472 36.34197551 1.26091003 30.77873611 C1.1498184 28.65685809 1.0381784 26.5350087 0.92597961 24.41318893 C0.76886026 21.44008415 0.61369539 18.46688329 0.45898438 15.49365234 C0.41223068 14.6175531 0.36547699 13.74145386 0.31730652 12.83880615 C0.27523575 12.02279938 0.23316498 11.2067926 0.18981934 10.36605835 C0.15294762 9.6636521 0.1160759 8.96124584 0.07808685 8.23755455 C-0.0176847 5.49325029 0 2.74597488 0 0 Z " fill="#FC9600" transform="translate(240,18)"/>
<path d="M0 0 C5.61 0 11.22 0 17 0 C17.22612225 11.4831836 17.40949124 22.96488397 17.51812172 34.44979191 C17.57026543 39.78304449 17.64095812 45.1146925 17.75439453 50.44702148 C17.86322939 55.59539422 17.9228774 60.74222624 17.94877243 65.89166069 C17.96721936 67.85383807 18.00324586 69.81593305 18.05730057 71.77745247 C18.46379657 87.14243778 18.46379657 87.14243778 14.87956238 91.69084167 C12.3096392 93.51968734 9.8927294 94.76237436 7 96 C5.35112952 97.01148657 3.71469242 98.04383183 2.09765625 99.10546875 C0.42092515 100.1355103 -1.25751465 101.16277466 -2.9375 102.1875 C-4.79209201 103.32743329 -6.64624994 104.46807306 -8.5 105.609375 C-9.42296875 106.17720703 -10.3459375 106.74503906 -11.296875 107.33007812 C-15.36004522 109.84020134 -19.40129003 112.38431085 -23.4375 114.9375 C-24.20868164 115.42524902 -24.97986328 115.91299805 -25.77441406 116.41552734 C-29.93219859 119.04867648 -34.08466785 121.69007934 -38.234375 124.3359375 C-48.92975643 131.15524401 -59.64246616 137.94409519 -70.41577148 144.63989258 C-74.9463312 147.45634766 -79.46294227 150.28629096 -83.9296875 153.203125 C-84.66783691 153.68040039 -85.40598633 154.15767578 -86.16650391 154.64941406 C-87.5114643 155.52125856 -88.85022392 156.40277984 -90.18115234 157.29589844 C-94.46424914 160.05530331 -94.46424914 160.05530331 -97.421875 159.75 C-98.20304687 159.37875 -98.20304687 159.37875 -99 159 C-99 157.68 -99 156.36 -99 155 C-97.17431641 153.34350586 -97.17431641 153.34350586 -94.6015625 151.71484375 C-93.18375488 150.80375854 -93.18375488 150.80375854 -91.73730469 149.87426758 C-90.71024414 149.23513428 -89.68318359 148.59600098 -88.625 147.9375 C-87.57731445 147.27065186 -86.52962891 146.60380371 -85.45019531 145.91674805 C-77.81838443 141.07804055 -70.11850384 136.34883933 -62.38671875 131.671875 C-55.32401492 127.38952595 -48.36493885 122.94107174 -41.39111328 118.51611328 C-38.26435503 116.53355572 -35.13496159 114.55524366 -32.00113201 112.58388138 C-30.43084397 111.58947166 -28.86581592 110.58665447 -27.30869007 109.57175827 C-23.29375137 106.97381751 -19.30643971 104.6072243 -14.98893738 102.54547119 C-6.04648867 98.22269401 -6.04648867 98.22269401 0.06795883 90.7610321 C1.72349136 84.42177637 1.33144123 77.97382365 1.07421875 71.484375 C1.06119678 69.41647845 1.05659937 67.34851335 1.06001282 65.28057861 C1.04656328 59.87167313 0.91976404 54.4713206 0.76818848 49.0647583 C0.63357372 43.53465771 0.60767554 38.0041242 0.57226562 32.47265625 C0.48710186 21.64461634 0.27198551 10.82495986 0 0 Z " fill="#FCBF07" transform="translate(478,18)"/>
<path d="M0 0 C37.30465803 11.62247346 66.47674417 37.72937647 84.8671875 71.84375 C94.33894439 89.985873 100 109.4868047 100 130 C4.63 130 -90.74 130 -189 130 C-189 129.67 -189 129.34 -189 129 C-99.24 129 -9.48 129 83 129 C78.78430045 104.54894259 74.66123776 84.17528932 63 63 C62.15308594 61.41832031 62.15308594 61.41832031 61.2890625 59.8046875 C52.23611689 43.52638624 39.7392884 29.31766788 25 18 C24.0409375 17.24847656 23.081875 16.49695313 22.09375 15.72265625 C15.77204124 10.85660411 9.2772076 6.58651717 2.421875 2.53125 C1.22304688 1.77328125 1.22304688 1.77328125 0 1 C0 0.67 0 0.34 0 0 Z " fill="#ECCB31" transform="translate(301,144)"/>
<path d="M0 0 C5.61 0 11.22 0 17 0 C17 39.27 17 78.54 17 119 C11.39 119 5.78 119 0 119 C0 79.73 0 40.46 0 0 Z " fill="#0377BC" transform="translate(478,291)"/>
<path d="M0 0 C1.58112831 -0.01292336 1.58112831 -0.01292336 3.19419861 -0.02610779 C6.68261189 -0.04883113 10.17022587 -0.04201605 13.65869141 -0.03295898 C16.08241007 -0.03819229 18.50612669 -0.04446769 20.92984009 -0.05174255 C26.01240615 -0.06215901 31.09469247 -0.05756801 36.17724609 -0.04296875 C42.6898942 -0.02579303 49.20165909 -0.04925591 55.7142086 -0.08445835 C60.72083379 -0.10642387 65.72724747 -0.10499257 70.73390579 -0.09669304 C73.13487338 -0.0958728 75.53585638 -0.1027499 77.93677902 -0.11746407 C81.29564326 -0.13489007 84.65291835 -0.12038078 88.01171875 -0.09765625 C89.00309341 -0.10934845 89.99446808 -0.12104065 91.0158844 -0.13308716 C95.48020015 -0.07165756 98.66869747 0.066065 102.26016235 2.88539124 C104.63525391 5.53344727 104.63525391 5.53344727 105.26025391 8.53344727 C104.50497813 12.158771 103.19685055 13.89650954 100.63525391 16.53344727 C98.3036785 17.69923497 96.92612353 17.66897912 94.32829285 17.68734741 C93.42404068 17.69594788 92.51978851 17.70454834 91.58813477 17.71340942 C90.09588379 17.71979935 90.09588379 17.71979935 88.57348633 17.72631836 C87.52784012 17.73449585 86.48219391 17.74267334 85.40486145 17.75109863 C81.93348774 17.77597654 78.46215496 17.79247399 74.99072266 17.80688477 C73.80728083 17.81220844 72.623839 17.81753212 71.40453529 17.82301712 C65.14184847 17.84975791 58.87918166 17.86913069 52.61645508 17.88354492 C46.13961698 17.90020351 39.66328665 17.94498948 33.18664074 17.99591637 C28.21356097 18.02952911 23.24060266 18.04111581 18.26741982 18.046772 C15.87955147 18.05349995 13.49169154 18.06876175 11.10393333 18.09266281 C7.76393291 18.12419047 4.4253145 18.12436927 1.08520508 18.11694336 C-0.39793686 18.14155136 -0.39793686 18.14155136 -1.91104126 18.16665649 C-6.59488489 18.1239678 -8.67157697 18.06890765 -12.4785614 15.12808228 C-15.38242235 11.13353216 -15.05654102 9.37601176 -14.36474609 4.53344727 C-10.95395256 -0.90655872 -5.76937569 -0.03782336 0 0 Z " fill="#000101" transform="translate(109.36474609375,341.466552734375)"/>
<path d="M0 0 C157.74 0 315.48 0 478 0 C478 22.44 478 44.88 478 68 C472.06 68 466.12 68 460 68 C460 45.89 460 23.78 460 1 C308.2 1 156.4 1 0 1 C0 0.67 0 0.34 0 0 Z " fill="#EAB705" transform="translate(18,427)"/>
<path d="M0 0 C0 31.02 0 62.04 0 94 C-25.74 94 -51.48 94 -78 94 C-78 93.67 -78 93.34 -78 93 C-58.2 93 -38.4 93 -18 93 C-18.33 65.28 -18.66 37.56 -19 9 C-2 0 -2 0 0 0 Z " fill="#F1B707" transform="translate(496,180)"/>
<path d="M0 0 C0 10.89 0 21.78 0 33 C-9.91140714 38.70656775 -19.95270645 44.08797205 -30.125 49.3125 C-38.89068888 53.81494615 -47.61756401 58.3700609 -56.25 63.125 C-64.36931798 67.59192142 -72.53762301 71.95636781 -80.75 76.25 C-81.84086914 76.82379395 -82.93173828 77.39758789 -84.05566406 77.98876953 C-85.56725098 78.77550049 -85.56725098 78.77550049 -87.109375 79.578125 C-88.00624023 80.04637695 -88.90310547 80.51462891 -89.82714844 80.99707031 C-92 82 -92 82 -94 82 C-94.33 80.68 -94.66 79.36 -95 78 C-93.8550708 77.4126709 -93.8550708 77.4126709 -92.68701172 76.81347656 C-73.62202301 67.02687492 -73.62202301 67.02687492 -54.75 56.875 C-46.63061631 52.40819324 -38.46238042 48.04363398 -30.25 43.75 C-29.15913086 43.17620605 -28.06826172 42.60241211 -26.94433594 42.01123047 C-25.93661133 41.48674316 -24.92888672 40.96225586 -23.890625 40.421875 C-22.99375977 39.95362305 -22.09689453 39.48537109 -21.17285156 39.00292969 C-19 38 -19 38 -17 38 C-17.33 28.76 -17.66 19.52 -18 10 C-15.40125 8.35 -12.8025 6.7 -10.125 5 C-9.30789551 4.47792969 -8.49079102 3.95585937 -7.64892578 3.41796875 C-7.0042334 3.01191406 -6.35954102 2.60585937 -5.6953125 2.1875 C-4.7055542 1.55908203 -4.7055542 1.55908203 -3.69580078 0.91796875 C-2 0 -2 0 0 0 Z " fill="#F07A00" transform="translate(495,128)"/>
<path d="M0 0 C0.82638977 -0.00807175 1.65277954 -0.01614349 2.50421143 -0.02445984 C4.25604148 -0.03830246 6.00789852 -0.04902382 7.75976562 -0.05688477 C10.42891196 -0.07406292 13.09680831 -0.11794164 15.765625 -0.16210938 C17.4687409 -0.17223957 19.17186733 -0.18075465 20.875 -0.1875 C21.66896179 -0.20500809 22.46292358 -0.22251617 23.28094482 -0.24055481 C28.5189 -0.22022798 31.60578434 0.67279928 35.703125 4.23828125 C36.94653206 8.26106878 37.14737545 10.26516123 35.390625 14.11328125 C33.703125 16.23828125 33.703125 16.23828125 31.703125 17.23828125 C30.36656573 17.34707253 29.02493957 17.39719202 27.68408203 17.4152832 C26.4423674 17.43453606 26.4423674 17.43453606 25.17556763 17.45417786 C24.27973969 17.46156479 23.38391174 17.46895172 22.4609375 17.4765625 C21.5410202 17.48463425 20.62110291 17.49270599 19.67330933 17.50102234 C17.72477098 17.51486482 15.77620837 17.52558624 13.82763672 17.53344727 C10.84686438 17.55067296 7.86719744 17.59455862 4.88671875 17.63867188 C2.99479983 17.6487976 1.10287148 17.65731408 -0.7890625 17.6640625 C-2.12673172 17.69032463 -2.12673172 17.69032463 -3.49142456 17.71711731 C-9.68123097 17.69540721 -9.68123097 17.69540721 -12.85791016 15.33666992 C-14.85540971 12.42379095 -14.86164233 10.57597576 -14.6953125 7.140625 C-14.08791923 4.24061986 -12.63187708 2.95519454 -10.296875 1.23828125 C-7.07242946 -0.37394152 -3.54435605 0.03264339 0 0 Z " fill="#060500" transform="translate(271.296875,460.76171875)"/>
<path d="M0 0 C1.83704312 -0.01653825 3.67402246 -0.04380029 5.51074219 -0.08203125 C8.16391264 -0.13695737 10.81557491 -0.15869864 13.46923828 -0.17333984 C14.69299164 -0.2073439 14.69299164 -0.2073439 15.94146729 -0.24203491 C20.05354156 -0.22689142 22.73845311 0.08988999 26.03857422 2.6640625 C28.51611328 5.35009766 28.51611328 5.35009766 29.20361328 8.85009766 C28.32213341 13.33763155 27.13648067 14.58127327 23.51611328 17.35009766 C20.41808576 18.07387141 17.40559969 18.05167947 14.23486328 18.01416016 C13.34375854 18.01894379 12.45265381 18.02372742 11.5345459 18.02865601 C9.65517404 18.03205038 7.77574278 18.02288028 5.89648438 18.00195312 C3.0248613 17.97517922 0.15714649 18.00171477 -2.71435547 18.03369141 C-4.54379115 18.03038722 -6.37322441 18.02398081 -8.20263672 18.01416016 C-9.05796997 18.02428131 -9.91330322 18.03440247 -10.79455566 18.04483032 C-15.16737875 17.95914559 -16.96140076 17.75402723 -20.52880859 14.99609375 C-22.48388672 12.35009766 -22.48388672 12.35009766 -23.04638672 9.35009766 C-22.36031015 5.69102262 -21.05654358 3.9984209 -18.48388672 1.35009766 C-13.45506543 -1.16431299 -5.59586181 0.0369265 0 0 Z " fill="#050500" transform="translate(142.48388671875,460.64990234375)"/>
<path d="M0 0 C0.85095749 -0.00570007 1.70191498 -0.01140015 2.57865906 -0.01727295 C4.38177241 -0.02672798 6.18490308 -0.03325892 7.98803711 -0.03710938 C10.74038073 -0.04679987 13.49197283 -0.07781175 16.24414062 -0.109375 C17.99608932 -0.11590663 19.74804335 -0.12115647 21.5 -0.125 C22.73149529 -0.1435202 22.73149529 -0.1435202 23.98786926 -0.16241455 C28.63009359 -0.14441429 31.6796597 0.18380238 35.44921875 3.203125 C37.01622317 6.33713385 37.30086436 9.83467595 36.44921875 13.203125 C33.56218663 16.30589854 31.32480634 17.46269864 27.18139648 17.72070312 C25.49873407 17.74697489 23.81560515 17.75024677 22.1328125 17.734375 C21.23933609 17.7382019 20.34585968 17.74202881 19.42530823 17.74597168 C17.54174672 17.74868692 15.65814725 17.74135293 13.7746582 17.72460938 C10.89253791 17.70316829 8.01290308 17.72443646 5.13085938 17.75 C3.29817159 17.74735715 1.46548535 17.74223305 -0.3671875 17.734375 C-1.22768204 17.74247192 -2.08817657 17.75056885 -2.9747467 17.75891113 C-8.91167177 17.66585343 -8.91167177 17.66585343 -12.06225586 15.38476562 C-14.19480219 12.2592229 -14.55078125 9.97069423 -14.55078125 6.203125 C-10.55717702 -0.13155757 -7.00642194 0.03600234 0 0 Z " fill="#050400" transform="translate(202.55078125,443.796875)"/>
<path d="M0 0 C1.83704312 -0.01653825 3.67402246 -0.04380029 5.51074219 -0.08203125 C8.16391264 -0.13695737 10.81557491 -0.15869864 13.46923828 -0.17333984 C14.69299164 -0.2073439 14.69299164 -0.2073439 15.94146729 -0.24203491 C20.05354156 -0.22689142 22.73845311 0.08988999 26.03857422 2.6640625 C28.51611328 5.35009766 28.51611328 5.35009766 29.20361328 8.85009766 C28.32192904 13.33867199 27.14115889 14.58494117 23.51611328 17.35009766 C20.40316475 18.05358457 17.3799144 18.00458399 14.19970703 17.94384766 C13.30623062 17.94388794 12.41275421 17.94392822 11.49220276 17.94396973 C9.60858096 17.93862136 7.72495921 17.9210678 5.84155273 17.89208984 C2.95959291 17.8501846 0.07996747 17.85102726 -2.80224609 17.85791016 C-4.63494461 17.84741877 -6.4676311 17.83448094 -8.30029297 17.81884766 C-9.16078751 17.81864624 -10.02128204 17.81844482 -10.90785217 17.8182373 C-16.85691873 17.70056011 -16.85691873 17.70056011 -20.01098633 15.9375 C-22.24704883 13.527608 -22.39542163 11.54257642 -22.65966797 8.35400391 C-22.37642336 5.12501537 -20.77504907 3.51033645 -18.48388672 1.35009766 C-13.45506543 -1.16431299 -5.59586181 0.0369265 0 0 Z " fill="#050500" transform="translate(415.48388671875,460.64990234375)"/>
<path d="M0 0 C0.8452977 -0.00241196 1.6905954 -0.00482391 2.56150818 -0.00730896 C4.3407767 -0.00633331 6.12007663 0.00699289 7.89916992 0.03198242 C10.61677391 0.06635162 13.33113343 0.05261347 16.04882812 0.03320312 C17.78256587 0.04010071 19.51629526 0.04977232 21.25 0.0625 C22.05844864 0.05754013 22.86689728 0.05258026 23.69984436 0.04747009 C27.60684012 0.12876729 29.63631047 0.37161673 33.04663086 2.44946289 C35.8355317 5.47051832 36.05859375 7.56098521 36.05859375 11.62890625 C34.71296976 14.57646357 33.97304831 16.17167897 31.05859375 17.62890625 C25.26334252 17.91467171 19.46691399 17.94270386 13.6652832 17.97900391 C11.724406 17.99556069 9.78358969 18.02284713 7.84301758 18.06103516 C5.0434611 18.11583965 2.24533337 18.13768289 -0.5546875 18.15234375 C-1.41943192 18.17501312 -2.28417633 18.1976825 -3.17512512 18.22103882 C-7.56508901 18.20566869 -9.38472176 18.052124 -12.98510742 15.31494141 C-14.94140625 12.62890625 -14.94140625 12.62890625 -15.62890625 9.12890625 C-14.87765562 5.30435759 -13.83829259 4.02655272 -10.80545044 1.66116333 C-7.35335955 -0.25051091 -3.86384474 -0.06352444 0 0 Z " fill="#050400" transform="translate(339.94140625,443.37109375)"/>
<path d="M0 0 C0.82310165 -0.00004028 1.64620331 -0.00008057 2.49424744 -0.00012207 C4.22646766 0.00521741 5.95868856 0.02273283 7.69067383 0.05175781 C10.33555396 0.093682 12.97788974 0.09281633 15.62304688 0.0859375 C17.31121553 0.09642905 18.99937113 0.10936698 20.6875 0.125 C21.47407486 0.12520142 22.26064972 0.12540283 23.07106018 0.12561035 C27.63453328 0.22359818 30.6701842 0.72927816 34.27734375 3.59375 C36.27734375 6.59375 36.27734375 6.59375 36.15234375 10.03125 C35.15534762 14.09044853 34.6427487 15.18734286 31.27734375 17.59375 C28.1340514 18.20081206 25.03363665 18.17804524 21.83984375 18.16015625 C20.92275635 18.16635483 20.00566895 18.17255341 19.06079102 18.17893982 C17.12419699 18.18603542 15.18754193 18.1828685 13.25097656 18.17016602 C10.28727088 18.15629646 7.32672041 18.19037771 4.36328125 18.22851562 C2.48046798 18.2294668 0.59765075 18.22760807 -1.28515625 18.22265625 C-2.17066162 18.23591446 -3.05616699 18.24917267 -3.96850586 18.26283264 C-10.08907124 18.17014984 -10.08907124 18.17014984 -13.2734375 15.27319336 C-15.21784795 11.67819593 -15.4418358 9.62115549 -14.72265625 5.59375 C-10.0573481 0.57723069 -6.69031984 -0.13981196 0 0 Z " fill="#040400" transform="translate(66.72265625,443.40625)"/>
</svg>
