<?xml version="1.0" encoding="UTF-8"?>
<svg version="1.1" xmlns="http://www.w3.org/2000/svg" width="500" height="500">
<path d="M0 0 C2.72412422 2.63243382 5.34699585 5.33081727 7.94213867 8.09033203 C9.7054249 9.92461441 11.47101175 11.75668828 13.23901367 13.58642578 C14.07674316 14.4574292 14.91447266 15.32843262 15.77758789 16.22583008 C18.54502831 19.00754143 21.45269635 21.55922623 24.4362793 24.10375977 C27.02973345 26.39178348 29.2681468 28.87985041 31.56713867 31.46533203 C36.59130859 37.05822552 41.82264792 42.38816865 47.19213867 47.65283203 C47.53825195 45.98607422 47.53825195 45.98607422 47.89135742 44.28564453 C51.23518974 28.74871656 56.59160312 18.6310555 68.19213867 7.65283203 C69.50580558 6.94820343 70.83606034 6.27192312 72.19213867 5.65283203 C72.61261475 6.15057129 73.03309082 6.64831055 73.46630859 7.16113281 C77.56343984 11.93744345 81.85836913 16.29100613 86.50463867 20.52783203 C92.84479629 26.39702818 99.06123264 32.37776043 105.19213867 38.46533203 C105.98789307 39.24827637 106.78364746 40.0312207 107.60351562 40.83789062 C108.69925903 41.93157959 108.69925903 41.93157959 109.81713867 43.04736328 C110.4694043 43.69552002 111.12166992 44.34367676 111.79370117 45.01147461 C113.19213867 46.65283203 113.19213867 46.65283203 113.19213867 48.65283203 C113.85213867 48.65283203 114.51213867 48.65283203 115.19213867 48.65283203 C116.39135742 49.91064453 116.39135742 49.91064453 117.87963867 51.77783203 C121.35144305 55.86525534 125.12455476 59.47020703 129.06713867 63.09033203 C134.8918727 68.45659362 140.5871928 73.93212306 146.19213867 79.52783203 C146.88549316 80.21675537 147.57884766 80.90567871 148.29321289 81.61547852 C151.54310977 84.87439199 154.67798425 88.17326702 157.66870117 91.67236328 C161.34572089 95.93478954 165.41129941 99.67765481 169.56713867 103.46533203 C176.07100675 109.49659828 181.87991916 115.5298765 187.19213867 122.65283203 C187.85084961 123.48427734 188.50956055 124.31572266 189.18823242 125.17236328 C202.51971661 142.50589146 209.91565659 162.92539541 212.19213867 184.65283203 C212.32491211 185.89291016 212.45768555 187.13298828 212.59448242 188.41064453 C215.50306507 220.45849214 207.05223975 251.42822089 187.19213867 276.65283203 C186.73323242 277.23806641 186.27432617 277.82330078 185.80151367 278.42626953 C165.04328952 304.54513399 135.60412047 320.94787048 102.37963867 324.96533203 C76.86140649 327.61997171 53.02199327 323.06775933 30.19213867 311.65283203 C29.0087793 311.15396484 27.82541992 310.65509766 26.60620117 310.14111328 C23.47544556 308.77633309 20.69954872 307.28739604 17.81713867 305.46533203 C16.9637793 304.93552734 16.11041992 304.40572266 15.23120117 303.85986328 C10.9741462 300.76830022 7.1244124 297.14818645 3.19213867 293.65283203 C3.19213867 322.36283203 3.19213867 351.07283203 3.19213867 380.65283203 C-17.59786133 380.65283203 -38.38786133 380.65283203 -59.80786133 380.65283203 C-59.96829657 359.30157586 -59.96829657 359.30157586 -60.00317383 350.16650391 C-60.02704047 343.94492871 -60.05520677 337.72359008 -60.10961914 331.50219727 C-60.15323453 326.48362582 -60.17703162 321.46530824 -60.1873703 316.44656181 C-60.19473356 314.5364832 -60.20911212 312.62641772 -60.23078156 310.71644783 C-60.26002449 308.03096134 -60.26380868 305.34650998 -60.26196289 302.66088867 C-60.27634399 301.8797319 -60.2907251 301.09857513 -60.30554199 300.29374695 C-60.24915277 292.65982348 -57.19401857 286.40946115 -53.05786133 280.09033203 C-52.62989258 279.42904297 -52.20192383 278.76775391 -51.76098633 278.08642578 C-51.44645508 277.61333984 -51.13192383 277.14025391 -50.80786133 276.65283203 C-51.56583008 275.73050781 -51.56583008 275.73050781 -52.33911133 274.78955078 C-53.31364258 273.5771875 -53.31364258 273.5771875 -54.30786133 272.34033203 C-54.95754883 271.53982422 -55.60723633 270.73931641 -56.27661133 269.91455078 C-57.80786133 267.65283203 -57.80786133 267.65283203 -57.80786133 264.65283203 C-58.76692383 265.11689453 -58.76692383 265.11689453 -59.74536133 265.59033203 C-68.65241084 268.68053288 -77.345841 267.80880967 -85.93286133 264.02783203 C-94.02786432 259.60343768 -99.61390429 252.56083188 -102.38598633 243.83251953 C-104.13065936 234.81837551 -103.51888618 225.61045758 -98.80786133 217.65283203 C-95.16977207 212.57888672 -91.18497706 208.80041197 -85.80786133 205.65283203 C-93.0189315 196.83930183 -101.16387423 188.82377724 -109.80786133 181.42236328 C-116.49220544 175.50828538 -122.99704782 169.21482951 -127.80786133 161.65283203 C-128.22036133 161.01474609 -128.63286133 160.37666016 -129.05786133 159.71923828 C-133.18875257 152.1315943 -133.20248476 142.16864604 -131.11254883 133.90283203 C-130.18139998 131.64929532 -129.12718055 129.70146436 -127.80786133 127.65283203 C-127.3721582 126.94642578 -126.93645508 126.24001953 -126.48754883 125.51220703 C-123.15955976 120.60205923 -119.26884049 117.07475882 -113.80786133 114.65283203 C-112.81786133 114.65283203 -111.82786133 114.65283203 -110.80786133 114.65283203 C-111.35055664 113.95158203 -111.89325195 113.25033203 -112.45239258 112.52783203 C-120.04356295 102.46098267 -123.16622882 95.4801432 -121.80786133 82.65283203 C-119.74605491 73.92697274 -114.73121167 67.63457829 -107.68286133 62.27783203 C-105.09842959 60.81706627 -102.60430966 59.6398138 -99.80786133 58.65283203 C-100.27836914 58.15654297 -100.74887695 57.66025391 -101.23364258 57.14892578 C-108.16338082 49.58790703 -111.20360595 42.45478719 -111.01489258 32.10986328 C-110.28564002 23.45514894 -106.9021173 16.79405722 -100.80786133 10.65283203 C-91.48480062 3.08088533 -82.68251418 1.64757041 -70.80786133 2.65283203 C-64.08607458 4.39003389 -58.40670681 8.68201963 -52.80786133 12.65283203 C-52.60161133 11.82783203 -52.39536133 11.00283203 -52.18286133 10.15283203 C-48.7842916 1.50192728 -43.17530614 -3.46864112 -34.80786133 -7.34716797 C-22.45275547 -11.98567657 -9.89180535 -8.26883025 0 0 Z " fill="#090706" transform="translate(209.807861328125,64.34716796875)"/>
<path d="M0 0 C3 0 3 0 4.50495434 1.42897606 C5.03789262 2.08907991 5.5708309 2.74918377 6.11991882 3.42929077 C10.18406602 8.27396158 14.58507277 12.68933294 19.08129883 17.13134766 C19.96358658 18.00735626 20.84587433 18.88336487 21.75489807 19.78591919 C23.65973912 21.67697534 25.56543949 23.56712074 27.47248268 25.45595169 C30.50017941 28.45551778 33.52221392 31.46074617 36.5431366 34.46713257 C37.58326125 35.50211457 38.62339287 36.53708957 39.6635313 37.57205772 C40.18410874 38.0900496 40.70468617 38.60804147 41.24103868 39.14173007 C48.26189014 46.1267347 55.28746831 53.10693198 62.32348633 60.07666016 C67.08749869 64.79587929 71.84410606 69.52243306 76.59277552 74.25709188 C79.09600768 76.75233018 81.60268732 79.24385067 84.11863136 81.7262764 C103.66351091 101.01841704 117.7037464 118.89564857 124 146 C124.18763916 146.76739502 124.37527832 147.53479004 124.56860352 148.32543945 C128.06298342 163.79432995 127.43576411 181.79843118 123 197 C122.77425293 197.79712402 122.54850586 198.59424805 122.31591797 199.41552734 C114.31131947 227.18647802 97.4186015 250.63985266 72 265 C67.10457173 267.57155152 62.08241447 269.82264744 57 272 C55.31970703 272.76957031 55.31970703 272.76957031 53.60546875 273.5546875 C28.5200539 283.61059594 -1.50573862 281.12678618 -26.1875 271.3125 C-29.0532742 270.05385525 -30.78367117 269.21632883 -33 267 C-33.99 266.608125 -34.98 266.21625 -36 265.8125 C-45.28127987 261.95010403 -52.7929838 254.81954221 -60 248 C-61.42892578 246.68515625 -61.42892578 246.68515625 -62.88671875 245.34375 C-64.27310547 244.02890625 -64.27310547 244.02890625 -65.6875 242.6875 C-66.96173828 241.48673828 -66.96173828 241.48673828 -68.26171875 240.26171875 C-70 238 -70 238 -69.76953125 235.70703125 C-69.38861328 234.86205078 -69.38861328 234.86205078 -69 234 C-68.16339844 234.15984375 -67.32679688 234.3196875 -66.46484375 234.484375 C-55.18788614 236.16256937 -46.42479325 235.77092803 -36.9375 229.375 C-28.7426669 222.89536452 -25.93431147 215.02787789 -24 205 C-23.17757812 204.91363281 -22.35515625 204.82726562 -21.5078125 204.73828125 C-10.72438903 203.38101432 -2.38026732 200.80655626 4.59765625 192.12109375 C9.40027752 184.85696185 10.72754709 176.53655258 10 168 C9.20256553 164.58772225 8.1790364 161.2984947 7 158 C8.76731449 156.6827656 10.53897761 155.37136412 12.3125 154.0625 C13.29863281 153.33160156 14.28476562 152.60070312 15.30078125 151.84765625 C18 150 18 150 21 149 C21.44730469 149.59167969 21.89460938 150.18335938 22.35546875 150.79296875 C27.28829678 157.25113776 27.28829678 157.25113776 33 163 C35.31816544 163.22942014 35.31816544 163.22942014 37.4375 160.6875 C38.283125 159.800625 39.12875 158.91375 40 158 C40.61875 157.484375 41.2375 156.96875 41.875 156.4375 C43.21982432 155.06232811 43.21982432 155.06232811 42.80859375 153.1796875 C41.77297551 150.38802093 40.24282634 148.83434366 38.1875 146.6875 C29.97564111 137.71174726 27.53637391 129.63305323 27.75390625 117.56640625 C28.48955555 106.90532989 32.43065823 98.66828406 39.75 90.9375 C42 89 42 89 44 89 C42.0666305 85.55771376 40.06183224 82.82145018 37.25048828 80.05517578 C36.50606476 79.3173587 35.76164124 78.57954163 34.99465942 77.81936646 C34.19462494 77.03592865 33.39459045 76.25249084 32.5703125 75.4453125 C31.742966 74.62553925 30.91561951 73.80576599 30.0632019 72.96115112 C26.53219547 69.46275639 22.98951498 65.97627054 19.44775391 62.48876953 C16.85946637 59.93676863 14.27728244 57.37870252 11.6953125 54.8203125 C10.89932648 54.04092316 10.10334045 53.26153381 9.28323364 52.45852661 C-0.20163179 43.0571285 -5.98169922 33.61890695 -6.5 19.875 C-6.24976427 12.62778833 -4.01339726 6.02009589 0 0 Z " fill="#E4C4A3" transform="translate(280,94)"/>
<path d="M0 0 C5.26245839 3.06775073 9.29911328 7.02692618 13.56591797 11.33886719 C14.6645089 12.43702003 14.6645089 12.43702003 15.78529358 13.55735779 C18.19236568 15.96581742 20.5922859 18.38127206 22.9921875 20.796875 C24.66469334 22.47311301 26.33764281 24.14890849 28.01101685 25.82427979 C32.40483056 30.22571385 36.79260374 34.63312194 41.17913818 39.04180908 C45.66005746 43.54322115 50.14667437 48.03894637 54.6328125 52.53515625 C63.42745475 61.35122023 72.21572486 70.1736071 81 79 C79.75481714 82.73554859 77.77378939 84.22621061 75 87 C69.12340146 94.7235295 68.13275304 102.52312745 69 112 C69.78150764 114.82788315 70.82144393 117.29914234 72 120 C72 120.99 72 121.98 72 123 C71.01 123.309375 70.02 123.61875 69 123.9375 C62.38886188 126.79383351 57.73384715 133.03906507 54.5 139.3125 C50.89991182 148.51272536 53.00415272 157.94112846 56 167 C55.41992188 167.35191406 54.83984375 167.70382813 54.2421875 168.06640625 C47.71803853 172.18975452 42.04362023 176.71098676 39 184 C38.56526661 186.07169246 38.19345777 188.15727751 37.875 190.25 C37.70742187 191.32765625 37.53984375 192.4053125 37.3671875 193.515625 C37.24601563 194.33546875 37.12484375 195.1553125 37 196 C36.07058594 196.10957031 35.14117187 196.21914063 34.18359375 196.33203125 C23.32940094 197.72417485 15.47629718 199.52269232 8 208 C6.05238012 211.22721556 4.45433003 214.52499025 3 218 C2.38253906 217.855625 1.76507813 217.71125 1.12890625 217.5625 C-6.54726382 215.88005177 -13.66986189 214.55052324 -21 218 C-21.99 218 -22.98 218 -24 218 C-24.27972656 217.34773437 -24.55945313 216.69546875 -24.84765625 216.0234375 C-28.49536858 208.07119005 -32.28761581 203.36526043 -40.5 200.125 C-43.89926417 198.73117823 -45.83730383 197.36078151 -48.14135742 194.50878906 C-52.54546279 189.2800229 -57.37693059 184.535303 -62.23828125 179.734375 C-63.21034622 178.7692731 -64.18203421 177.80379138 -65.15336609 176.83795166 C-69.24188448 172.77365924 -73.33625463 168.71529811 -77.43481445 164.66113281 C-79.95639651 162.16634791 -82.47307187 159.66669924 -84.98680687 157.16400909 C-86.40228156 155.75772215 -87.82332822 154.35705075 -89.24446106 152.95648193 C-90.53171333 151.67429779 -90.53171333 151.67429779 -91.8449707 150.36621094 C-92.97912163 149.24324615 -92.97912163 149.24324615 -94.13618469 148.09759521 C-97.80641048 143.96700995 -98.40131833 140.69252021 -98.2421875 135.30859375 C-97.69654848 130.10742179 -95.87327169 126.37429348 -91.875 123.0625 C-88.40764066 120.85333856 -85.4660792 120.44116806 -81.40625 120.43359375 C-75.16857616 121.90187737 -70.52857646 126.03443714 -66.15649414 130.50292969 C-65.35029129 131.30847542 -65.35029129 131.30847542 -64.52780151 132.1302948 C-62.77303672 133.88713072 -61.02910828 135.6543109 -59.28515625 137.421875 C-58.06270574 138.64992742 -56.83958623 139.87731421 -55.61582947 141.10406494 C-52.41166644 144.31962982 -49.21661932 147.54410389 -46.0234375 150.77056885 C-42.75744994 154.06735802 -39.48285136 157.3555699 -36.20898438 160.64453125 C-29.79757127 167.0880262 -23.39576347 173.54097368 -17 180 C-15.8944811 179.06409496 -14.79064547 178.12620142 -13.6875 177.1875 C-13.07261719 176.66542969 -12.45773438 176.14335937 -11.82421875 175.60546875 C-10.14575321 174.12827531 -8.56117966 172.59960869 -7 171 C-8.34325072 168.00721563 -9.82345427 165.93251728 -12.15026855 163.62940979 C-12.79801743 162.98324707 -13.4457663 162.33708435 -14.11314392 161.67134094 C-14.82281815 160.9735704 -15.53249237 160.27579987 -16.26367188 159.55688477 C-17.01177628 158.81330719 -17.75988068 158.06972961 -18.53065491 157.30361938 C-20.15506853 155.69016193 -21.78174924 154.07898449 -23.41041565 152.46982002 C-25.98696773 149.92340159 -28.5568106 147.37038773 -31.12487793 144.81541443 C-38.42750324 137.55256879 -45.74272173 130.30245369 -53.06103516 123.05541992 C-57.53701096 118.62212468 -62.00568216 114.1815711 -66.47010803 109.73664665 C-68.17368285 108.04364895 -69.88016685 106.35357345 -71.58958435 104.6664753 C-73.97863961 102.30856538 -76.35839281 99.941626 -78.73632812 97.57250977 C-79.44600235 96.87676346 -80.15567657 96.18101715 -80.88685608 95.46418762 C-85.27280111 91.06988932 -87.67260184 87.94658343 -88.375 81.625 C-87.77932049 75.86676472 -85.60061436 72.560599 -81.5 68.5625 C-76.43096129 66.29953629 -71.46157732 66.03284568 -66 67 C-60.69412569 70.07276263 -56.63639162 74.09174888 -52.34228516 78.43066406 C-51.22906387 79.54344727 -51.22906387 79.54344727 -50.09335327 80.67871094 C-47.65381606 83.11963586 -45.22143 85.5675572 -42.7890625 88.015625 C-41.09413637 89.71428323 -39.39876668 91.41249897 -37.70297241 93.11029053 C-33.2499754 97.57090839 -28.80301844 102.0375007 -24.3572998 106.50537109 C-19.81605684 111.06710575 -15.26911729 115.62315448 -10.72265625 120.1796875 C-1.80952548 129.1142409 7.09742861 138.05492561 16 147 C17.1055189 146.06409496 18.20935453 145.12620142 19.3125 144.1875 C19.92738281 143.66542969 20.54226562 143.14335937 21.17578125 142.60546875 C22.85424679 141.12827531 24.43882034 139.59960869 26 138 C24.4975457 134.4567789 22.43747735 132.22928476 19.6875 129.5625 C18.92824219 128.82128906 18.16898437 128.08007812 17.38671875 127.31640625 C16.59910156 126.55199219 15.81148438 125.78757812 15 125 C13.3317125 123.33495574 11.66533042 121.66800184 10 120 C9.01116128 119.01097415 8.02222504 118.02204579 7.03320312 117.03320312 C-17 93 -17 93 -19.36705017 90.63096619 C-21.9380839 88.06186946 -24.51495312 85.49880082 -27.09399414 82.93774414 C-31.98731031 78.07704361 -36.87558942 73.21131103 -41.76097965 68.34264469 C-44.70821836 65.40586066 -47.65730899 62.47098614 -50.6105957 59.5402832 C-53.480178 56.69249323 -56.34479054 53.83978902 -59.2060833 50.98367119 C-60.29231793 49.90111432 -61.38030299 48.82031072 -62.47010994 47.74135017 C-63.99661073 46.22945451 -65.51664913 44.71132528 -67.03540039 43.19165039 C-67.89968155 42.33181046 -68.76396271 41.47197052 -69.6544342 40.58607483 C-74.77233473 34.94339631 -76.69577759 31.15445422 -76.37890625 23.62109375 C-75.82769217 19.80805616 -74.64795803 17.78375075 -72 15 C-67.53069129 11.66992685 -63.94001466 10.21150438 -58.328125 10.48828125 C-50.74183809 12.15573693 -45.12916942 18.55319853 -40 24 C-38.33590344 25.66929927 -36.66869595 27.3353079 -35 29 C-33.76613201 30.23357991 -32.53242086 31.46731671 -31.29882812 32.70117188 C-30.61461792 33.38538208 -29.93040771 34.06959229 -29.22546387 34.77453613 C-3.15030924 60.84969076 22.92484538 86.92484538 49 113 C52.98882376 111.46583702 56.64783382 108.5752926 59 105 C58.56601382 101.62955583 57.3495231 99.97960326 54.96998596 97.62268066 C54.32361176 96.97507278 53.67723755 96.3274649 53.01127625 95.66023254 C52.29800674 94.96089096 51.58473724 94.26154938 50.84985352 93.54101562 C50.10189514 92.79583176 49.35393677 92.05064789 48.58331299 91.28288269 C46.10524821 88.81711985 43.61696468 86.36192481 41.12890625 83.90625 C39.40797283 82.19598989 37.68784461 80.48491921 35.9684906 78.77307129 C31.43642798 74.26382135 26.89632204 69.76276795 22.3536377 65.26422119 C15.08406154 58.06474963 7.82188207 50.85788769 0.56883049 43.64176941 C-1.9694647 41.12020354 -4.51408363 38.6051437 -7.05918884 36.0904541 C-8.61320787 34.5468949 -10.16697811 33.00308518 -11.72045898 31.45898438 C-12.78732689 30.409972 -12.78732689 30.409972 -13.87574768 29.33976746 C-14.52494171 28.69215958 -15.17413574 28.0445517 -15.84300232 27.37731934 C-16.40768439 26.8183773 -16.97236647 26.25943527 -17.55416012 25.6835556 C-20.91018965 21.77574922 -21.44438964 18.32430619 -21.3125 13.3125 C-20.62787682 8.24628843 -18.1242612 5.06941919 -14.4375 1.5625 C-9.6682339 -0.60534823 -5.15402972 -0.98447759 0 0 Z " fill="#E3C3A2" transform="translate(192,72)"/>
<path d="M0 0 C4.51712653 2.00151889 8.18511787 4.00009395 10.09909058 8.69741821 C11.05578786 12.20450886 11.24096002 15.10943584 11.22705078 18.73974609 C11.22734283 19.38435791 11.22763489 20.02896973 11.22793579 20.69311523 C11.22655315 22.80336423 11.21104311 24.91325092 11.1953125 27.0234375 C11.19157856 28.49459643 11.18873339 29.96575785 11.18673706 31.43692017 C11.17913056 35.29371098 11.159508 39.15034921 11.1373291 43.00708008 C11.11319264 47.6427139 11.10407547 52.27839897 11.09242249 56.91407776 C11.07308159 63.94282436 11.03473853 70.97123671 11 78 C0.77 78 -9.46 78 -20 78 C-20.16043524 61.55984471 -20.16043524 61.55984471 -20.1953125 54.52539062 C-20.21917851 49.73460052 -20.24734199 44.94411766 -20.30175781 40.15356445 C-20.3453768 36.28912055 -20.36917073 32.42500634 -20.37950897 28.56033516 C-20.38687172 27.08958309 -20.4012495 25.61884807 -20.42292023 24.14823723 C-20.62552418 9.82307261 -20.62552418 9.82307261 -16 4 C-11.17270176 -0.48249122 -6.32021404 -1.25077699 0 0 Z " fill="#EAC03C" transform="translate(186,350)"/>
<path d="M0 0 C6.39109562 2.99816005 11.22177357 7.92587423 16 13 C17.66409656 14.66929927 19.33130405 16.3353079 21 18 C22.23386799 19.23357991 23.46757914 20.46731671 24.70117188 21.70117188 C25.38538208 22.38538208 26.06959229 23.06959229 26.77453613 23.77453613 C48.6159668 45.6159668 70.45739746 67.45739746 92.29882812 89.29882812 C92.93802689 89.9377449 93.57722565 90.57666168 94.23579407 91.23493958 C95.33899255 92.33867239 96.44119858 93.4433991 97.54191589 94.54960632 C99.72623306 96.74364778 101.91026737 98.85719437 104.3125 100.8125 C105.199375 101.534375 106.08625 102.25625 107 103 C105.515 103.495 105.515 103.495 104 104 C103.26676204 106.01508358 103.26676204 106.01508358 103 108 C101.1875 108.6875 101.1875 108.6875 99 109 C97.25 107.6875 97.25 107.6875 96 106 C96 105.34 96 104.68 96 104 C95.40703125 103.74605469 94.8140625 103.49210937 94.203125 103.23046875 C91.75602301 101.86373626 90.50652046 100.48257018 88.75 98.3125 C85.62905498 94.59579975 82.25963519 91.50975926 78.50390625 88.4453125 C78.00761719 87.96835938 77.51132813 87.49140625 77 87 C77 86.34 77 85.68 77 85 C76.34 85 75.68 85 75 85 C73.5625 83.50390625 73.5625 83.50390625 72 81.5625 C69.85474956 78.84811762 69.85474956 78.84811762 67 77 C67 76.34 67 75.68 67 75 C66.34 75 65.68 75 65 75 C65 74.34 65 73.68 65 73 C63.515 72.505 63.515 72.505 62 72 C61.484375 71.154375 60.96875 70.30875 60.4375 69.4375 C57.89759928 65.3421562 54.18310763 62.80357433 50.4140625 59.890625 C43.48905109 54.46715328 43.48905109 54.46715328 42 50 C40.53733856 48.73203245 40.53733856 48.73203245 38.75 47.625 C34.51129423 44.72942322 30.66783504 42.00350512 29 37 C28.34 37 27.68 37 27 37 C24.375 34.625 24.375 34.625 22 32 C22 31.34 22 30.68 22 30 C21.34 30 20.68 30 20 30 C19.1646875 28.63875 19.1646875 28.63875 18.3125 27.25 C16.17192824 24.24162887 15.5484051 23.54052163 12.5 22 C7.80556894 19.59234115 5.64923942 15.94771826 4 11 C3.34 11 2.68 11 2 11 C2 10.34 2 9.68 2 9 C0.68 8.67 -0.64 8.34 -2 8 C-2 7.34 -2 6.68 -2 6 C-2.62648437 5.87882812 -3.25296875 5.75765625 -3.8984375 5.6328125 C-4.71570313 5.46523437 -5.53296875 5.29765625 -6.375 5.125 C-7.18710938 4.96257812 -7.99921875 4.80015625 -8.8359375 4.6328125 C-11 4 -11 4 -13 2 C-8.61772021 -0.4422593 -4.93556104 -0.89521412 0 0 Z " fill="#D6A583" transform="translate(136,83)"/>
<path d="M0 0 C0.93328125 -0.03738281 1.8665625 -0.07476562 2.828125 -0.11328125 C9.7454563 0.89472558 14.61443022 6.90014483 19.31591797 11.65136719 C20.4145089 12.74952003 20.4145089 12.74952003 21.53529358 13.86985779 C23.94236568 16.27831742 26.3422859 18.69377206 28.7421875 21.109375 C30.41469334 22.78561301 32.08764281 24.46140849 33.76101685 26.13677979 C38.15483056 30.53821385 42.54260374 34.94562194 46.92913818 39.35430908 C51.41005746 43.85572115 55.89667437 48.35144637 60.3828125 52.84765625 C69.17745475 61.66372023 77.96572486 70.4861071 86.75 79.3125 C85.36918777 83.4549367 83.15174442 84.63453099 79.75 87.3125 C78.2893715 84.66511084 77.75 83.41801666 77.75 80.3125 C77.09 80.3125 76.43 80.3125 75.75 80.3125 C75.75 79.6525 75.75 78.9925 75.75 78.3125 C73.77 77.3225 73.77 77.3225 71.75 76.3125 C71.75 75.6525 71.75 74.9925 71.75 74.3125 C71.09 74.3125 70.43 74.3125 69.75 74.3125 C69.75 73.6525 69.75 72.9925 69.75 72.3125 C68.945625 72.065 68.14125 71.8175 67.3125 71.5625 C64.75 70.3125 64.75 70.3125 63.9375 68.1875 C63.8446875 67.259375 63.8446875 67.259375 63.75 66.3125 C63.09 66.3125 62.43 66.3125 61.75 66.3125 C61.75 65.6525 61.75 64.9925 61.75 64.3125 C61.09 64.3125 60.43 64.3125 59.75 64.3125 C59.75 63.6525 59.75 62.9925 59.75 62.3125 C58.1 61.6525 56.45 60.9925 54.75 60.3125 C54.75 59.6525 54.75 58.9925 54.75 58.3125 C54.09 58.3125 53.43 58.3125 52.75 58.3125 C47.75 52.83630952 47.75 52.83630952 47.75 50.3125 C47.09 50.3125 46.43 50.3125 45.75 50.3125 C45.75 49.6525 45.75 48.9925 45.75 48.3125 C45.09 48.3125 44.43 48.3125 43.75 48.3125 C42.38360658 46.6728279 41.0550581 45.00139872 39.75 43.3125 C37.26343725 40.59282199 35.1464592 38.76812537 31.75 37.3125 C31.75 36.3225 31.75 35.3325 31.75 34.3125 C30.43 33.6525 29.11 32.9925 27.75 32.3125 C27.75 31.6525 27.75 30.9925 27.75 30.3125 C27.21375 30.085625 26.6775 29.85875 26.125 29.625 C21.43439447 27.03282326 18.00665014 24.17297722 15.75 19.3125 C14.76 18.9825 13.77 18.6525 12.75 18.3125 C11.56316772 16.59818671 10.37760168 14.88295788 9.203125 13.16015625 C5.90145634 8.96206679 0.91295575 5.67117257 -4.25 4.3125 C-6.85280568 4.63291397 -6.85280568 4.63291397 -9.25 5.3125 C-10.24 5.3125 -11.23 5.3125 -12.25 5.3125 C-7.87300121 1.74179046 -5.65956362 0.14690124 0 0 Z " fill="#DAA885" transform="translate(186.25,71.6875)"/>
<path d="M0 0 C1.51207031 -0.02900391 1.51207031 -0.02900391 3.0546875 -0.05859375 C10.11922191 1.08287682 14.95486034 6.98993121 19.78271484 11.86816406 C20.52486237 12.61001953 21.26700989 13.351875 22.03164673 14.11621094 C24.47118394 16.55713586 26.90357 19.0050572 29.3359375 21.453125 C31.03086363 23.15178323 32.72623332 24.84999897 34.42202759 26.54779053 C38.8750246 31.00840839 43.32198156 35.4750007 47.7677002 39.94287109 C52.30894316 44.50460575 56.85588271 49.06065448 61.40234375 53.6171875 C70.31547452 62.5517409 79.22242861 71.49242561 88.125 80.4375 C87.135 82.0875 86.145 83.7375 85.125 85.4375 C83.475 85.1075 81.825 84.7775 80.125 84.4375 C80.125 83.7775 80.125 83.1175 80.125 82.4375 C79.54234375 82.1796875 78.9596875 81.921875 78.359375 81.65625 C75.9447097 80.33915983 74.30759823 78.88661616 72.375 76.9375 C71.76140625 76.3290625 71.1478125 75.720625 70.515625 75.09375 C69.125 73.4375 69.125 73.4375 69.125 71.4375 C68.465 71.4375 67.805 71.4375 67.125 71.4375 C67.125 70.7775 67.125 70.1175 67.125 69.4375 C66.465 69.4375 65.805 69.4375 65.125 69.4375 C63.7578125 68.01171875 63.7578125 68.01171875 62.25 66.125 C60.05886488 63.46126711 57.91479281 61.47619475 55.125 59.4375 C55.125 58.7775 55.125 58.1175 55.125 57.4375 C54.465 57.4375 53.805 57.4375 53.125 57.4375 C51 55.5625 51 55.5625 49.125 53.4375 C49.125 52.7775 49.125 52.1175 49.125 51.4375 C48.568125 51.210625 48.01125 50.98375 47.4375 50.75 C44.46340412 49.06199964 42.40491135 46.97073483 40.125 44.4375 C40.125 43.7775 40.125 43.1175 40.125 42.4375 C39.135 41.7775 38.145 41.1175 37.125 40.4375 C37.125 39.7775 37.125 39.1175 37.125 38.4375 C36.38894531 38.19 35.65289062 37.9425 34.89453125 37.6875 C31.86146059 36.31855415 30.12709791 34.80876415 27.8125 32.4375 C27.11511719 31.73625 26.41773438 31.035 25.69921875 30.3125 C24.125 28.4375 24.125 28.4375 24.125 26.4375 C23.485625 26.169375 22.84625 25.90125 22.1875 25.625 C20.125 24.4375 20.125 24.4375 19.125 21.4375 C18.526875 21.334375 17.92875 21.23125 17.3125 21.125 C13.90392516 20.05373362 12.99693246 17.38721175 11.125 14.4375 C7.79422193 10.66846165 4.72466477 8.46991002 0.125 6.4375 C0.125 5.7775 0.125 5.1175 0.125 4.4375 C-3.175 4.1075 -6.475 3.7775 -9.875 3.4375 C-5.71689324 0.31891993 -4.89028934 0.00622174 0 0 Z " fill="#DBAA86" transform="translate(119.875,138.5625)"/>
<path d="M0 0 C5.15985378 5.39984698 6.28957193 8.59214744 6.234375 15.9609375 C5.88147106 19.03120182 4.57165421 21.38057632 3 24 C2.34 24 1.68 24 1 24 C1 24.66 1 25.32 1 26 C-4.45706569 29.53971829 -9.69190926 29.84879508 -16 29 C-20.46375021 26.62566478 -23.31192793 22.75729401 -25 18 C-25.78969035 12.96672111 -25.56231138 9.18950484 -23.375 4.5625 C-17.43639381 -1.84494352 -8.19094641 -2.95153506 0 0 Z " fill="#C10201" transform="translate(269,254)"/>
<path d="M0 0 C11.47376785 -1.03263911 11.47376785 -1.03263911 16.625 2.75 C19.92645969 5.50818151 21.72500752 8.0622623 22.3359375 12.3671875 C22.42531743 18.10537931 22.01244424 21.56519321 18 26 C14.30010527 29.42917072 11.4207651 30.29969749 6.5 30.5 C1.57396351 30.29279901 -1.33297182 29.48814876 -5 26 C-8.93032673 21.13329448 -9.51263673 17.15164078 -9 11 C-8.67 10.01 -8.34 9.02 -8 8 C-7.34 8 -6.68 8 -6 8 C-5.938125 7.38125 -5.87625 6.7625 -5.8125 6.125 C-5 4 -5 4 -2.4375 2.75 C-1.633125 2.5025 -0.82875 2.255 0 2 C0 1.34 0 0.68 0 0 Z " fill="#BB0303" transform="translate(132,284)"/>
<path d="M0 0 C3.56838825 2.52680465 6.18530809 4.56024771 7.79296875 8.72265625 C8.12388118 13.85179888 8.04713077 17.99965012 5.79296875 22.72265625 C0.69520669 27.68264096 -4.590191 29.46320224 -11.62890625 29.37890625 C-16.63159657 28.10549417 -19.46051391 23.87470205 -22.20703125 19.72265625 C-23.87202472 14.72767585 -23.76570869 10.39857037 -21.76953125 5.53515625 C-19.54535193 1.49548073 -16.84746038 -0.14988353 -12.5703125 -1.7109375 C-7.76787083 -2.86193592 -4.29393111 -2.48516013 0 0 Z " fill="#BA0303" transform="translate(189.20703125,305.27734375)"/>
<path d="M0 0 C10.66224287 -0.62110153 10.66224287 -0.62110153 15.5 1.625 C19.56954772 5.49107034 21.76838656 8.20499582 22.5 13.875 C22.28659856 18.48091436 20.3235779 22.09970852 18 26 C17.34 26 16.68 26 16 26 C16 26.66 16 27.32 16 28 C10.40343186 31.58180361 4.13890791 29.98295844 -1.984375 28.73046875 C-4.35105608 27.87277619 -5.43013921 26.95412522 -7 25 C-9.1913821 19.0025332 -10.16159389 13.74558557 -7.625 7.75 C-6.47234011 5.7993448 -5.25681901 3.88522851 -4 2 C-2.68 2 -1.36 2 0 2 C0 1.34 0 0.68 0 0 Z " fill="#BC0302" transform="translate(218,284)"/>
<path d="M0 0 C4.43517267 1.76939226 6.52140983 4.22229098 9 8.25 C10.23155514 12.86833177 10.46880554 16.4241058 9 21 C6.45310504 25.11721977 3.54845175 28.20255988 -1 30 C-5.82353896 30.68452863 -10.41999524 30.80819351 -14.625 28.125 C-15.40875 27.42375 -16.1925 26.7225 -17 26 C-17 25.34 -17 24.68 -17 24 C-17.66 24 -18.32 24 -19 24 C-21.31441672 18.69045576 -20.9976246 14.54235887 -20 9 C-19.87882812 8.30648437 -19.75765625 7.61296875 -19.6328125 6.8984375 C-18.68377217 4.0513165 -16.73249243 2.61183002 -14.29296875 0.9921875 C-9.6401236 -1.02113902 -4.928705 -0.82256542 0 0 Z " fill="#BA0303" transform="translate(281,208)"/>
<path d="M0 0 C6.28021526 1.34717551 10.94729711 5.56498302 15.32006836 10.03417969 C15.85753693 10.57121017 16.39500549 11.10824066 16.94876099 11.6615448 C18.70352578 13.41838072 20.44745422 15.1855609 22.19140625 16.953125 C23.41385676 18.18117742 24.63697627 19.40856421 25.86073303 20.63531494 C29.06489606 23.85087982 32.25994318 27.07535389 35.453125 30.30181885 C38.71911256 33.59860802 41.99371114 36.8868199 45.26757812 40.17578125 C51.67899123 46.6192762 58.08079903 53.07222368 64.4765625 59.53125 C67.9415625 57.05625 67.9415625 57.05625 71.4765625 54.53125 C70.35204523 57.5031885 69.25362459 59.86565687 67.4765625 62.53125 C65.82264404 62.92296753 64.15310979 63.25182545 62.4765625 63.53125 C60.24248137 64.52208967 60.24248137 64.52208967 58.4765625 65.53125 C56.80989583 63.86458333 55.14322917 62.19791667 53.4765625 60.53125 C52.5484375 59.644375 51.6203125 58.7575 50.6640625 57.84375 C48.4765625 55.53125 48.4765625 55.53125 48.4765625 53.53125 C47.8165625 53.53125 47.1565625 53.53125 46.4765625 53.53125 C46.4765625 52.87125 46.4765625 52.21125 46.4765625 51.53125 C45.4865625 51.20125 44.4965625 50.87125 43.4765625 50.53125 C41.79296875 48.7890625 41.79296875 48.7890625 40.0390625 46.65625 C38.19877635 44.42485158 36.5905362 42.6149776 34.25390625 40.8984375 C33.37412109 40.22167969 33.37412109 40.22167969 32.4765625 39.53125 C32.4765625 38.87125 32.4765625 38.21125 32.4765625 37.53125 C31.4865625 37.53125 30.4965625 37.53125 29.4765625 37.53125 C29.4765625 36.87125 29.4765625 36.21125 29.4765625 35.53125 C28.8165625 35.53125 28.1565625 35.53125 27.4765625 35.53125 C26.14453125 33.921875 26.14453125 33.921875 24.6640625 31.78125 C22.24876959 28.42239057 19.77466452 26.05332802 16.4765625 23.53125 C16.4765625 22.87125 16.4765625 22.21125 16.4765625 21.53125 C15.6721875 21.1909375 15.6721875 21.1909375 14.8515625 20.84375 C11.62725921 19.06189818 9.18006955 17.05042702 6.4765625 14.53125 C6.4765625 13.54125 6.4765625 12.55125 6.4765625 11.53125 C5.9403125 11.28375 5.4040625 11.03625 4.8515625 10.78125 C2.4765625 9.53125 2.4765625 9.53125 -0.2734375 7.46875 C-4.2626042 5.09059293 -6.93557544 4.84765428 -11.5234375 4.53125 C-7.80699172 0.69491887 -5.09816625 0.07415515 0 0 Z " fill="#D8A885" transform="translate(110.5234375,192.46875)"/>
<path d="M0 0 C5.29495033 0.8977218 8.14174516 4.58958532 11.8125 8.25 C12.51826172 8.91902344 13.22402344 9.58804688 13.95117188 10.27734375 C14.61310547 10.93347656 15.27503906 11.58960938 15.95703125 12.265625 C16.86932495 13.15942871 16.86932495 13.15942871 17.80004883 14.07128906 C19 16 19 16 18.74658203 18.609375 C17.63676259 22.16311993 15.99773725 24.8520504 14 28 C10.52363841 29.7381808 6.800959 29.45508953 3 29 C-1.82159389 26.63468979 -4.70321747 23.85857844 -7 19 C-7.94541312 14.06116184 -8.17758233 9.86133982 -5.42578125 5.51171875 C-3.70360486 3.54501427 -1.9514488 1.73738682 0 0 Z " fill="#B80303" transform="translate(283,164)"/>
<path d="M0 0 C5.25174926 4.38442526 10.13222473 9.00842093 14.9375 13.875 C15.62134766 14.56335938 16.30519531 15.25171875 17.00976562 15.9609375 C18.67551464 17.63833511 20.3388622 19.31803791 22 21 C21.01 21.33 20.02 21.66 19 22 C17.49881265 20.75988871 16.0011335 19.51404267 14.55078125 18.21484375 C11.60246953 15.90520913 8.60872358 16 5 16 C4.34 14.68 3.68 13.36 3 12 C3.66 12 4.32 12 5 12 C5.33 10.68 5.66 9.36 6 8 C5.38125 7.79375 4.7625 7.5875 4.125 7.375 C1.15346355 5.45224112 0.86975341 3.33405473 0 0 Z " fill="#DFAB84" transform="translate(150,95)"/>
<path d="M0 0 C4.18738236 3.51160884 8.13389115 7.13389115 12 11 C14.3048326 13.03424429 16.64455918 15.02468796 19 17 C18.01 17.33 17.02 17.66 16 18 C16 18.66 16 19.32 16 20 C14.35 20.33 12.7 20.66 11 21 C11 20.01 11 19.02 11 18 C10.34 18 9.68 18 9 18 C6.9948307 14.24030756 7 12.34235699 7 8 C6.21625 7.71125 5.4325 7.4225 4.625 7.125 C2 6 2 6 0 4 C0 2.68 0 1.36 0 0 Z " fill="#CEA07F" transform="translate(224,169)"/>
<path d="M0 0 C1.50433594 0.01353516 1.50433594 0.01353516 3.0390625 0.02734375 C3.80992187 0.03894531 4.58078125 0.05054687 5.375 0.0625 C6.035 1.7125 6.695 3.3625 7.375 5.0625 C8.035 5.0625 8.695 5.0625 9.375 5.0625 C9.045 6.0525 8.715 7.0425 8.375 8.0625 C7.715 8.0625 7.055 8.0625 6.375 8.0625 C5.385 8.5575 5.385 8.5575 4.375 9.0625 C2.65941601 8.07274001 0.94539534 7.07996124 -0.75390625 6.0625 C-3.38509679 4.65626873 -5.65619353 4.19444695 -8.625 4.0625 C-10.94480946 4.88592532 -10.94480946 4.88592532 -12.625 6.0625 C-8.11063658 1.42933754 -6.44641504 -0.07495831 0 0 Z " fill="#DDAB86" transform="translate(186.625,71.9375)"/>
<path d="M0 0 C4.52615993 3.67832017 8.39424999 7.41086363 12 12 C9.69 11.34 7.38 10.68 5 10 C5.33 11.65 5.66 13.3 6 15 C3.6875 14.5 3.6875 14.5 1 13 C-0.34219295 10.4309588 -1.20425705 7.78186561 -2 5 C-1.34 5 -0.68 5 0 5 C0 3.35 0 1.7 0 0 Z " fill="#CC9F7F" transform="translate(178,123)"/>
<path d="M0 0 C0.99 0 1.98 0 3 0 C3 0.66 3 1.32 3 2 C3.78375 1.814375 4.5675 1.62875 5.375 1.4375 C8 1 8 1 10 2 C10 3.32 10 4.64 10 6 C10.66 6.33 11.32 6.66 12 7 C12 8.66666667 12 10.33333333 12 12 C12.66 12 13.32 12 14 12 C14 12.99 14 13.98 14 15 C15.32 14.67 16.64 14.34 18 14 C18 14.66 18 15.32 18 16 C16.1875 16.6875 16.1875 16.6875 14 17 C12.25 15.6875 12.25 15.6875 11 14 C11 13.34 11 12.68 11 12 C10.41734375 11.7525 9.8346875 11.505 9.234375 11.25 C6.66885764 9.81474554 5.16275202 8.22336987 3.25 6 C2.63640625 5.29875 2.0228125 4.5975 1.390625 3.875 C0 2 0 2 0 0 Z " fill="#E0AD86" transform="translate(221,175)"/>
<path d="M0 0 C5.33064109 1.0903584 5.33064109 1.0903584 7.21875 3.65625 C8.17422584 5.42243261 9.08897383 7.21048431 10 9 C10.66 9.33 11.32 9.66 12 10 C11.67 11.32 11.34 12.64 11 14 C6.59885603 13.49701212 4.28804981 11.91227269 1 9 C1.99 8.34 2.98 7.68 4 7 C2.68 6.34 1.36 5.68 0 5 C0 3.35 0 1.7 0 0 Z " fill="#E1AB85" transform="translate(144,93)"/>
<path d="M0 0 C1 2 1 2 1 5 C1.99 5 2.98 5 4 5 C4 8.96 4 12.92 4 17 C3.01 17 2.02 17 1 17 C-1.66125581 12.45368799 -2.48721014 9.26186946 -2 4 C-1 1.5625 -1 1.5625 0 0 Z " fill="#BFA58B" transform="translate(106,146)"/>
<path d="M0 0 C0.99 0.33 1.98 0.66 3 1 C3.02708567 2.60407328 3.04643483 4.2082785 3.0625 5.8125 C3.07410156 6.70582031 3.08570313 7.59914063 3.09765625 8.51953125 C3 11 3 11 2 14 C1.34 14 0.68 14 0 14 C-0.2475 14.78375 -0.495 15.5675 -0.75 16.375 C-2 19 -2 19 -3.875 20.375 C-6.3334349 21.09806909 -7.61499846 20.85178626 -10 20 C-8.02 19.34 -6.04 18.68 -4 18 C-4 17.34 -4 16.68 -4 16 C-3.34 16 -2.68 16 -2 16 C0.27141454 10.60539047 0.20413361 5.73842251 0 0 Z " fill="#360000" transform="translate(274,262)"/>
<path d="M0 0 C2.9375 0.75 2.9375 0.75 6 2 C6.875 4.125 6.875 4.125 7 6 C7.99 5.67 8.98 5.34 10 5 C15.57142857 11.14285714 15.57142857 11.14285714 16 16 C10.35573231 11.31645873 4.9941954 6.3792354 0 1 C0 0.67 0 0.34 0 0 Z " fill="#C1AA94" transform="translate(187,176)"/>
<path d="M0 0 C3.73869347 2.4120603 3.73869347 2.4120603 4.75 4.6875 C5.45572766 11.21548082 5.44299519 15.26167468 2 21 C1.34 21 0.68 21 0 21 C0 21.66 0 22.32 0 23 C-1.32 23.33 -2.64 23.66 -4 24 C-3.34 22.35 -2.68 20.7 -2 19 C-1.01 19 -0.02 19 1 19 C2.01173798 15.96478606 2.16573514 13.80266921 2.1875 10.625 C2.20876953 9.22121094 2.20876953 9.22121094 2.23046875 7.7890625 C1.98668108 4.83881846 1.23112508 2.67635888 0 0 Z " fill="#A1090A" transform="translate(270,257)"/>
<path d="M0 0 C0.66 0.33 1.32 0.66 2 1 C-1.42757002 5.01098619 -4.86471691 8.9217542 -8.6875 12.5625 C-11.93653568 15.7383592 -13.93979419 18.96199662 -16 23 C-16.33 22.01 -16.66 21.02 -17 20 C-12.69039603 12.31327947 -6.38184685 5.98298142 0 0 Z " fill="#585858" transform="translate(280,70)"/>
<path d="M0 0 C12.66970387 -0.738041 12.66970387 -0.738041 18 4 C17.01 4.495 17.01 4.495 16 5 C15.01 4.34 14.02 3.68 13 3 C6.81803361 2.25272934 1.27076261 2.39368874 -4 6 C-4.33 6.66 -4.66 7.32 -5 8 C-5.66 8 -6.32 8 -7 8 C-6 6 -5 4 -4 2 C-2.68 2 -1.36 2 0 2 C0 1.34 0 0.68 0 0 Z " fill="#97080B" transform="translate(218,284)"/>
<path d="M0 0 C1.32 0 2.64 0 4 0 C4.66 2.31 5.32 4.62 6 7 C5.34 7 4.68 7 4 7 C4 7.66 4 8.32 4 9 C4.66 9 5.32 9 6 9 C6.33 10.32 6.66 11.64 7 13 C6.34 13 5.68 13 5 13 C5 12.34 5 11.68 5 11 C4.01 10.67 3.02 10.34 2 10 C-0.4294516 6.3558226 -0.16179575 4.28758728 0 0 Z " fill="#E2A984" transform="translate(196,145)"/>
<path d="M0 0 C1 2 1 2 1 6 C-0.98 6.99 -0.98 6.99 -3 8 C-3 10.31 -3 12.62 -3 15 C-5.18975773 11.71536341 -5.99806563 8.79303725 -7 5 C-4.69 3.35 -2.38 1.7 0 0 Z " fill="#D3B99F" transform="translate(294,247)"/>
<path d="M0 0 C5.50366792 -0.32374517 9.43672206 -0.53286034 14 3 C13.01 4.485 13.01 4.485 12 6 C7.61110675 5.33501617 4.0188515 3.81242323 0 2 C0 1.34 0 0.68 0 0 Z " fill="#DFAB84" transform="translate(103,195)"/>
<path d="M0 0 C7.07402895 -0.79748969 11.39640765 0.19404176 17.28515625 4.19921875 C19.38568347 6.40501157 19.66957574 8.01601474 20 11 C19.34 11 18.68 11 18 11 C18 9.68 18 8.36 18 7 C17.278125 6.9175 16.55625 6.835 15.8125 6.75 C13 6 13 6 10.6875 4 C7.0572209 1.29839695 4.47156564 1.30315699 0 1 C0 0.67 0 0.34 0 0 Z " fill="#C2A33F" transform="translate(176,350)"/>
<path d="M0 0 C0 3 0 3 -2.59765625 5.9609375 C-3.74483786 7.10678673 -4.90018138 8.24450828 -6.0625 9.375 C-6.62388672 9.93960937 -7.18527344 10.50421875 -7.76367188 11.0859375 C-11.58262161 14.85687758 -15.5629343 17.98166486 -20 21 C-20 20.01 -20 19.02 -20 18 C-18.41796875 16.5625 -18.41796875 16.5625 -16.1875 15 C-10.20427515 10.56974593 -5.16173548 5.33540134 0 0 Z " fill="#261B14" transform="translate(381,334)"/>
<path d="M0 0 C0.556875 0.78375 1.11375 1.5675 1.6875 2.375 C5.42377406 6.61617596 9.32089156 7.22801626 14.8125 7.625 C15.78832031 7.69976562 16.76414062 7.77453125 17.76953125 7.8515625 C18.50558594 7.90054687 19.24164063 7.94953125 20 8 C17.42600489 10.57399511 16.26430716 10.32659936 12.6875 10.375 C8.86916983 10.31002841 7.28543752 10.16893241 3.9375 8.1875 C0 3.74193548 0 3.74193548 0 0 Z " fill="#980A0D" transform="translate(246,273)"/>
<path d="M0 0 C1.17825358 0.90172468 2.34231577 1.82201502 3.5 2.75 C4.1496875 3.26046875 4.799375 3.7709375 5.46875 4.296875 C7 6 7 6 7 10 C3.86650268 11.04449911 3.01031744 10.93423645 0 10 C1 8 2 6 3 4 C2.01 3.67 1.02 3.34 0 3 C0 2.01 0 1.02 0 0 Z " fill="#C79C7E" transform="translate(265,144)"/>
<path d="M0 0 C0 3.66842255 -0.79029126 5.10451959 -3 8 C-5.4375 8.6875 -5.4375 8.6875 -8 9 C-10.23408113 9.99083967 -10.23408113 9.99083967 -12 11 C-12.99 10.34 -13.98 9.68 -15 9 C-14.67 8.34 -14.34 7.68 -14 7 C-13.29875 7.0825 -12.5975 7.165 -11.875 7.25 C-6.91156428 6.81839689 -3.26064649 3.62294054 0 0 Z " fill="#DDB190" transform="translate(181,247)"/>
<path d="M0 0 C3.59634744 3.49359465 6.83451967 7.11098131 10 11 C8.68 11.33 7.36 11.66 6 12 C6 11.34 6 10.68 6 10 C5.195625 9.731875 4.39125 9.46375 3.5625 9.1875 C2.716875 8.795625 1.87125 8.40375 1 8 C0.02391783 5.07175348 -0.08226668 3.04386724 0 0 Z " fill="#C7AE92" transform="translate(301,245)"/>
<path d="M0 0 C1.50433594 0.01353516 1.50433594 0.01353516 3.0390625 0.02734375 C3.80992187 0.03894531 4.58078125 0.05054687 5.375 0.0625 C5.375 0.3925 5.375 0.7225 5.375 1.0625 C3.065 1.3925 0.755 1.7225 -1.625 2.0625 C-1.295 3.0525 -0.965 4.0425 -0.625 5.0625 C-1.8625 4.85625 -3.1 4.65 -4.375 4.4375 C-7.74409835 4.00142876 -9.75341921 4.02846361 -12.625 6.0625 C-8.11063658 1.42933754 -6.44641504 -0.07495831 0 0 Z " fill="#B49177" transform="translate(186.625,71.9375)"/>
<path d="M0 0 C2.50009087 2.50009087 2.29712739 3.4212859 2.3125 6.875 C2.32925781 7.73867188 2.34601563 8.60234375 2.36328125 9.4921875 C1.93757021 12.43096692 0.94053466 13.79833799 -1 16 C-0.979375 15.278125 -0.95875 14.55625 -0.9375 13.8125 C-0.89286284 11.03488467 -0.89286284 11.03488467 -1.625 8.5625 C-2.10910935 5.25441947 -1.21387483 3.07038929 0 0 Z " fill="#A20707" transform="translate(152,292)"/>
<path d="M0 0 C0 0.66 0 1.32 0 2 C-0.66 2 -1.32 2 -2 2 C-4.10687759 6.86202522 -5.52085957 11.92161787 -7 17 C-7.33 17 -7.66 17 -8 17 C-8.68862988 7.32092452 -8.68862988 7.32092452 -6.125 3.4375 C-3.12820513 0 -3.12820513 0 0 0 Z " fill="#8B070A" transform="translate(252,255)"/>
<path d="M0 0 C0 1.85290164 -0.00969894 3.705867 -0.03515625 5.55859375 C-0.04417969 6.50863281 -0.05320312 7.45867187 -0.0625 8.4375 C-0.07410156 9.38496094 -0.08570313 10.33242187 -0.09765625 11.30859375 C-0.01026282 13.71715663 0.31013359 15.70225597 1 18 C0.01 17.67 -0.98 17.34 -2 17 C-3.21921083 13.89526544 -3.19653315 10.68103348 -3.25 7.375 C-3.27578125 6.41335937 -3.3015625 5.45171875 -3.328125 4.4609375 C-3.21984375 3.64882812 -3.1115625 2.83671875 -3 2 C-2.01 1.34 -1.02 0.68 0 0 Z " fill="#310100" transform="translate(277,169)"/>
<path d="M0 0 C2.475 0.495 2.475 0.495 5 1 C5 3.97 5 6.94 5 10 C3.68 9.34 2.36 8.68 1 8 C0.13970066 5.20402714 0 2.92828926 0 0 Z " fill="#E2AB87" transform="translate(183,133)"/>
<path d="M0 0 C0.99 0.33 1.98 0.66 3 1 C3.58679586 14.23550665 3.58679586 14.23550665 0 20 C-2.1875 20.9375 -2.1875 20.9375 -4 21 C-4 20.34 -4 19.68 -4 19 C-3.34 19 -2.68 19 -2 19 C0.39551688 13.17957878 0.39551688 13.17957878 1.125 7 C1.12757813 6.319375 1.13015625 5.63875 1.1328125 4.9375 C1.06631126 2.78125219 1.06631126 2.78125219 0 0 Z " fill="#390000" transform="translate(238,291)"/>
<path d="M0 0 C0.556875 0.16242188 1.11375 0.32484375 1.6875 0.4921875 C4.19228372 1.04222447 6.437481 1.13281256 9 1.125 C9.845625 1.12757813 10.69125 1.13015625 11.5625 1.1328125 C13.84698944 1.00833711 15.80991574 0.63877457 18 0 C17 3 17 3 15 4 C10.26055347 4.31658385 5.61552596 4.19110347 1 3 C0.67 2.01 0.34 1.02 0 0 Z " fill="#2E0000" transform="translate(266,236)"/>
<path d="M0 0 C2.97 0.495 2.97 0.495 6 1 C6.66 3.97 7.32 6.94 8 10 C6 10 6 10 3.375 7.625 C1 5 1 5 1 3 C0.34 2.67 -0.32 2.34 -1 2 C-0.67 1.34 -0.34 0.68 0 0 Z " fill="#DFAD89" transform="translate(157,110)"/>
<path d="M0 0 C1.45212891 -0.03867188 1.45212891 -0.03867188 2.93359375 -0.078125 C5.5625 0.25 5.5625 0.25 7.41015625 1.765625 C7.79042969 2.25546875 8.17070312 2.7453125 8.5625 3.25 C7.67046875 3.23839844 6.7784375 3.22679687 5.859375 3.21484375 C4.68890625 3.20582031 3.5184375 3.19679687 2.3125 3.1875 C1.15234375 3.17589844 -0.0078125 3.16429687 -1.203125 3.15234375 C-3.84727128 3.23217908 -5.93576091 3.46356222 -8.4375 4.25 C-8.1075 3.26 -7.7775 2.27 -7.4375 1.25 C-4.85741408 -0.04004296 -2.88008426 0.04589776 0 0 Z " fill="#350002" transform="translate(258.4375,250.75)"/>
<path d="M0 0 C2.27734375 1.01953125 2.27734375 1.01953125 4 2 C4 2.33 4 2.66 4 3 C-2.93 2.505 -2.93 2.505 -10 2 C-10 2.66 -10 3.32 -10 4 C-11.32 3.67 -12.64 3.34 -14 3 C-9.58341023 -0.4192953 -5.38890687 -0.74230023 0 0 Z " fill="#A2846F" transform="translate(113,193)"/>
<path d="M0 0 C2.12534659 0.14069196 4.25027529 0.28770921 6.375 0.4375 C8.15003906 0.55931641 8.15003906 0.55931641 9.9609375 0.68359375 C13 1 13 1 15 2 C14.67 3.32 14.34 4.64 14 6 C13.38125 5.525625 12.7625 5.05125 12.125 4.5625 C7.83894324 2.41947162 3.73399291 2.26657436 -1 2 C-0.67 1.34 -0.34 0.68 0 0 Z " fill="#3A271C" transform="translate(117,137)"/>
<path d="M0 0 C0.33 0 0.66 0 1 0 C1.46450943 6.50313209 0.32575612 10.4174808 -3 16 C-3.33 16 -3.66 16 -4 16 C-4 14.35 -4 12.7 -4 11 C-3.01 10.67 -2.02 10.34 -1 10 C-1.66 9.01 -2.32 8.02 -3 7 C-3 6.01 -3 5.02 -3 4 C-2.34 4 -1.68 4 -1 4 C-0.67 2.68 -0.34 1.36 0 0 Z " fill="#A70608" transform="translate(239,294)"/>
<path d="M0 0 C2.52631142 3.12781414 4.42373366 6.29577411 6 10 C5.67 10.99 5.34 11.98 5 13 C3.0625 12.4375 3.0625 12.4375 1 11 C0.3125 7.5625 0.3125 7.5625 0 4 C-0.33 3.01 -0.66 2.02 -1 1 C-0.67 0.67 -0.34 0.34 0 0 Z " fill="#BAA48E" transform="translate(393,212)"/>
<path d="M0 0 C0.66 0 1.32 0 2 0 C1.835 0.680625 1.67 1.36125 1.5 2.0625 C0.62937796 7.17740446 0.77859704 11.96171281 2 17 C0 15.5 0 15.5 -2 13 C-2.47429537 8.01989858 -2.26881984 4.53763968 0 0 Z " fill="#250000" transform="translate(209,290)"/>
<path d="M0 0 C2.70931419 0.15481795 4.46584039 0.48172081 6.4453125 2.40234375 C7.67679642 3.89771708 8.8429837 5.4462924 10 7 C8.68 7 7.36 7 6 7 C6 8.98 6 10.96 6 13 C4.38596643 10.37719544 3.99672592 9.08021493 4.125 5.9375 C4.33806706 2.87865166 4.33806706 2.87865166 2 1.125 C1.34 0.75375 0.68 0.3825 0 0 Z " fill="#C39A7C" transform="translate(190,138)"/>
<path d="M0 0 C0.66 0.33 1.32 0.66 2 1 C2.46787383 14.15245327 2.46787383 14.15245327 -1.625 18.875 C-2.07875 19.24625 -2.5325 19.6175 -3 20 C-3.99 19.67 -4.98 19.34 -6 19 C-5.34 19 -4.68 19 -4 19 C-3.67 18.01 -3.34 17.02 -3 16 C-2.34 16 -1.68 16 -1 16 C0.12862175 10.63904667 0.09688221 5.44693314 0 0 Z " fill="#360000" transform="translate(196,312)"/>
<path d="M0 0 C0.66 0.33 1.32 0.66 2 1 C0.625 2.5 0.625 2.5 -1 4 C-1.66 4 -2.32 4 -3 4 C-3.0825 4.763125 -3.165 5.52625 -3.25 6.3125 C-4.14615794 9.52373261 -5.21611025 10.29374499 -8 12 C-8.66 11.67 -9.32 11.34 -10 11 C-9.09066991 9.72390677 -8.17217147 8.45434447 -7.25 7.1875 C-6.73953125 6.47980469 -6.2290625 5.77210937 -5.703125 5.04296875 C-3.97517642 2.97022309 -2.21473524 1.52624146 0 0 Z " fill="#373637" transform="translate(169,60)"/>
<path d="M0 0 C4.95 0 9.9 0 15 0 C15.33 0.66 15.66 1.32 16 2 C15.05898438 1.95359375 14.11796875 1.9071875 13.1484375 1.859375 C3.71747814 1.37997652 3.71747814 1.37997652 -4 6 C-3.67 4.68 -3.34 3.36 -3 2 C-2.01 2 -1.02 2 0 2 C0 1.34 0 0.68 0 0 Z " fill="#350101" transform="translate(267,207)"/>
<path d="M0 0 C2.44839588 3.67259383 4 6.54648201 4 11 C2.68 11 1.36 11 0 11 C-1.37432457 7.18243176 -0.67975039 3.92744671 0 0 Z " fill="#B5A18C" transform="translate(260,184)"/>
<path d="M0 0 C-0.51949219 0.30292969 -1.03898437 0.60585937 -1.57421875 0.91796875 C-5.97824341 3.56363976 -9.53276778 6.20771476 -13 10 C-13.66 9.67 -14.32 9.34 -15 9 C-11.69993866 4.18741054 -6.15939312 -2.05313104 0 0 Z " fill="#7A7A7A" transform="translate(99,180)"/>
<path d="M0 0 C0.66 0.33 1.32 0.66 2 1 C0.484375 2.984375 0.484375 2.984375 -2 5 C-4.73682971 5.2911521 -7.03940039 5.38322418 -9.75 5.25 C-10.44738281 5.23195313 -11.14476562 5.21390625 -11.86328125 5.1953125 C-13.57611539 5.14838554 -15.28823824 5.07664605 -17 5 C-17 4.67 -17 4.34 -17 4 C-16.02417969 3.87882812 -15.04835937 3.75765625 -14.04296875 3.6328125 C-12.77066406 3.46523438 -11.49835938 3.29765625 -10.1875 3.125 C-8.92292969 2.96257812 -7.65835938 2.80015625 -6.35546875 2.6328125 C-2.88300683 2.20431547 -2.88300683 2.20431547 0 0 Z " fill="#C0AA92" transform="translate(239,326)"/>
<path d="M0 0 C4.13621084 3.3810038 7.81316569 6.66590534 11 11 C7.84859577 10.65930765 6.39218439 10.41923159 4.1875 8.0625 C3 6 3 6 3 4 C2.34 4 1.68 4 1 4 C0.67 2.68 0.34 1.36 0 0 Z " fill="#C09A80" transform="translate(246,125)"/>
<path d="M0 0 C1.36948916 3.95630201 0.77791742 5.33249547 0 10 C-6.435 10.495 -6.435 10.495 -13 11 C-9.79619983 8.86413322 -8.98060033 8.76867825 -5.3125 8.875 C-4.10013672 8.90207031 -4.10013672 8.90207031 -2.86328125 8.9296875 C-1.94095703 8.96449219 -1.94095703 8.96449219 -1 9 C-1.33 6.69 -1.66 4.38 -2 2 C-1.34 2 -0.68 2 0 2 C0 1.34 0 0.68 0 0 Z " fill="#9B8975" transform="translate(229,258)"/>
<path d="M0 0 C1.32 0 2.64 0 4 0 C4 0.99 4 1.98 4 3 C4.99 3 5.98 3 7 3 C7 3.66 7 4.32 7 5 C7.66 5 8.32 5 9 5 C9.33 5.99 9.66 6.98 10 8 C7 8 7 8 5.17578125 6.50390625 C4.56089844 5.86324219 3.94601563 5.22257813 3.3125 4.5625 C2.68988281 3.92441406 2.06726563 3.28632813 1.42578125 2.62890625 C0 1 0 1 0 0 Z " fill="#CCB39C" transform="translate(118,173)"/>
<path d="M0 0 C2.97 0.495 2.97 0.495 6 1 C5.01 2.98 4.02 4.96 3 7 C1.68 6.01 0.36 5.02 -1 4 C-0.67 2.68 -0.34 1.36 0 0 Z " fill="#D0B9A5" transform="translate(211,328)"/>
<path d="M0 0 C0.96164062 0.01417969 1.92328125 0.02835938 2.9140625 0.04296875 C3.87054688 0.04941406 4.82703125 0.05585938 5.8125 0.0625 C10.27858369 0.33763123 10.27858369 0.33763123 12.5390625 1.23046875 C12.8690625 2.22046875 13.1990625 3.21046875 13.5390625 4.23046875 C11.37031998 3.72442883 9.53938623 3.23063062 7.5390625 2.23046875 C5.49851245 2.15981258 3.45571993 2.14624899 1.4140625 2.16796875 C0.31835938 2.17699219 -0.77734375 2.18601563 -1.90625 2.1953125 C-3.17082031 2.21271484 -3.17082031 2.21271484 -4.4609375 2.23046875 C-2.4609375 0.23046875 -2.4609375 0.23046875 0 0 Z " fill="#9A0B0E" transform="translate(256.4609375,252.76953125)"/>
<path d="M0 0 C1.12894876 0.93274109 2.25300876 1.87140122 3.375 2.8125 C4.00148437 3.33457031 4.62796875 3.85664063 5.2734375 4.39453125 C7 6 7 6 9 9 C5.64258374 8.40046138 3.46610546 7.38106734 1 5 C0.25 2.3125 0.25 2.3125 0 0 Z " fill="#D1A78A" transform="translate(153,165)"/>
<path d="M0 0 C1.14926266 0.95421808 2.29430541 1.91352045 3.4375 2.875 C4.07558594 3.40867187 4.71367187 3.94234375 5.37109375 4.4921875 C7 6 7 6 8 8 C3.68607774 7.5206753 1.83430453 6.2542015 -1 3 C-0.67 2.01 -0.34 1.02 0 0 Z " fill="#B49378" transform="translate(164,109)"/>
<path d="M0 0 C0.33 0.66 0.66 1.32 1 2 C0.22265625 4.1640625 0.22265625 4.1640625 -0.9375 6.625 C-1.31777344 7.44226563 -1.69804687 8.25953125 -2.08984375 9.1015625 C-2.39019531 9.72804688 -2.69054687 10.35453125 -3 11 C-3.95199108 7.61033479 -4.07772072 5.41278228 -3 2 C-2.01 1.34 -1.02 0.68 0 0 Z " fill="#CBB39C" transform="translate(398,302)"/>
<path d="M0 0 C1.98 0 3.96 0 6 0 C5.67 0.99 5.34 1.98 5 3 C5.99 3.99 6.98 4.98 8 6 C5.69 5.34 3.38 4.68 1 4 C0.67 2.68 0.34 1.36 0 0 Z " fill="#B49E88" transform="translate(146,266)"/>
<path d="M0 0 C1.32 0 2.64 0 4 0 C5.703125 1.96875 5.703125 1.96875 7.25 4.5 C8.03117188 5.75296875 8.03117188 5.75296875 8.828125 7.03125 C9.21484375 7.6809375 9.6015625 8.330625 10 9 C6.78956118 7.61811547 4.95063635 6.07578097 2.75 3.375 C2.22921875 2.74335938 1.7084375 2.11171875 1.171875 1.4609375 C0.78515625 0.97882813 0.3984375 0.49671875 0 0 Z " fill="#E1B18C" transform="translate(190,212)"/>
<path d="M0 0 C1.14926266 0.95421808 2.29430541 1.91352045 3.4375 2.875 C4.07558594 3.40867188 4.71367187 3.94234375 5.37109375 4.4921875 C7 6 7 6 8 8 C5.2980567 7.63487253 3.41609148 7.30130763 1.1875 5.6875 C0 4 0 4 0 0 Z " fill="#AF8E76" transform="translate(224,169)"/>
<path d="M0 0 C1.32 0.66 2.64 1.32 4 2 C3.49396008 4.16874252 3.00016187 5.99967627 2 8 C0.35 6.02 -1.3 4.04 -3 2 C-2.01 2 -1.02 2 0 2 C0 1.34 0 0.68 0 0 Z " fill="#C5AD95" transform="translate(170,154)"/>
<path d="M0 0 C5.75 1.625 5.75 1.625 8 5 C7.01 5.33 6.02 5.66 5 6 C5 5.01 5 4.02 5 3 C3.02 3.99 3.02 3.99 1 5 C0.67 3.35 0.34 1.7 0 0 Z " fill="#D0A383" transform="translate(124,139)"/>
<path d="M0 0 C1.14926266 0.95421808 2.29430541 1.91352045 3.4375 2.875 C4.07558594 3.40867187 4.71367187 3.94234375 5.37109375 4.4921875 C7 6 7 6 8 8 C7.01 8.33 6.02 8.66 5 9 C4.16094435 7.87926138 3.32892169 6.75325453 2.5 5.625 C2.0359375 4.99851562 1.571875 4.37203125 1.09375 3.7265625 C0 2 0 2 0 0 Z " fill="#CEB79E" transform="translate(301,114)"/>
<path d="M0 0 C0.99 0 1.98 0 3 0 C3.66 1.32 4.32 2.64 5 4 C3.02 4 1.04 4 -1 4 C-1 4.99 -1 5.98 -1 7 C-1.66 7 -2.32 7 -3 7 C-1.125 2.25 -1.125 2.25 0 0 Z " fill="#B09E8C" transform="translate(280,94)"/>
<path d="M0 0 C0.33 1.32 0.66 2.64 1 4 C0.34 4 -0.32 4 -1 4 C-0.938125 4.78375 -0.87625 5.5675 -0.8125 6.375 C-0.874375 7.24125 -0.93625 8.1075 -1 9 C-1.99 9.66 -2.98 10.32 -4 11 C-3.48964169 6.6109185 -2.47785723 3.66291938 0 0 Z " fill="#AF9B83" transform="translate(314,192)"/>
<path d="M0 0 C2.875 0.625 2.875 0.625 6 2 C7.375 5.125 7.375 5.125 8 8 C6.85073734 7.04578192 5.70569459 6.08647955 4.5625 5.125 C3.92441406 4.59132812 3.28632813 4.05765625 2.62890625 3.5078125 C1 2 1 2 0 0 Z " fill="#B6A088" transform="translate(187,176)"/>
<path d="M0 0 C3.53600465 1.91135386 5.78972846 3.62642766 8 7 C6.35 6.67 4.7 6.34 3 6 C3 5.34 3 4.68 3 4 C2.34 4 1.68 4 1 4 C0.67 2.68 0.34 1.36 0 0 Z " fill="#B9967C" transform="translate(193,73)"/>
<path d="M0 0 C0.33 0.66 0.66 1.32 1 2 C1.66 2.33 2.32 2.66 3 3 C-1.625 6 -1.625 6 -5 6 C-5 5.34 -5 4.68 -5 4 C-3.37373596 2.61767557 -1.7074998 1.28062485 0 0 Z " fill="#D2B89C" transform="translate(212,216)"/>
<path d="M0 0 C-2.64 1.98 -5.28 3.96 -8 6 C-8 4.68 -8 3.36 -8 2 C-3.82258065 -1.27419355 -3.82258065 -1.27419355 0 0 Z " fill="#C6B099" transform="translate(260,196)"/>
<path d="M0 0 C-0.50603992 2.16874252 -0.99983813 3.99967627 -2 6 C-3.65 4.02 -5.3 2.04 -7 0 C-2.25 -1.125 -2.25 -1.125 0 0 Z " fill="#C2AA93" transform="translate(214,196)"/>
<path d="M0 0 C0.33 0.66 0.66 1.32 1 2 C1.66 2 2.32 2 3 2 C3 2.99 3 3.98 3 5 C4.32 4.67 5.64 4.34 7 4 C7 4.66 7 5.32 7 6 C5.1875 6.6875 5.1875 6.6875 3 7 C1.25 5.6875 1.25 5.6875 0 4 C0 3.34 0 2.68 0 2 C-0.66 1.67 -1.32 1.34 -2 1 C-1.34 0.67 -0.68 0.34 0 0 Z " fill="#DFB390" transform="translate(232,185)"/>
<path d="M0 0 C0.33 1.32 0.66 2.64 1 4 C-1.4375 6.75 -1.4375 6.75 -4 9 C-4.66 8.34 -5.32 7.68 -6 7 C-4.02 4.69 -2.04 2.38 0 0 Z " fill="#C2AB94" transform="translate(250,316)"/>
<path d="M0 0 C0.99 0.66 1.98 1.32 3 2 C2.67 3.32 2.34 4.64 2 6 C1.34 6 0.68 6 0 6 C-0.33 6.99 -0.66 7.98 -1 9 C-1.66 8.67 -2.32 8.34 -3 8 C-2.01 5.36 -1.02 2.72 0 0 Z " fill="#C6AE94" transform="translate(289,276)"/>
<path d="M0 0 C0.66 0.33 1.32 0.66 2 1 C0.77065985 4.68802044 -0.93859378 5.72356973 -4 8 C-4.66 7.67 -5.32 7.34 -6 7 C-4.02 4.69 -2.04 2.38 0 0 Z " fill="#3D3D3D" transform="translate(118,274)"/>
<path d="M0 0 C3.08089673 2.77280706 4.68775452 5.06326356 6 9 C3.525 8.01 3.525 8.01 1 7 C0.67 4.69 0.34 2.38 0 0 Z " fill="#B4A08A" transform="translate(384,198)"/>
<path d="M0 0 C0.66 0.33 1.32 0.66 2 1 C-1.465 3.97 -1.465 3.97 -5 7 C-5.66 6.67 -6.32 6.34 -7 6 C-4.69 4.02 -2.38 2.04 0 0 Z " fill="#2E251D" transform="translate(208,272)"/>
<path d="M0 0 C0 3.57575896 -1.08840607 5.05295935 -3 8 C-3.99 7.67 -4.98 7.34 -6 7 C-4.02 4.69 -2.04 2.38 0 0 Z " fill="#CBB49B" transform="translate(181,247)"/>
<path d="M0 0 C2.475 0.99 2.475 0.99 5 2 C5 3.65 5 5.3 5 7 C2.5 5.1875 2.5 5.1875 0 3 C0 2.01 0 1.02 0 0 Z " fill="#D9BDA3" transform="translate(218,138)"/>
<path d="M0 0 C1.14926266 0.95421808 2.29430541 1.91352045 3.4375 2.875 C4.07558594 3.40867187 4.71367187 3.94234375 5.37109375 4.4921875 C7 6 7 6 8 8 C5.6875 7.8125 5.6875 7.8125 3 7 C0 2.96551724 0 2.96551724 0 0 Z " fill="#BC9678" transform="translate(150,95)"/>
<path d="M0 0 C2.31 1.98 4.62 3.96 7 6 C6.34 6.66 5.68 7.32 5 8 C5 7.34 5 6.68 5 6 C3.68 5.67 2.36 5.34 1 5 C0.67 3.35 0.34 1.7 0 0 Z " fill="#BA957A" transform="translate(217,96)"/>
<path d="M0 0 C0 0.66 0 1.32 0 2 C-0.66 2 -1.32 2 -2 2 C-2.66 3.32 -3.32 4.64 -4 6 C-4.66 6 -5.32 6 -6 6 C-5.6875 4.125 -5.6875 4.125 -5 2 C-2 0 -2 0 0 0 Z " fill="#A40908" transform="translate(132,286)"/>
<path d="M0 0 C3.91402949 1.26941497 5.79072873 2.51167694 8 6 C5 6 5 6 3.61328125 4.6875 C2.40885417 3.125 1.20442708 1.5625 0 0 Z " fill="#29170F" transform="translate(194,205)"/>
<path d="M0 0 C1.65 0 3.3 0 5 0 C5.33 1.98 5.66 3.96 6 6 C3.97945196 4.35830472 1.97956942 2.69088222 0 1 C0 0.67 0 0.34 0 0 Z " fill="#BDA691" transform="translate(213,202)"/>
<path d="M0 0 C0.99 0.33 1.98 0.66 3 1 C2.34 1 1.68 1 1 1 C0.7525 1.61875 0.505 2.2375 0.25 2.875 C-1.20628639 5.35068687 -2.37812506 5.95125002 -5 7 C-3.70700306 4.11562221 -2.34058637 2.12780579 0 0 Z " fill="#9F0809" transform="translate(283,164)"/>
<path d="M0 0 C1.98 0.66 3.96 1.32 6 2 C6 3.65 6 5.3 6 7 C1.125 2.25 1.125 2.25 0 0 Z " fill="#C8AF98" transform="translate(280,135)"/>
<path d="M0 0 C1.65 0 3.3 0 5 0 C5.33 1.98 5.66 3.96 6 6 C3.97945196 4.35830472 1.97956942 2.69088222 0 1 C0 0.67 0 0.34 0 0 Z " fill="#D6C1A5" transform="translate(128,249)"/>
<path d="M0 0 C1.32 0.33 2.64 0.66 4 1 C4 1.66 4 2.32 4 3 C4.66 3 5.32 3 6 3 C6.33 4.32 6.66 5.64 7 7 C6.34 7 5.68 7 5 7 C5 6.34 5 5.68 5 5 C4.01 4.67 3.02 4.34 2 4 C0.8125 1.9375 0.8125 1.9375 0 0 Z " fill="#DEAF90" transform="translate(196,151)"/>
<path d="M0 0 C2.475 0.495 2.475 0.495 5 1 C5.33 2.65 5.66 4.3 6 6 C3.97945196 4.35830472 1.97956942 2.69088222 0 1 C0 0.67 0 0.34 0 0 Z " fill="#B7A28C" transform="translate(149,138)"/>
<path d="M0 0 C2.91517292 1.07401108 4.77810176 1.77810176 7 4 C6.67 4.99 6.34 5.98 6 7 C4.02 4.69 2.04 2.38 0 0 Z " fill="#1C0C06" transform="translate(234,112)"/>
<path d="M0 0 C1.98 1.65 3.96 3.3 6 5 C5.01 5.33 4.02 5.66 3 6 C2.01 5.34 1.02 4.68 0 4 C0 2.68 0 1.36 0 0 Z " fill="#AE8E73" transform="translate(158,103)"/>
<path d="M0 0 C1.45792884 -0.05399736 2.91642712 -0.09279177 4.375 -0.125 C5.18710938 -0.14820312 5.99921875 -0.17140625 6.8359375 -0.1953125 C9 0 9 0 11 2 C8.03 1.505 8.03 1.505 5 1 C5 1.66 5 2.32 5 3 C2.525 2.01 2.525 2.01 0 1 C0 0.67 0 0.34 0 0 Z " fill="#BE9B81" transform="translate(127,83)"/>
</svg>
