<?xml version="1.0" encoding="UTF-8"?>
<svg version="1.1" xmlns="http://www.w3.org/2000/svg" width="512" height="512">
<path d="M0 0 C6.18664074 3.69428625 10.34788195 9.88344666 14.58365917 15.55341148 C43.19599322 54.0765318 43.19599322 54.0765318 84.92626953 74.03417969 C109.45959731 77.26453656 134.98036706 75.58389971 159.51722717 73.02804565 C160.4605232 72.93479822 161.40381924 72.84155079 162.3757 72.74547768 C164.12472012 72.56744473 165.87195642 72.37038747 167.61618233 72.15028954 C171.69944999 71.73408204 173.39462695 71.62690752 176.9947052 73.84564209 C179 76 179 76 180 78 C179.75584148 80.84243826 179.44630506 83.64994815 179.09448242 86.47949219 C171.6300638 142.90561936 171.6300638 142.90561936 189.95049381 194.40200424 C205.86492596 214.30596117 226.12505133 231.19299278 246.4443388 246.4426384 C250.9020022 249.80400441 250.9020022 249.80400441 252 252 C252.89639358 258.49885345 252.89639358 258.49885345 250.93490601 261.78366089 C246.62305888 266.76132354 241.69789151 270.66064548 236.44658852 274.58365917 C197.9234682 303.19599322 197.9234682 303.19599322 177.96582031 344.92626953 C174.73546344 369.45959731 176.41610029 394.98036706 178.97195435 419.51722717 C179.06520178 420.4605232 179.15844921 421.40381924 179.25452232 422.3757 C179.43255527 424.12472012 179.62961253 425.87195642 179.84971046 427.61618233 C180.26591796 431.69944999 180.37309248 433.39462695 178.15435791 436.9947052 C176 439 176 439 174 440 C171.15756174 439.75584148 168.35005185 439.44630506 165.52050781 439.09448242 C109.09438064 431.6300638 109.09438064 431.6300638 57.59799576 449.95049381 C37.69403883 465.86492596 20.80700722 486.12505133 5.5573616 506.4443388 C2.19599559 510.9020022 2.19599559 510.9020022 0 512 C-6.49885345 512.89639358 -6.49885345 512.89639358 -9.78366089 510.93490601 C-14.76132354 506.62305888 -18.66064548 501.69789151 -22.58365917 496.44658852 C-51.19599322 457.9234682 -51.19599322 457.9234682 -92.92626953 437.96582031 C-117.45959731 434.73546344 -142.98036706 436.41610029 -167.51722717 438.97195435 C-168.4605232 439.06520178 -169.40381924 439.15844921 -170.3757 439.25452232 C-172.12472012 439.43255527 -173.87195642 439.62961253 -175.61618233 439.84971046 C-179.69944999 440.26591796 -181.39462695 440.37309248 -184.9947052 438.15435791 C-187 436 -187 436 -188 434 C-187.75584148 431.15756174 -187.44630506 428.35005185 -187.09448242 425.52050781 C-179.6300638 369.09438064 -179.6300638 369.09438064 -197.95049381 317.59799576 C-213.86492596 297.69403883 -234.12505133 280.80700722 -254.4443388 265.5573616 C-258.9020022 262.19599559 -258.9020022 262.19599559 -260 260 C-260.89639358 253.50114655 -260.89639358 253.50114655 -258.93490601 250.21633911 C-254.62305888 245.23867646 -249.69789151 241.33935452 -244.44658852 237.41634083 C-205.9234682 208.80400678 -205.9234682 208.80400678 -185.96582031 167.07373047 C-182.73546344 142.54040269 -184.41610029 117.01963294 -186.97195435 92.48277283 C-187.06520178 91.5394768 -187.15844921 90.59618076 -187.25452232 89.6243 C-187.43255527 87.87527988 -187.62961253 86.12804358 -187.84971046 84.38381767 C-188.26591796 80.30055001 -188.37309248 78.60537305 -186.15435791 75.0052948 C-184 73 -184 73 -182 72 C-179.15756174 72.24415852 -176.35005185 72.55369494 -173.52050781 72.90551758 C-117.09438064 80.3699362 -117.09438064 80.3699362 -65.59799576 62.04950619 C-45.69403883 46.13507404 -28.80700722 25.87494867 -13.5573616 5.5556612 C-9.65566634 0.38144211 -6.59498387 -1.34276912 0 0 Z " fill="#030302" transform="translate(260,0)"/>
<path d="M0 0 C3.85684522 1.58499863 6.27944047 4.04432933 9.19580078 6.98461914 C9.70035797 7.49049057 10.20491516 7.996362 10.72476196 8.51756287 C12.38626333 10.18553918 14.04067509 11.86037314 15.6953125 13.53515625 C16.85014693 14.69626268 18.00549909 15.8568544 19.16134644 17.01695251 C22.19960484 20.06850162 25.23224256 23.12557074 28.26330566 26.18426514 C33.1207948 31.08491143 37.9850526 35.97881697 42.85253525 40.86953545 C44.55334907 42.58059067 46.25072014 44.29500774 47.94778442 46.00978088 C48.98607085 47.05489318 50.02446618 48.09989729 51.06298828 49.14477539 C51.97025665 50.06029678 52.87752502 50.97581818 53.81228638 51.91908264 C57.50215588 55.42882607 60.52510441 55.16657271 65.38720703 55.20532227 C66.14827759 55.21522186 66.90934814 55.22512146 67.69348145 55.23532104 C70.21489324 55.26696678 72.73632388 55.29170557 75.2578125 55.31640625 C77.00373836 55.33697313 78.74965922 55.35796953 80.49557495 55.37937927 C85.09539742 55.43462746 89.69526503 55.4840246 94.29516602 55.53222656 C98.98718289 55.58242155 103.67913405 55.63811805 108.37109375 55.69335938 C117.58067306 55.80097454 126.79030937 55.90241204 136 56 C135.9969838 56.95942505 135.99396759 57.9188501 135.99085999 58.90734863 C135.96693607 67.97026512 135.97987604 77.0324879 136.02846622 86.09531403 C136.05227194 90.75419738 136.06330442 95.4123668 136.04467773 100.07128906 C136.02716293 104.57159952 136.04381222 109.07063047 136.08367729 113.57078552 C136.0929373 115.28346045 136.09009992 116.99624689 136.07469368 118.70887756 C135.62682913 129.21976537 135.62682913 129.21976537 139.85742188 138.41015625 C141.21344203 139.6348474 142.59733593 140.82902068 144 142 C145.74450181 143.76079156 147.47716286 145.53335567 149.20092773 147.31445312 C151.18800869 149.31055852 153.18681797 151.29484794 155.18359375 153.28125 C156.24998085 154.34576772 157.31614419 155.41050962 158.38209534 156.47546387 C161.16305407 159.25263833 163.94700444 162.02679425 166.73162842 164.80029297 C169.5826948 167.64105638 172.43086669 170.48471872 175.27929688 173.328125 C180.85006518 178.8882283 186.42400319 184.44514018 192 190 C188.82823614 196.48330334 185.08597535 203.33463312 178 206 C170.09759694 206.20182955 162.40615318 203.79550341 154.84204102 201.74414062 C146.0512145 199.4424106 137.08096574 199.84282517 128.0625 199.875 C127.32688843 199.87621857 126.59127686 199.87743713 125.83337402 199.87869263 C108.59735724 199.50225361 108.59735724 199.50225361 91.578125 201.53515625 C88.01652594 202.17732335 84.61751131 202.06131375 81 202 C80.87044922 200.09541016 80.87044922 200.09541016 80.73828125 198.15234375 C79.20513837 178.41216613 73.72771665 162.43768503 61 147 C60.278125 146.01 59.55625 145.02 58.8125 144 C47.79436539 131.08588768 31.1043059 124.57020369 15 121 C13.824375 120.70996094 13.824375 120.70996094 12.625 120.4140625 C-7.50547584 117.23871959 -28.44272629 122.20609134 -45 134 C-46.68152007 135.31455156 -48.34953027 136.64666884 -50 138 C-51.07314453 138.82951172 -51.07314453 138.82951172 -52.16796875 139.67578125 C-66.87239396 151.59290729 -75.93265364 171.31512377 -77.90869141 189.82128906 C-78.31206999 193.87768107 -78.67058132 197.93697244 -79 202 C-79.73597412 201.93941406 -80.47194824 201.87882813 -81.23022461 201.81640625 C-124.50570107 197.27239221 -124.50570107 197.27239221 -166.66796875 204.359375 C-172.31724615 206.43820109 -172.31724615 206.43820109 -176 206 C-181.54533527 202.36114129 -185.8585597 197.11611736 -190 192 C-188.41500137 188.14315478 -185.95567067 185.72055953 -183.01538086 182.80419922 C-182.50950943 182.29964203 -182.003638 181.79508484 -181.48243713 181.27523804 C-179.81446082 179.61373667 -178.13962686 177.95932491 -176.46484375 176.3046875 C-175.30373732 175.14985307 -174.1431456 173.99450091 -172.98304749 172.83865356 C-169.93149838 169.80039516 -166.87442926 166.76775744 -163.81573486 163.73669434 C-158.91508857 158.8792052 -154.02118303 154.0149474 -149.13046455 149.14746475 C-147.41940933 147.44665093 -145.70499226 145.74927986 -143.99021912 144.05221558 C-142.94510682 143.01392915 -141.90010271 141.97553382 -140.85522461 140.93701172 C-139.93970322 140.02974335 -139.02418182 139.12247498 -138.08091736 138.18771362 C-134.57117393 134.49784412 -134.83342729 131.47489559 -134.79467773 126.61279297 C-134.78477814 125.85172241 -134.77487854 125.09065186 -134.76467896 124.30651855 C-134.73303322 121.78510676 -134.70829443 119.26367612 -134.68359375 116.7421875 C-134.66302687 114.99626164 -134.64203047 113.25034078 -134.62062073 111.50442505 C-134.56537254 106.90460258 -134.5159754 102.30473497 -134.46777344 97.70483398 C-134.41757845 93.01281711 -134.36188195 88.32086595 -134.30664062 83.62890625 C-134.19902546 74.41932694 -134.09758796 65.20969063 -134 56 C-133.04057495 56.0030162 -132.0811499 56.00603241 -131.09265137 56.00914001 C-122.02973488 56.03306393 -112.9675121 56.02012396 -103.90468597 55.97153378 C-99.24580262 55.94772806 -94.5876332 55.93669558 -89.92871094 55.95532227 C-85.42840048 55.97283707 -80.92936953 55.95618778 -76.42921448 55.91632271 C-74.71653955 55.9070627 -73.00375311 55.90990008 -71.29112244 55.92530632 C-60.78023463 56.37317087 -60.78023463 56.37317087 -51.58984375 52.14257812 C-50.3651526 50.78655797 -49.17097932 49.40266407 -48 48 C-46.23920844 46.25549819 -44.46664433 44.52283714 -42.68554688 42.79907227 C-40.68944148 40.81199131 -38.70515206 38.81318203 -36.71875 36.81640625 C-35.65423228 35.75001915 -34.58949038 34.68385581 -33.52453613 33.61790466 C-30.74736167 30.83694593 -27.97320575 28.05299556 -25.19970703 25.26837158 C-22.35894362 22.4173052 -19.51528128 19.56913331 -16.671875 16.72070312 C-11.1117717 11.14993482 -5.55485982 5.57599681 0 0 Z " fill="#FEBD45" transform="translate(255,65)"/>
<path d="M0 0 C6.18664074 3.69428625 10.34788195 9.88344666 14.58365917 15.55341148 C43.19599322 54.0765318 43.19599322 54.0765318 84.92626953 74.03417969 C109.45959731 77.26453656 134.98036706 75.58389971 159.51722717 73.02804565 C160.4605232 72.93479822 161.40381924 72.84155079 162.3757 72.74547768 C164.12472012 72.56744473 165.87195642 72.37038747 167.61618233 72.15028954 C171.69944999 71.73408204 173.39462695 71.62690752 176.9947052 73.84564209 C179 76 179 76 180 78 C179.75584148 80.84243826 179.44630506 83.64994815 179.09448242 86.47949219 C171.6300638 142.90561936 171.6300638 142.90561936 189.95049381 194.40200424 C205.86492596 214.30596117 226.12505133 231.19299278 246.4443388 246.4426384 C250.9020022 249.80400441 250.9020022 249.80400441 252 252 C252.89639358 258.49885345 252.89639358 258.49885345 250.93490601 261.78366089 C246.62305888 266.76132354 241.69789151 270.66064548 236.44658852 274.58365917 C197.9234682 303.19599322 197.9234682 303.19599322 177.96582031 344.92626953 C174.73546344 369.45959731 176.41610029 394.98036706 178.97195435 419.51722717 C179.06520178 420.4605232 179.15844921 421.40381924 179.25452232 422.3757 C179.43255527 424.12472012 179.62961253 425.87195642 179.84971046 427.61618233 C180.26591796 431.69944999 180.37309248 433.39462695 178.15435791 436.9947052 C176 439 176 439 174 440 C171.15756174 439.75584148 168.35005185 439.44630506 165.52050781 439.09448242 C109.09438064 431.6300638 109.09438064 431.6300638 57.59799576 449.95049381 C37.69403883 465.86492596 20.80700722 486.12505133 5.5573616 506.4443388 C2.19599559 510.9020022 2.19599559 510.9020022 0 512 C-6.49885345 512.89639358 -6.49885345 512.89639358 -9.78366089 510.93490601 C-14.76132354 506.62305888 -18.66064548 501.69789151 -22.58365917 496.44658852 C-51.19599322 457.9234682 -51.19599322 457.9234682 -92.92626953 437.96582031 C-117.45959731 434.73546344 -142.98036706 436.41610029 -167.51722717 438.97195435 C-168.4605232 439.06520178 -169.40381924 439.15844921 -170.3757 439.25452232 C-172.12472012 439.43255527 -173.87195642 439.62961253 -175.61618233 439.84971046 C-179.69944999 440.26591796 -181.39462695 440.37309248 -184.9947052 438.15435791 C-187 436 -187 436 -188 434 C-187.75584148 431.15756174 -187.44630506 428.35005185 -187.09448242 425.52050781 C-179.6300638 369.09438064 -179.6300638 369.09438064 -197.95049381 317.59799576 C-213.86492596 297.69403883 -234.12505133 280.80700722 -254.4443388 265.5573616 C-258.9020022 262.19599559 -258.9020022 262.19599559 -260 260 C-260.89639358 253.50114655 -260.89639358 253.50114655 -258.93490601 250.21633911 C-254.62305888 245.23867646 -249.69789151 241.33935452 -244.44658852 237.41634083 C-205.9234682 208.80400678 -205.9234682 208.80400678 -185.96582031 167.07373047 C-182.73546344 142.54040269 -184.41610029 117.01963294 -186.97195435 92.48277283 C-187.06520178 91.5394768 -187.15844921 90.59618076 -187.25452232 89.6243 C-187.43255527 87.87527988 -187.62961253 86.12804358 -187.84971046 84.38381767 C-188.26591796 80.30055001 -188.37309248 78.60537305 -186.15435791 75.0052948 C-184 73 -184 73 -182 72 C-179.15756174 72.24415852 -176.35005185 72.55369494 -173.52050781 72.90551758 C-117.09438064 80.3699362 -117.09438064 80.3699362 -65.59799576 62.04950619 C-45.69403883 46.13507404 -28.80700722 25.87494867 -13.5573616 5.5556612 C-9.65566634 0.38144211 -6.59498387 -1.34276912 0 0 Z M-7.71920776 22.49215698 C-8.8920131 23.66526171 -10.05920792 24.84398989 -11.22216797 26.02685547 C-11.85977051 26.66737854 -12.49737305 27.30790161 -13.15429688 27.96783447 C-14.54245681 29.36362315 -15.92830091 30.76171783 -17.31212997 32.16180038 C-19.50144886 34.37655647 -21.69687709 36.5850833 -23.89407349 38.79202271 C-29.35208767 44.27684052 -34.79927874 49.77236815 -40.24682617 55.26757812 C-44.84480583 59.90498668 -49.4468285 64.53830972 -54.05435562 69.16623306 C-56.21881032 71.34367011 -58.37715887 73.52703961 -60.53536987 75.71066284 C-61.86296393 77.04552247 -63.19083989 78.38010182 -64.51904297 79.71435547 C-65.11866852 80.32431366 -65.71829407 80.93427185 -66.33609009 81.56271362 C-67.17300385 82.39983887 -67.17300385 82.39983887 -68.02682495 83.25387573 C-68.50724684 83.73873884 -68.98766872 84.22360195 -69.48264885 84.72315788 C-72.52700956 87.28496961 -75.1717992 88.24742251 -79.12554932 88.2784729 C-79.93880676 88.28963638 -80.75206421 88.30079987 -81.58996582 88.31230164 C-82.47325562 88.31446182 -83.35654541 88.31662201 -84.26660156 88.31884766 C-85.67199188 88.33391609 -85.67199188 88.33391609 -87.10577393 88.34928894 C-90.20071808 88.38016432 -93.29557555 88.3971683 -96.390625 88.4140625 C-98.5372594 88.43277063 -100.68388642 88.45234377 -102.83050537 88.4727478 C-108.47916313 88.52411242 -114.12784474 88.56371506 -119.77661133 88.60089111 C-125.54123862 88.64090355 -131.30576632 88.6920085 -137.0703125 88.7421875 C-148.38013841 88.8389981 -159.6900205 88.92338653 -171 89 C-171.00364563 90.18937164 -171.00729126 91.37874329 -171.01104736 92.60415649 C-171.04799819 103.81615361 -171.10577208 115.02787609 -171.18390274 126.23966408 C-171.22340169 132.00370035 -171.25557845 137.7675833 -171.27099609 143.53173828 C-171.28614653 149.0951165 -171.32056396 154.65807325 -171.36830902 160.22126389 C-171.38313937 162.34307567 -171.39104196 164.46494762 -171.39188385 166.58681107 C-171.39425022 169.56044634 -171.4213041 172.53291376 -171.45410156 175.50634766 C-171.44655602 176.82049652 -171.44655602 176.82049652 -171.43885803 178.16119385 C-171.58950897 186.99709209 -176.32436528 191.62534153 -182.32910156 197.55615234 C-182.95391418 198.18125702 -183.57872681 198.80636169 -184.22247314 199.45040894 C-186.27381535 201.50036595 -188.33213392 203.54316137 -190.390625 205.5859375 C-191.82024063 207.01182013 -193.24941321 208.43814709 -194.67816162 209.86489868 C-198.4285738 213.60769709 -202.18495454 217.34444867 -205.94262695 221.07995605 C-209.78049147 224.89731352 -213.61265736 228.72038232 -217.4453125 232.54296875 C-224.95798781 240.03423396 -232.47698345 247.51912091 -240 255 C-238.34757178 259.27989147 -235.12978672 262.12906926 -231.9296875 265.28149414 C-230.99772552 266.21148476 -230.99772552 266.21148476 -230.04693604 267.16026306 C-227.99418267 269.20653059 -225.93455082 271.24573246 -223.875 273.28515625 C-222.44724645 274.70663872 -221.02000728 276.12863802 -219.59326172 277.5511322 C-215.83682165 281.29426994 -212.07485676 285.03180141 -208.3112793 288.76776123 C-202.28582043 294.75009927 -196.26705933 300.73915716 -190.25152588 306.73147392 C-188.14775337 308.82501355 -186.04060572 310.91511194 -183.93310547 313.00489807 C-182.64539287 314.2857833 -181.35778929 315.56677814 -180.0703125 316.84790039 C-179.18814056 317.71996628 -179.18814056 317.71996628 -178.28814697 318.60964966 C-171.7597438 325.11967345 -171.7597438 325.11967345 -171.7215271 330.04325867 C-171.71036362 330.8635556 -171.69920013 331.68385254 -171.68769836 332.52900696 C-171.68553818 333.42524277 -171.68337799 334.32147858 -171.68115234 335.24487305 C-171.67110672 336.19140747 -171.6610611 337.13794189 -171.65071106 338.11315918 C-171.61978693 341.24600611 -171.60281823 344.37876724 -171.5859375 347.51171875 C-171.56723328 349.68220259 -171.54766044 351.8526791 -171.5272522 354.02314758 C-171.47584619 359.73922411 -171.43626578 365.45532424 -171.39910889 371.17150879 C-171.35912231 377.00307086 -171.30800561 382.83453405 -171.2578125 388.66601562 C-171.16095294 400.11060771 -171.07658027 411.55525552 -171 423 C-169.81062836 423.00364563 -168.62125671 423.00729126 -167.39584351 423.01104736 C-156.18384639 423.04799819 -144.97212391 423.10577208 -133.76033592 423.18390274 C-127.99629965 423.22340169 -122.2324167 423.25557845 -116.46826172 423.27099609 C-110.9048835 423.28614653 -105.34192675 423.32056396 -99.77873611 423.36830902 C-97.65692433 423.38313937 -95.53505238 423.39104196 -93.41318893 423.39188385 C-90.43955366 423.39425022 -87.46708624 423.4213041 -84.49365234 423.45410156 C-83.6175531 423.4490712 -82.74145386 423.44404083 -81.83880615 423.43885803 C-73.00290791 423.58950897 -68.37465847 428.32436528 -62.44384766 434.32910156 C-61.81874298 434.95391418 -61.19363831 435.57872681 -60.54959106 436.22247314 C-58.49963405 438.27381535 -56.45683863 440.33213392 -54.4140625 442.390625 C-52.98817987 443.82024063 -51.56185291 445.24941321 -50.13510132 446.67816162 C-46.39230291 450.4285738 -42.65555133 454.18495454 -38.92004395 457.94262695 C-35.10268648 461.78049147 -31.27961768 465.61265736 -27.45703125 469.4453125 C-19.96576604 476.95798781 -12.48087909 484.47698345 -5 492 C-0.72010853 490.34757178 2.12906926 487.12978672 5.28149414 483.9296875 C6.21148476 482.99772552 6.21148476 482.99772552 7.16026306 482.04693604 C9.20653059 479.99418267 11.24573246 477.93455082 13.28515625 475.875 C14.70663872 474.44724645 16.12863802 473.02000728 17.5511322 471.59326172 C21.29426994 467.83682165 25.03180141 464.07485676 28.76776123 460.3112793 C34.75009927 454.28582043 40.73915716 448.26705933 46.73147392 442.25152588 C48.82501355 440.14775337 50.91511194 438.04060572 53.00489807 435.93310547 C54.2857833 434.64539287 55.56677814 433.35778929 56.84790039 432.0703125 C57.71996628 431.18814056 57.71996628 431.18814056 58.60964966 430.28814697 C65.11967345 423.7597438 65.11967345 423.7597438 70.04325867 423.7215271 C71.27370407 423.70478188 71.27370407 423.70478188 72.52900696 423.68769836 C73.87336067 423.68445808 73.87336067 423.68445808 75.24487305 423.68115234 C76.19140747 423.67110672 77.13794189 423.6610611 78.11315918 423.65071106 C81.24600611 423.61978693 84.37876724 423.60281823 87.51171875 423.5859375 C89.68220259 423.56723328 91.8526791 423.54766044 94.02314758 423.5272522 C99.73922411 423.47584619 105.45532424 423.43626578 111.17150879 423.39910889 C117.00307086 423.35912231 122.83453405 423.30800561 128.66601562 423.2578125 C140.11060771 423.16095294 151.55525552 423.07658027 163 423 C162.99254257 421.80698273 162.98508514 420.61396545 162.97740173 419.38479614 C162.91284875 408.11513269 162.89585344 396.84625537 162.92484188 385.57643318 C162.938231 379.78300527 162.93514676 373.99058197 162.89379883 368.19726562 C162.85447452 362.60113043 162.85922795 357.00657562 162.89392281 351.41042709 C162.89950092 349.28070249 162.88947417 347.15087533 162.86323357 345.02130508 C162.64901601 326.25026521 162.64901601 326.25026521 167.70703125 320.48046875 C169.44338791 318.95455524 171.21087472 317.46368618 173 316 C174.60796227 314.42946937 176.17011499 312.82030765 177.7336731 311.20562744 C179.47632608 309.4089525 181.24151127 307.63761791 183.01515198 305.87155151 C183.62993471 305.25926571 184.24471745 304.6469799 184.87812996 304.01613998 C185.50744864 303.38948566 186.13676731 302.76283134 186.78515625 302.1171875 C188.09530771 300.8089056 189.40523524 299.50039942 190.71495056 298.19168091 C194.13045944 294.7799549 197.54896252 291.37124501 200.96813965 287.9631958 C204.46953749 284.47210399 207.96803769 280.97811092 211.46679688 277.484375 C218.30839593 270.65343848 225.15316783 263.82569094 232 257 C230.34917882 252.7216326 227.13221174 249.88063379 223.9296875 246.734375 C223.30837952 246.11598755 222.68707153 245.4976001 222.04693604 244.86047363 C220.6992139 243.52035401 219.34918642 242.18254972 217.99713135 240.84680176 C215.85777684 238.73298241 213.7247397 236.61297048 211.59326172 234.49121094 C207.06772733 229.98853183 202.53443049 225.49371785 198 221 C192.74556995 215.79274715 187.4943603 210.58233311 182.25152588 205.36340332 C180.14942903 203.27427828 178.04140061 201.19126547 175.93310547 199.10839844 C174.6452127 197.82777068 173.35759986 196.54686131 172.0703125 195.265625 C171.48219788 194.68784302 170.89408325 194.11006104 170.28814697 193.51477051 C166.29500297 189.52267226 163.76661558 186.61571741 163.7215271 180.87445068 C163.70478188 179.65456451 163.70478188 179.65456451 163.68769836 178.41003418 C163.68553818 177.52674438 163.68337799 176.64345459 163.68115234 175.73339844 C163.67110672 174.79647156 163.6610611 173.85954468 163.65071106 172.89422607 C163.61983568 169.79928192 163.6028317 166.70442445 163.5859375 163.609375 C163.56722937 161.4627406 163.54765623 159.31611358 163.5272522 157.16949463 C163.47588758 151.52083687 163.43628494 145.87215526 163.39910889 140.22338867 C163.35909645 134.45876138 163.3079915 128.69423368 163.2578125 122.9296875 C163.1610019 111.61986159 163.07661347 100.3099795 163 89 C161.21047409 89.01118614 161.21047409 89.01118614 159.38479614 89.02259827 C148.11513269 89.08715125 136.84625537 89.10414656 125.57643318 89.07515812 C119.78300527 89.061769 113.99058197 89.06485324 108.19726562 89.10620117 C102.60113043 89.14552548 97.00657562 89.14077205 91.41042709 89.10607719 C89.28070249 89.10049908 87.15087533 89.11052583 85.02130508 89.13676643 C66.25046655 89.35098169 66.25046655 89.35098169 60.47607422 84.29296875 C58.95076114 82.55734402 57.46139067 80.78977945 56 79 C54.43649812 77.39268286 52.83483947 75.83025506 51.22799873 74.2663269 C49.44088287 72.52365443 47.67925566 70.75844486 45.92285156 68.98484802 C43.37713141 66.41513125 40.82873136 63.84816865 38.27636719 61.28504944 C32.78194793 55.76636158 27.29348002 50.2417811 21.80908203 44.71313477 C18.43662789 41.31398684 15.05938889 37.9196552 11.67910767 34.5282917 C10.3949504 33.23791685 9.11269497 31.94564647 7.83236694 30.65147209 C6.05418255 28.85419113 4.27003313 27.06304449 2.484375 25.27319336 C1.95558243 24.73563919 1.42678986 24.19808502 0.88197327 23.64424133 C-3.16852436 19.31768574 -3.16852436 19.31768574 -7.71920776 22.49215698 Z " fill="#010302" transform="translate(260,0)"/>
<path d="M0 0 C4.27989147 1.65242822 7.12906926 4.87021328 10.28149414 8.0703125 C11.21148476 9.00227448 11.21148476 9.00227448 12.16026306 9.95306396 C14.20653059 12.00581733 16.24573246 14.06544918 18.28515625 16.125 C19.70663872 17.55275355 21.12863802 18.97999272 22.5511322 20.40673828 C26.29426994 24.16317835 30.03180141 27.92514324 33.76776123 31.6887207 C39.75009927 37.71417957 45.73915716 43.73294067 51.73147392 49.74847412 C53.82501355 51.85224663 55.91511194 53.95939428 58.00489807 56.06689453 C59.2857833 57.35460713 60.56677814 58.64221071 61.84790039 59.9296875 C62.71996628 60.81185944 62.71996628 60.81185944 63.60964966 61.71185303 C68.49178143 66.79037803 68.49178143 66.79037803 75.04325867 68.2784729 C75.8635556 68.28963638 76.68385254 68.30079987 77.52900696 68.31230164 C78.42524277 68.31446182 79.32147858 68.31662201 80.24487305 68.31884766 C81.19140747 68.32889328 82.13794189 68.3389389 83.11315918 68.34928894 C86.24600611 68.38021307 89.37876724 68.39718177 92.51171875 68.4140625 C94.68220259 68.43276672 96.8526791 68.45233956 99.02314758 68.4727478 C104.73922411 68.52415381 110.45532424 68.56373422 116.17150879 68.60089111 C122.00307086 68.64087769 127.83453405 68.69199439 133.66601562 68.7421875 C145.11060771 68.83904706 156.55525552 68.92341973 168 69 C168.00364563 70.18937164 168.00729126 71.37874329 168.01104736 72.60415649 C168.04799819 83.81615361 168.10577208 95.02787609 168.18390274 106.23966408 C168.22340169 112.00370035 168.25557845 117.7675833 168.27099609 123.53173828 C168.28614653 129.0951165 168.32056396 134.65807325 168.36830902 140.22126389 C168.38313937 142.34307567 168.39104196 144.46494762 168.39188385 146.58681107 C168.39425022 149.56044634 168.4213041 152.53291376 168.45410156 155.50634766 C168.4490712 156.3824469 168.44404083 157.25854614 168.43885803 158.16119385 C168.58950897 166.99709209 173.32436528 171.62534153 179.32910156 177.55615234 C179.95391418 178.18125702 180.57872681 178.80636169 181.22247314 179.45040894 C183.27381535 181.50036595 185.33213392 183.54316137 187.390625 185.5859375 C188.82024063 187.01182013 190.24941321 188.43814709 191.67816162 189.86489868 C195.4285738 193.60769709 199.18495454 197.34444867 202.94262695 201.07995605 C206.78049147 204.89731352 210.61265736 208.72038232 214.4453125 212.54296875 C221.95798781 220.03423396 229.47698345 227.51912091 237 235 C235.34757178 239.27989147 232.12978672 242.12906926 228.9296875 245.28149414 C228.30837952 245.90148788 227.68707153 246.52148163 227.04693604 247.16026306 C224.99418267 249.20653059 222.93455082 251.24573246 220.875 253.28515625 C219.44724645 254.70663872 218.02000728 256.12863802 216.59326172 257.5511322 C212.83682165 261.29426994 209.07485676 265.03180141 205.3112793 268.76776123 C199.28582043 274.75009927 193.26705933 280.73915716 187.25152588 286.73147392 C185.14775337 288.82501355 183.04060572 290.91511194 180.93310547 293.00489807 C179.64539287 294.2857833 178.35778929 295.56677814 177.0703125 296.84790039 C176.48219788 297.42927765 175.89408325 298.01065491 175.28814697 298.60964966 C170.20962197 303.49178143 170.20962197 303.49178143 168.7215271 310.04325867 C168.71036362 310.8635556 168.69920013 311.68385254 168.68769836 312.52900696 C168.68445808 313.87336067 168.68445808 313.87336067 168.68115234 315.24487305 C168.67110672 316.19140747 168.6610611 317.13794189 168.65071106 318.11315918 C168.61978693 321.24600611 168.60281823 324.37876724 168.5859375 327.51171875 C168.56723328 329.68220259 168.54766044 331.8526791 168.5272522 334.02314758 C168.47584619 339.73922411 168.43626578 345.45532424 168.39910889 351.17150879 C168.35912231 357.00307086 168.30800561 362.83453405 168.2578125 368.66601562 C168.16095294 380.11060771 168.07658027 391.55525552 168 403 C166.80698273 402.99254257 165.61396545 402.98508514 164.38479614 402.97740173 C153.11513269 402.91284875 141.84625537 402.89585344 130.57643318 402.92484188 C124.78300527 402.938231 118.99058197 402.93514676 113.19726562 402.89379883 C107.60113043 402.85447452 102.00657562 402.85922795 96.41042709 402.89392281 C94.28070249 402.89950092 92.15087533 402.88947417 90.02130508 402.86323357 C76.87331471 402.24603322 76.87331471 402.24603322 65.48046875 407.70703125 C63.95455524 409.44338791 62.46368618 411.21087472 61 413 C59.42946937 414.60796227 57.82030765 416.17011499 56.20562744 417.7336731 C54.4089525 419.47632608 52.63761791 421.24151127 50.87155151 423.01515198 C50.25926571 423.62993471 49.6469799 424.24471745 49.01613998 424.87812996 C48.38948566 425.50744864 47.76283134 426.13676731 47.1171875 426.78515625 C45.8089056 428.09530771 44.50039942 429.40523524 43.19168091 430.71495056 C39.7799549 434.13045944 36.37124501 437.54896252 32.9631958 440.96813965 C29.47210399 444.46953749 25.97811092 447.96803769 22.484375 451.46679688 C15.65343848 458.30839593 8.82569094 465.15316783 2 472 C-2.2783674 470.34917882 -5.11936621 467.13221174 -8.265625 463.9296875 C-8.88401245 463.30837952 -9.5023999 462.68707153 -10.13952637 462.04693604 C-11.47964599 460.6992139 -12.81745028 459.34918642 -14.15319824 457.99713135 C-16.26701759 455.85777684 -18.38702952 453.7247397 -20.50878906 451.59326172 C-25.77649907 446.29881319 -31.03330174 440.99357626 -36.29052734 435.6887207 C-40.73468432 431.20512979 -45.18289035 426.72563183 -49.63659668 422.25152588 C-51.72572172 420.14942903 -53.80873453 418.04140061 -55.89160156 415.93310547 C-57.17222932 414.6452127 -58.45313869 413.35759986 -59.734375 412.0703125 C-60.60104797 411.18814056 -60.60104797 411.18814056 -61.48522949 410.28814697 C-65.47732774 406.29500297 -68.38428259 403.76661558 -74.12554932 403.7215271 C-74.93880676 403.71036362 -75.75206421 403.69920013 -76.58996582 403.68769836 C-77.47325562 403.68553818 -78.35654541 403.68337799 -79.26660156 403.68115234 C-80.20352844 403.67110672 -81.14045532 403.6610611 -82.10577393 403.65071106 C-85.20071808 403.61983568 -88.29557555 403.6028317 -91.390625 403.5859375 C-93.5372594 403.56722937 -95.68388642 403.54765623 -97.83050537 403.5272522 C-103.47916313 403.47588758 -109.12784474 403.43628494 -114.77661133 403.39910889 C-120.54123862 403.35909645 -126.30576632 403.3079915 -132.0703125 403.2578125 C-143.38013841 403.1610019 -154.6900205 403.07661347 -166 403 C-165.99254257 401.80698273 -165.98508514 400.61396545 -165.97740173 399.38479614 C-165.91284875 388.11513269 -165.89585344 376.84625537 -165.92484188 365.57643318 C-165.938231 359.78300527 -165.93514676 353.99058197 -165.89379883 348.19726562 C-165.85447452 342.60113043 -165.85922795 337.00657562 -165.89392281 331.41042709 C-165.89950092 329.28070249 -165.88947417 327.15087533 -165.86323357 325.02130508 C-165.24603322 311.87331471 -165.24603322 311.87331471 -170.70703125 300.48046875 C-172.44338791 298.95455524 -174.21087472 297.46368618 -176 296 C-177.60796227 294.42946937 -179.17011499 292.82030765 -180.7336731 291.20562744 C-182.47632608 289.4089525 -184.24151127 287.63761791 -186.01515198 285.87155151 C-186.62993471 285.25926571 -187.24471745 284.6469799 -187.87812996 284.01613998 C-188.82210797 283.0761585 -188.82210797 283.0761585 -189.78515625 282.1171875 C-191.09530771 280.8089056 -192.40523524 279.50039942 -193.71495056 278.19168091 C-197.13045944 274.7799549 -200.54896252 271.37124501 -203.96813965 267.9631958 C-207.46953749 264.47210399 -210.96803769 260.97811092 -214.46679688 257.484375 C-221.30839593 250.65343848 -228.15316783 243.82569094 -235 237 C-233.34917882 232.7216326 -230.13221174 229.88063379 -226.9296875 226.734375 C-226.30837952 226.11598755 -225.68707153 225.4976001 -225.04693604 224.86047363 C-223.6992139 223.52035401 -222.34918642 222.18254972 -220.99713135 220.84680176 C-218.85777684 218.73298241 -216.7247397 216.61297048 -214.59326172 214.49121094 C-209.29881319 209.22350093 -203.99357626 203.96669826 -198.6887207 198.70947266 C-194.20512979 194.26531568 -189.72563183 189.81710965 -185.25152588 185.36340332 C-183.14942903 183.27427828 -181.04140061 181.19126547 -178.93310547 179.10839844 C-177.6452127 177.82777068 -176.35759986 176.54686131 -175.0703125 175.265625 C-174.48219788 174.68784302 -173.89408325 174.11006104 -173.28814697 173.51477051 C-169.29500297 169.52267226 -166.76661558 166.61571741 -166.7215271 160.87445068 C-166.71036362 160.06119324 -166.69920013 159.24793579 -166.68769836 158.41003418 C-166.68553818 157.52674438 -166.68337799 156.64345459 -166.68115234 155.73339844 C-166.67110672 154.79647156 -166.6610611 153.85954468 -166.65071106 152.89422607 C-166.61983568 149.79928192 -166.6028317 146.70442445 -166.5859375 143.609375 C-166.56722937 141.4627406 -166.54765623 139.31611358 -166.5272522 137.16949463 C-166.47588758 131.52083687 -166.43628494 125.87215526 -166.39910889 120.22338867 C-166.35909645 114.45876138 -166.3079915 108.69423368 -166.2578125 102.9296875 C-166.1610019 91.61986159 -166.07661347 80.3099795 -166 69 C-164.81062836 68.99635437 -163.62125671 68.99270874 -162.39584351 68.98895264 C-151.18384639 68.95200181 -139.97212391 68.89422792 -128.76033592 68.81609726 C-122.99629965 68.77659831 -117.2324167 68.74442155 -111.46826172 68.72900391 C-105.9048835 68.71385347 -100.34192675 68.67943604 -94.77873611 68.63169098 C-92.65692433 68.61686063 -90.53505238 68.60895804 -88.41318893 68.60811615 C-85.43955366 68.60574978 -82.46708624 68.5786959 -79.49365234 68.54589844 C-78.17950348 68.55344398 -78.17950348 68.55344398 -76.83880615 68.56114197 C-68.00290791 68.41049103 -63.37465847 63.67563472 -57.44384766 57.67089844 C-56.81874298 57.04608582 -56.19363831 56.42127319 -55.54959106 55.77752686 C-53.49963405 53.72618465 -51.45683863 51.66786608 -49.4140625 49.609375 C-47.98817987 48.17975937 -46.56185291 46.75058679 -45.13510132 45.32183838 C-41.39230291 41.5714262 -37.65555133 37.81504546 -33.92004395 34.05737305 C-30.10268648 30.21950853 -26.27961768 26.38734264 -22.45703125 22.5546875 C-14.96576604 15.04201219 -7.48087909 7.52301655 0 0 Z M-6.58154297 28.77954102 C-7.45389587 29.60567902 -8.32624878 30.43181702 -9.22503662 31.2829895 C-10.14077454 32.17960297 -11.05651245 33.07621643 -12 34 C-13.37433197 35.33295609 -13.37433197 35.33295609 -14.77642822 36.69284058 C-17.76782684 39.61965893 -20.73502173 42.56915128 -23.6953125 45.52734375 C-24.77954231 46.60835157 -25.8638434 47.68928792 -26.94821167 48.77015686 C-29.19705149 51.01306719 -31.44387512 53.25797462 -33.68945312 55.50415039 C-36.57171403 58.38651406 -39.46086462 61.26186804 -42.35170174 64.13562679 C-44.58206121 66.35491055 -46.80790435 68.57868082 -49.03246689 70.80377388 C-50.09703277 71.86715852 -51.16322332 72.92891925 -52.2310524 73.98902702 C-53.71234656 75.46058547 -55.18724429 76.9382684 -56.66064453 78.41772461 C-57.50096222 79.25661728 -58.34127991 80.09550995 -59.20706177 80.95982361 C-61.22004208 82.79770929 -61.22004208 82.79770929 -61 85 C-62.05600403 84.99111755 -63.11200806 84.98223511 -64.20001221 84.9730835 C-74.14681962 84.89203319 -84.09356013 84.83205168 -94.04062271 84.79275131 C-99.1546631 84.77186736 -104.26843713 84.74353484 -109.38232422 84.69824219 C-114.31658296 84.65481345 -119.25058535 84.63086898 -124.18502045 84.62049103 C-126.06853014 84.61309432 -127.95202564 84.59865039 -129.83542633 84.57707977 C-132.47164848 84.54808508 -135.10680838 84.54404231 -137.74316406 84.54589844 C-138.52359573 84.53151733 -139.3040274 84.51713623 -140.10810852 84.50231934 C-143.4128681 84.52753329 -145.64066329 84.78154853 -148.4876709 86.5123291 C-150.62739552 90.0320198 -150.52771568 93.26195548 -150.45410156 97.25683594 C-150.45468567 98.08647354 -150.45526978 98.91611115 -150.45587158 99.77088928 C-150.45308808 102.50914563 -150.42198411 105.24630917 -150.390625 107.984375 C-150.38316354 109.88437302 -150.37747016 111.78437874 -150.37347412 113.68438721 C-150.35821028 118.68228446 -150.31892193 123.67971586 -150.2746582 128.6774292 C-150.23372172 133.77837828 -150.21546657 138.87940271 -150.1953125 143.98046875 C-150.15242847 153.98718371 -150.08416798 163.9935531 -150 174 C-150.82357498 174.33609032 -150.82357498 174.33609032 -151.66378784 174.67897034 C-154.69429485 176.39259452 -156.95263153 178.68173306 -159.37939453 181.13647461 C-160.16549103 181.91972359 -160.16549103 181.91972359 -160.96746826 182.71879578 C-162.69417063 184.44180098 -164.41357928 186.17188818 -166.1328125 187.90234375 C-167.33263269 189.10335644 -168.53282321 190.30399927 -169.73336792 191.50428772 C-172.24641813 194.01890096 -174.75607602 196.53683513 -177.26318359 199.05737305 C-180.47724492 202.28843298 -183.69785871 205.5128621 -186.92080879 208.73505306 C-189.39863104 211.2131472 -191.87383866 213.69383884 -194.34817123 216.17541695 C-195.53491169 217.36533966 -196.72225884 218.5546576 -197.9102211 219.74336052 C-199.5691447 221.40445183 -201.22473387 223.06879446 -202.87939453 224.73413086 C-203.37085968 225.22514282 -203.86232483 225.71615479 -204.36868286 226.2220459 C-208.75587709 230.46017103 -208.75587709 230.46017103 -210.0625 236.1875 C-207.4469424 245.5727361 -197.24404984 252.91924782 -190.44921875 259.71875 C-189.34293079 260.82825713 -188.23671562 261.93783685 -187.13056946 263.04748535 C-184.82863641 265.35536467 -182.52468846 267.66121043 -180.21948242 269.96582031 C-177.2608337 272.92436652 -174.30917631 275.88978644 -171.35914898 278.85692596 C-169.0849618 281.14219301 -166.8062835 283.42293985 -164.52628517 285.70240784 C-163.43499006 286.79488488 -162.34532046 287.88898815 -161.25729942 288.98472595 C-159.74481297 290.50695054 -158.22619506 292.02277909 -156.70581055 293.53710938 C-155.41177559 294.83328186 -155.41177559 294.83328186 -154.09159851 296.15563965 C-152.21475624 298.22046205 -152.21475624 298.22046205 -150 298 C-150.01332367 299.58400604 -150.01332367 299.58400604 -150.0269165 301.20001221 C-150.10796681 311.14681962 -150.16794832 321.09356013 -150.20724869 331.04062271 C-150.22813264 336.1546631 -150.25646516 341.26843713 -150.30175781 346.38232422 C-150.34518655 351.31658296 -150.36913102 356.25058535 -150.37950897 361.18502045 C-150.38690568 363.06853014 -150.40134961 364.95202564 -150.42292023 366.83542633 C-150.45191492 369.47164848 -150.45595769 372.10680838 -150.45410156 374.74316406 C-150.46848267 375.52359573 -150.48286377 376.3040274 -150.49768066 377.10810852 C-150.47246671 380.4128681 -150.21845147 382.64066329 -148.4876709 385.4876709 C-144.9679802 387.62739552 -141.73804452 387.52771568 -137.74316406 387.45410156 C-136.91352646 387.45468567 -136.08388885 387.45526978 -135.22911072 387.45587158 C-132.49085437 387.45308808 -129.75369083 387.42198411 -127.015625 387.390625 C-125.11562698 387.38316354 -123.21562126 387.37747016 -121.31561279 387.37347412 C-116.31771554 387.35821028 -111.32028414 387.31892193 -106.3225708 387.2746582 C-101.22162172 387.23372172 -96.12059729 387.21546657 -91.01953125 387.1953125 C-81.01281629 387.15242847 -71.0064469 387.08416798 -61 387 C-60.77593979 387.54904999 -60.55187958 388.09809998 -60.32102966 388.66378784 C-58.60740548 391.69429485 -56.31826694 393.95263153 -53.86352539 396.37939453 C-53.34135941 396.90345886 -52.81919342 397.42752319 -52.28120422 397.96746826 C-50.55819902 399.69417063 -48.82811182 401.41357928 -47.09765625 403.1328125 C-45.89664356 404.33263269 -44.69600073 405.53282321 -43.49571228 406.73336792 C-40.98109904 409.24641813 -38.46316487 411.75607602 -35.94262695 414.26318359 C-32.71156702 417.47724492 -29.4871379 420.69785871 -26.26494694 423.92080879 C-23.7868528 426.39863104 -21.30616116 428.87383866 -18.82458305 431.34817123 C-17.63466034 432.53491169 -16.4453424 433.72225884 -15.25663948 434.9102211 C-13.59554817 436.5691447 -11.93120554 438.22473387 -10.26586914 439.87939453 C-9.77485718 440.37085968 -9.28384521 440.86232483 -8.7779541 441.36868286 C-4.53982897 445.75587709 -4.53982897 445.75587709 1.1875 447.0625 C10.5727361 444.4469424 17.91924782 434.24404984 24.71875 427.44921875 C25.82825713 426.34293079 26.93783685 425.23671562 28.04748535 424.13056946 C30.35536467 421.82863641 32.66121043 419.52468846 34.96582031 417.21948242 C37.92436652 414.2608337 40.88978644 411.30917631 43.85692596 408.35914898 C46.14219301 406.0849618 48.42293985 403.8062835 50.70240784 401.52628517 C51.79488488 400.43499006 52.88898815 399.34532046 53.98472595 398.25729942 C55.50695054 396.74481297 57.02277909 395.22619506 58.53710938 393.70581055 C59.83328186 392.41177559 59.83328186 392.41177559 61.15563965 391.09159851 C63.22046205 389.21475624 63.22046205 389.21475624 63 387 C64.58400604 387.01332367 64.58400604 387.01332367 66.20001221 387.0269165 C76.14681962 387.10796681 86.09356013 387.16794832 96.04062271 387.20724869 C101.1546631 387.22813264 106.26843713 387.25646516 111.38232422 387.30175781 C116.31658296 387.34518655 121.25058535 387.36913102 126.18502045 387.37950897 C128.06853014 387.38690568 129.95202564 387.40134961 131.83542633 387.42292023 C134.47164848 387.45191492 137.10680838 387.45595769 139.74316406 387.45410156 C140.91381157 387.47567322 140.91381157 387.47567322 142.10810852 387.49768066 C145.4128681 387.47246671 147.64066329 387.21845147 150.4876709 385.4876709 C152.62739552 381.9679802 152.52771568 378.73804452 152.45410156 374.74316406 C152.45468567 373.91352646 152.45526978 373.08388885 152.45587158 372.22911072 C152.45308808 369.49085437 152.42198411 366.75369083 152.390625 364.015625 C152.38316354 362.11562698 152.37747016 360.21562126 152.37347412 358.31561279 C152.35821028 353.31771554 152.31892193 348.32028414 152.2746582 343.3225708 C152.23372172 338.22162172 152.21546657 333.12059729 152.1953125 328.01953125 C152.15242847 318.01281629 152.08416798 308.0064469 152 298 C152.54904999 297.77561249 153.09809998 297.55122498 153.66378784 297.32003784 C156.69084323 295.60965052 158.95175254 293.32720042 161.37939453 290.87939453 C161.90345886 290.35883484 162.42752319 289.83827515 162.96746826 289.30194092 C164.69430711 287.58388748 166.4137471 285.8586414 168.1328125 284.1328125 C169.33270523 282.93426733 170.5328947 281.73601916 171.73336792 280.53805542 C174.24657339 278.0277969 176.75612999 275.5139607 179.26318359 272.99755859 C182.4755329 269.7738151 185.69677677 266.55913298 188.92080879 263.34707832 C191.40026032 260.87485693 193.87492464 258.39788782 196.34817123 255.9194603 C197.53402812 254.73227011 198.72137012 253.54656143 199.9102211 252.36236954 C201.57150279 250.70617192 203.22622982 249.04368908 204.87939453 247.37939453 C205.61659225 246.6482695 205.61659225 246.6482695 206.36868286 245.90237427 C209.6237604 242.60662278 211.68436382 240.15274729 212.36122131 235.53634644 C211.87781525 232.14206932 210.57922954 230.88460021 208.22045898 228.41845703 C207.39432098 227.54610413 206.56818298 226.67375122 205.7170105 225.77496338 C204.3720903 224.40135651 204.3720903 224.40135651 203 223 C202.11136261 222.08377869 201.22272522 221.16755737 200.30715942 220.22357178 C197.38034107 217.23217316 194.43084872 214.26497827 191.47265625 211.3046875 C190.39164843 210.22045769 189.31071208 209.1361566 188.22984314 208.05178833 C185.98693281 205.80294851 183.74202538 203.55612488 181.49584961 201.31054688 C178.61348594 198.42828597 175.73813196 195.53913538 172.86437321 192.64829826 C170.64508945 190.41793879 168.42131918 188.19209565 166.19622612 185.96753311 C165.13284148 184.90296723 164.07108075 183.83677668 163.01097298 182.7689476 C161.53941453 181.28765344 160.0617316 179.81275571 158.58227539 178.33935547 C157.74338272 177.49903778 156.90449005 176.65872009 156.04017639 175.79293823 C154.20229071 173.77995792 154.20229071 173.77995792 152 174 C152.00888245 172.94399597 152.01776489 171.88799194 152.0269165 170.79998779 C152.10796681 160.85318038 152.16794832 150.90643987 152.20724869 140.95937729 C152.22813264 135.8453369 152.25646516 130.73156287 152.30175781 125.61767578 C152.34518655 120.68341704 152.36913102 115.74941465 152.37950897 110.81497955 C152.38690568 108.93146986 152.40134961 107.04797436 152.42292023 105.16457367 C152.45191492 102.52835152 152.45595769 99.89319162 152.45410156 97.25683594 C152.47567322 96.08618843 152.47567322 96.08618843 152.49768066 94.89189148 C152.47246671 91.5871319 152.21845147 89.35933671 150.4876709 86.5123291 C146.9679802 84.37260448 143.73804452 84.47228432 139.74316406 84.54589844 C138.91352646 84.54531433 138.08388885 84.54473022 137.22911072 84.54412842 C134.49085437 84.54691192 131.75369083 84.57801589 129.015625 84.609375 C127.11562698 84.61683646 125.21562126 84.62252984 123.31561279 84.62652588 C118.31771554 84.64178972 113.32028414 84.68107807 108.3225708 84.7253418 C103.22162172 84.76627828 98.12059729 84.78453343 93.01953125 84.8046875 C83.01281629 84.84757153 73.0064469 84.91583202 63 85 C62.77561249 84.45095001 62.55122498 83.90190002 62.32003784 83.33621216 C60.60965052 80.30915677 58.32720042 78.04824746 55.87939453 75.62060547 C55.35883484 75.09654114 54.83827515 74.57247681 54.30194092 74.03253174 C52.58388748 72.30569289 50.8586414 70.5862529 49.1328125 68.8671875 C47.93426733 67.66729477 46.73601916 66.4671053 45.53805542 65.26663208 C43.0277969 62.75342661 40.5139607 60.24387001 37.99755859 57.73681641 C34.7738151 54.5244671 31.55913298 51.30322323 28.34707832 48.07919121 C25.87485693 45.59973968 23.39788782 43.12507536 20.9194603 40.65182877 C19.73227011 39.46597188 18.54656143 38.27862988 17.36236954 37.0897789 C15.70617192 35.42849721 14.04368908 33.77377018 12.37939453 32.12060547 C11.6482695 31.38340775 11.6482695 31.38340775 10.90237427 30.63131714 C7.60662278 27.3762396 5.15274729 25.31563618 0.53634644 24.63877869 C-2.85793068 25.12218475 -4.11539979 26.42077046 -6.58154297 28.77954102 Z " fill="#0BD2A5" transform="translate(255,20)"/>
<path d="M0 0 C7.9873261 5.37972474 16.12168305 10.51605051 24.3203125 15.56640625 C25.43664062 16.25992188 26.55296875 16.9534375 27.703125 17.66796875 C59.49410786 36.64882584 95.13014714 47.78075024 131.3203125 54.56640625 C131.3203125 60.17640625 131.3203125 65.78640625 131.3203125 71.56640625 C128.99935547 71.5600415 126.67839844 71.55367676 124.28710938 71.54711914 C116.59955262 71.53114258 108.91245061 71.55365633 101.22499847 71.59487247 C96.56611512 71.61867819 91.9079457 71.62971067 87.24902344 71.61108398 C82.74871298 71.59356918 78.24968203 71.61021847 73.74952698 71.65008354 C72.03685205 71.65934355 70.32406561 71.65650617 68.61143494 71.64109993 C58.10054713 71.19323538 58.10054713 71.19323538 48.91015625 75.42382812 C47.6854651 76.77984828 46.49129182 78.16374218 45.3203125 79.56640625 C43.55952094 81.31090806 41.78695683 83.04356911 40.00585938 84.76733398 C38.00975398 86.75441494 36.02546456 88.75322422 34.0390625 90.75 C32.97454478 91.8163871 31.90980288 92.88255044 30.84484863 93.94850159 C28.06767417 96.72946032 25.29351825 99.51341069 22.52001953 102.29803467 C19.67925612 105.14910105 16.83559378 107.99727294 13.9921875 110.84570312 C8.4320842 116.41647143 2.87517232 121.99040944 -2.6796875 127.56640625 C-6.53653272 125.98140762 -8.95912797 123.52207692 -11.87548828 120.58178711 C-12.38004547 120.07591568 -12.88460266 119.57004425 -13.40444946 119.04884338 C-15.06595083 117.38086707 -16.72036259 115.70603311 -18.375 114.03125 C-19.52983443 112.87014357 -20.68518659 111.70955185 -21.84103394 110.54945374 C-24.87929234 107.49790463 -27.91193006 104.44083551 -30.94299316 101.38214111 C-35.8004823 96.48149482 -40.6647401 91.58758928 -45.53222275 86.6968708 C-47.23303657 84.98581558 -48.93040764 83.27139851 -50.62747192 81.55662537 C-51.66575835 80.51151307 -52.70415368 79.46650896 -53.74267578 78.42163086 C-54.64994415 77.50610947 -55.55721252 76.59058807 -56.49197388 75.64732361 C-60.18184338 72.13758018 -63.20479191 72.39983354 -68.06689453 72.36108398 C-68.82796509 72.35118439 -69.58903564 72.34128479 -70.37316895 72.33108521 C-72.89458074 72.29943947 -75.41601138 72.27470068 -77.9375 72.25 C-79.68342586 72.22943312 -81.42934672 72.20843672 -83.17526245 72.18702698 C-87.77508492 72.13177879 -92.37495253 72.08238165 -96.97485352 72.03417969 C-101.66687039 71.9839847 -106.35882155 71.9282882 -111.05078125 71.87304688 C-120.26036056 71.76543171 -129.46999687 71.66399421 -138.6796875 71.56640625 C-138.6766713 70.6069812 -138.67365509 69.64755615 -138.67054749 68.65905762 C-138.64662357 59.59614113 -138.65956354 50.53391835 -138.70815372 41.47109222 C-138.73195944 36.81220887 -138.74299192 32.15403945 -138.72436523 27.49511719 C-138.70685043 22.99480673 -138.72349972 18.49577578 -138.76336479 13.99562073 C-138.7726248 12.2829458 -138.76978742 10.57015936 -138.75438118 8.85752869 C-138.34686259 -1.89554422 -138.34686259 -1.89554422 -142.91992188 -11.2265625 C-144.14260562 -12.33040866 -145.39409593 -13.40369754 -146.6796875 -14.43359375 C-147.54779053 -15.33916016 -148.41589355 -16.24472656 -149.31030273 -17.17773438 C-150.11153564 -17.97373047 -150.91276855 -18.76972656 -151.73828125 -19.58984375 C-152.61806641 -20.46640625 -153.49785156 -21.34296875 -154.40429688 -22.24609375 C-155.29955078 -23.13296875 -156.19480469 -24.01984375 -157.1171875 -24.93359375 C-158.03951172 -25.85140625 -158.96183594 -26.76921875 -159.91210938 -27.71484375 C-162.16568649 -29.9567443 -164.42157825 -32.19625975 -166.6796875 -34.43359375 C-166.3496875 -35.09359375 -166.0196875 -35.75359375 -165.6796875 -36.43359375 C-107.41560188 -49.42088482 -48.19622073 -32.53277787 0 0 Z " fill="#FED1A5" transform="translate(259.6796875,319.43359375)"/>
<path d="M0 0 C14.02111628 10.61388697 25.73070272 25.77160371 28.234375 43.69140625 C28.52701227 49.02690239 28.41519059 54.35399792 28.234375 59.69140625 C26.92712794 60.12773782 25.61982384 60.56389851 24.3125 61 C23.0740332 61.41354736 23.0740332 61.41354736 21.81054688 61.83544922 C20.19351172 62.37272417 18.57520027 62.90618876 16.95507812 63.43408203 C-0.35744008 69.08522062 -17.21556468 75.95453581 -32.171875 86.48828125 C-34.765625 87.69140625 -34.765625 87.69140625 -37.08984375 87.1875 C-38.41435547 86.44693359 -38.41435547 86.44693359 -39.765625 85.69140625 C-40.36648926 85.36060059 -40.96735352 85.02979492 -41.58642578 84.68896484 C-43.76219373 83.48066722 -45.91941566 82.24239655 -48.078125 81.00390625 C-56.42381613 76.29070446 -64.91157838 72.34064314 -73.765625 68.69140625 C-74.65378906 68.30339844 -75.54195312 67.91539062 -76.45703125 67.515625 C-82.11867525 65.09986586 -87.8938454 63.48783179 -93.85375977 61.99731445 C-98.67106373 60.78596752 -98.67106373 60.78596752 -99.765625 59.69140625 C-101.06485245 42.75885173 -97.12400781 26.85769723 -86.21875 13.45703125 C-77.97196575 3.85424701 -68.56636349 -2.7324551 -56.765625 -7.30859375 C-55.5590625 -7.79005859 -55.5590625 -7.79005859 -54.328125 -8.28125 C-36.41750669 -14.29809834 -15.55907626 -10.27435553 0 0 Z " fill="#FDE959" transform="translate(291.765625,210.30859375)"/>
<path d="M0 0 C4.27989147 1.65242822 7.12906926 4.87021328 10.28149414 8.0703125 C11.21148476 9.00227448 11.21148476 9.00227448 12.16026306 9.95306396 C14.20653059 12.00581733 16.24573246 14.06544918 18.28515625 16.125 C19.70663872 17.55275355 21.12863802 18.97999272 22.5511322 20.40673828 C26.29426994 24.16317835 30.03180141 27.92514324 33.76776123 31.6887207 C39.75009927 37.71417957 45.73915716 43.73294067 51.73147392 49.74847412 C53.82501355 51.85224663 55.91511194 53.95939428 58.00489807 56.06689453 C59.2857833 57.35460713 60.56677814 58.64221071 61.84790039 59.9296875 C62.71996628 60.81185944 62.71996628 60.81185944 63.60964966 61.71185303 C68.49178143 66.79037803 68.49178143 66.79037803 75.04325867 68.2784729 C75.8635556 68.28963638 76.68385254 68.30079987 77.52900696 68.31230164 C78.42524277 68.31446182 79.32147858 68.31662201 80.24487305 68.31884766 C81.19140747 68.32889328 82.13794189 68.3389389 83.11315918 68.34928894 C86.24600611 68.38021307 89.37876724 68.39718177 92.51171875 68.4140625 C94.68220259 68.43276672 96.8526791 68.45233956 99.02314758 68.4727478 C104.73922411 68.52415381 110.45532424 68.56373422 116.17150879 68.60089111 C122.00307086 68.64087769 127.83453405 68.69199439 133.66601562 68.7421875 C145.11060771 68.83904706 156.55525552 68.92341973 168 69 C168 71.64 168 74.28 168 77 C152.55858582 78.98824083 137.11391516 80.31143652 121.5625 81.0625 C120.41853886 81.11814117 119.27457771 81.17378235 118.09595108 81.23110962 C88.92453742 82.48451821 65.74327185 80.55874943 43.4544735 60.38612556 C38.08180656 55.34321297 33.07843307 50.00773874 28.1875 44.5 C27.49669971 43.72274189 26.80589943 42.94548378 26.0941658 42.14467239 C17.56778369 32.46592781 9.56712314 22.44346815 2 12 C-2.17480105 13.53111088 -4.21751276 16.55825235 -6.76147461 20.01025391 C-49.51334269 76.20070964 -49.51334269 76.20070964 -80.2512579 80.40720367 C-91.97661151 81.65234157 -103.67771752 81.53748502 -115.4375 80.9375 C-116.49591473 80.8837043 -117.55432945 80.8299086 -118.64481735 80.77448273 C-131.82981162 80.05329397 -144.91809667 78.78513131 -158 77 C-157.85566025 78.02077133 -157.7113205 79.04154266 -157.56260681 80.09324646 C-155.77535869 93.1690944 -154.63158975 106.25910684 -153.9375 119.4375 C-153.88185883 120.48644314 -153.82621765 121.53538628 -153.76889038 122.61611557 C-152.53627576 148.93367039 -154.445372 170.3602305 -172.47265625 190.6484375 C-178.1631401 196.88858859 -184.21563549 202.67616975 -190.5 208.3125 C-191.66588717 209.35897264 -191.66588717 209.35897264 -192.85532761 210.42658615 C-202.55935538 219.06675588 -212.58887301 227.22918683 -223 235 C-221.46888912 239.17480105 -218.44174765 241.21751276 -214.98974609 243.76147461 C-158.79929036 286.51334269 -158.79929036 286.51334269 -154.59279633 317.2512579 C-153.34765843 328.97661151 -153.46251498 340.67771752 -154.0625 352.4375 C-154.1162957 353.49591473 -154.1700914 354.55432945 -154.22551727 355.64481735 C-154.94670603 368.82981162 -156.21486869 381.91809667 -158 395 C-156.99255234 394.84233658 -155.98510468 394.68467316 -154.9471283 394.52223206 C-141.99131655 392.56321182 -129.01771414 391.31868767 -115.9375 390.5625 C-114.89369297 390.50172272 -113.84988594 390.44094543 -112.77444839 390.37832642 C-85.26237452 388.96470936 -64.01621049 391.97091507 -43.015625 410.80859375 C-36.22113805 417.0510524 -29.87878392 423.66330271 -23.6875 430.5 C-22.91810467 431.34900501 -22.14870934 432.19801003 -21.35599899 433.07274246 C-11.79484521 443.70056877 -2.70526572 454.66245601 6 466 C4.95125002 468.62187494 4.35068687 469.79371361 1.875 471.25 C1.25625 471.4975 0.6375 471.745 0 472 C-0.81797058 471.1775882 -1.63594116 470.35517639 -2.47869873 469.50784302 C-10.18347574 461.76254353 -17.89351242 454.02251448 -25.60874557 446.28763008 C-29.57516284 442.31077036 -33.53969599 438.3320694 -37.5 434.34912109 C-41.32111845 430.50629101 -45.14708479 426.66835007 -48.97647858 422.83376694 C-50.43747354 421.36907322 -51.89670543 419.90261873 -53.35414886 418.43439102 C-55.39391135 416.3801362 -57.43982126 414.33219988 -59.48730469 412.28564453 C-60.09007233 411.67568634 -60.69283997 411.06572815 -61.31387329 410.43728638 C-61.87470612 409.87920288 -62.43553894 409.32111938 -63.0133667 408.74612427 C-63.49638622 408.26126116 -63.97940575 407.77639805 -64.47706223 407.27684212 C-67.52725983 404.71953424 -70.16905053 403.75259908 -74.12554932 403.7215271 C-74.93880676 403.71036362 -75.75206421 403.69920013 -76.58996582 403.68769836 C-77.47325562 403.68553818 -78.35654541 403.68337799 -79.26660156 403.68115234 C-80.20352844 403.67110672 -81.14045532 403.6610611 -82.10577393 403.65071106 C-85.20071808 403.61983568 -88.29557555 403.6028317 -91.390625 403.5859375 C-93.5372594 403.56722937 -95.68388642 403.54765623 -97.83050537 403.5272522 C-103.47916313 403.47588758 -109.12784474 403.43628494 -114.77661133 403.39910889 C-120.54123862 403.35909645 -126.30576632 403.3079915 -132.0703125 403.2578125 C-143.38013841 403.1610019 -154.6900205 403.07661347 -166 403 C-165.99254257 401.80698273 -165.98508514 400.61396545 -165.97740173 399.38479614 C-165.91284875 388.11513269 -165.89585344 376.84625537 -165.92484188 365.57643318 C-165.938231 359.78300527 -165.93514676 353.99058197 -165.89379883 348.19726562 C-165.85447452 342.60113043 -165.85922795 337.00657562 -165.89392281 331.41042709 C-165.89950092 329.28070249 -165.88947417 327.15087533 -165.86323357 325.02130508 C-165.24603322 311.87331471 -165.24603322 311.87331471 -170.70703125 300.48046875 C-172.44338791 298.95455524 -174.21087472 297.46368618 -176 296 C-177.60796227 294.42946937 -179.17011499 292.82030765 -180.7336731 291.20562744 C-182.47632608 289.4089525 -184.24151127 287.63761791 -186.01515198 285.87155151 C-186.62993471 285.25926571 -187.24471745 284.6469799 -187.87812996 284.01613998 C-188.82210797 283.0761585 -188.82210797 283.0761585 -189.78515625 282.1171875 C-191.09530771 280.8089056 -192.40523524 279.50039942 -193.71495056 278.19168091 C-197.13045944 274.7799549 -200.54896252 271.37124501 -203.96813965 267.9631958 C-207.46953749 264.47210399 -210.96803769 260.97811092 -214.46679688 257.484375 C-221.30839593 250.65343848 -228.15316783 243.82569094 -235 237 C-233.34917882 232.7216326 -230.13221174 229.88063379 -226.9296875 226.734375 C-226.30837952 226.11598755 -225.68707153 225.4976001 -225.04693604 224.86047363 C-223.6992139 223.52035401 -222.34918642 222.18254972 -220.99713135 220.84680176 C-218.85777684 218.73298241 -216.7247397 216.61297048 -214.59326172 214.49121094 C-209.29881319 209.22350093 -203.99357626 203.96669826 -198.6887207 198.70947266 C-194.20512979 194.26531568 -189.72563183 189.81710965 -185.25152588 185.36340332 C-183.14942903 183.27427828 -181.04140061 181.19126547 -178.93310547 179.10839844 C-177.6452127 177.82777068 -176.35759986 176.54686131 -175.0703125 175.265625 C-174.48219788 174.68784302 -173.89408325 174.11006104 -173.28814697 173.51477051 C-169.29500297 169.52267226 -166.76661558 166.61571741 -166.7215271 160.87445068 C-166.71036362 160.06119324 -166.69920013 159.24793579 -166.68769836 158.41003418 C-166.68553818 157.52674438 -166.68337799 156.64345459 -166.68115234 155.73339844 C-166.67110672 154.79647156 -166.6610611 153.85954468 -166.65071106 152.89422607 C-166.61983568 149.79928192 -166.6028317 146.70442445 -166.5859375 143.609375 C-166.56722937 141.4627406 -166.54765623 139.31611358 -166.5272522 137.16949463 C-166.47588758 131.52083687 -166.43628494 125.87215526 -166.39910889 120.22338867 C-166.35909645 114.45876138 -166.3079915 108.69423368 -166.2578125 102.9296875 C-166.1610019 91.61986159 -166.07661347 80.3099795 -166 69 C-164.81062836 68.99635437 -163.62125671 68.99270874 -162.39584351 68.98895264 C-151.18384639 68.95200181 -139.97212391 68.89422792 -128.76033592 68.81609726 C-122.99629965 68.77659831 -117.2324167 68.74442155 -111.46826172 68.72900391 C-105.9048835 68.71385347 -100.34192675 68.67943604 -94.77873611 68.63169098 C-92.65692433 68.61686063 -90.53505238 68.60895804 -88.41318893 68.60811615 C-85.43955366 68.60574978 -82.46708624 68.5786959 -79.49365234 68.54589844 C-78.17950348 68.55344398 -78.17950348 68.55344398 -76.83880615 68.56114197 C-68.00290791 68.41049103 -63.37465847 63.67563472 -57.44384766 57.67089844 C-56.81874298 57.04608582 -56.19363831 56.42127319 -55.54959106 55.77752686 C-53.49963405 53.72618465 -51.45683863 51.66786608 -49.4140625 49.609375 C-47.98817987 48.17975937 -46.56185291 46.75058679 -45.13510132 45.32183838 C-41.39230291 41.5714262 -37.65555133 37.81504546 -33.92004395 34.05737305 C-30.10268648 30.21950853 -26.27961768 26.38734264 -22.45703125 22.5546875 C-14.96576604 15.04201219 -7.48087909 7.52301655 0 0 Z " fill="#6AE4C9" transform="translate(255,20)"/>
<path d="M0 0 C0.99 0.99 0.99 0.99 2 2 C0.82642944 3.16571533 0.82642944 3.16571533 -0.37084961 4.35498047 C-3.26757887 7.23363601 -6.16101896 10.11557822 -9.0534668 12.99853516 C-10.30680012 14.24683371 -11.56102868 15.49423407 -12.81616211 16.74072266 C-14.61807502 18.53053264 -16.41676427 20.32352745 -18.21484375 22.1171875 C-18.77840073 22.67558319 -19.3419577 23.23397888 -19.92259216 23.80929565 C-23.58804506 27.47421661 -25.10473825 29.21375621 -25.20532227 34.35791016 C-25.22526749 35.25869293 -25.24521271 36.15947571 -25.26576233 37.08755493 C-25.28247482 38.06155243 -25.29918732 39.03554993 -25.31640625 40.0390625 C-25.3475779 41.53305069 -25.3475779 41.53305069 -25.37937927 43.05722046 C-25.44489042 46.24640854 -25.50376704 49.43568058 -25.5625 52.625 C-25.60568373 54.78386293 -25.64929797 56.9427173 -25.69335938 59.1015625 C-25.80057336 64.4009523 -25.90233685 69.70042606 -26 75 C-34.88394848 73.89772015 -43.40090249 72.36367834 -52 69.875 C-53.0717749 69.56788086 -54.1435498 69.26076172 -55.24780273 68.94433594 C-82.38894832 61.01073951 -107.83438731 49.67404611 -132 35 C-132.6820752 34.59056152 -133.36415039 34.18112305 -134.06689453 33.75927734 C-141.56019869 29.22259332 -141.56019869 29.22259332 -144 27 C-144 25.68 -144 24.36 -144 23 C-131.02103583 15.82756836 -118.15311054 9.49141676 -104 5 C-102.79472656 4.61328125 -101.58945312 4.2265625 -100.34765625 3.828125 C-70.15013108 -4.69669209 -30.65447215 -7.98407996 0 0 Z " fill="#FDD0A4" transform="translate(417,283)"/>
<path d="M0 0 C3.85684522 1.58499863 6.27944047 4.04432933 9.19580078 6.98461914 C9.70035797 7.49049057 10.20491516 7.996362 10.72476196 8.51756287 C12.38626333 10.18553918 14.04067509 11.86037314 15.6953125 13.53515625 C16.85014693 14.69626268 18.00549909 15.8568544 19.16134644 17.01695251 C22.19960484 20.06850162 25.23224256 23.12557074 28.26330566 26.18426514 C33.1207948 31.08491143 37.9850526 35.97881697 42.85253525 40.86953545 C44.55334907 42.58059067 46.25072014 44.29500774 47.94778442 46.00978088 C48.98607085 47.05489318 50.02446618 48.09989729 51.06298828 49.14477539 C51.97025665 50.06029678 52.87752502 50.97581818 53.81228638 51.91908264 C57.50215588 55.42882607 60.52510441 55.16657271 65.38720703 55.20532227 C66.14827759 55.21522186 66.90934814 55.22512146 67.69348145 55.23532104 C70.21489324 55.26696678 72.73632388 55.29170557 75.2578125 55.31640625 C77.00373836 55.33697313 78.74965922 55.35796953 80.49557495 55.37937927 C85.09539742 55.43462746 89.69526503 55.4840246 94.29516602 55.53222656 C98.98718289 55.58242155 103.67913405 55.63811805 108.37109375 55.69335938 C117.58067306 55.80097454 126.79030937 55.90241204 136 56 C136 58.64 136 61.28 136 64 C123.44429192 65.59002174 110.89155418 66.6488292 98.25 67.25 C97.32057838 67.29451294 96.39115677 67.33902588 95.43357086 67.3848877 C71.92782665 68.37945393 53.06965568 66.96652636 35.08122253 50.70890045 C30.78205506 46.67727485 26.78287718 42.40896542 22.875 38 C22.04758049 37.06729027 22.04758049 37.06729027 21.20344543 36.11573792 C14.3971295 28.37399151 8.02679025 20.36485953 2 12 C-1.77100049 13.49914468 -3.47401592 15.59017977 -5.86962891 18.81689453 C-39.93695415 63.40002287 -39.93695415 63.40002287 -64.12467384 66.7022419 C-73.45531199 67.69085155 -82.76701273 67.60040509 -92.125 67.125 C-92.96734444 67.08233253 -93.80968887 67.03966507 -94.6775589 66.99570465 C-105.17234176 66.42335925 -115.58616839 65.41689592 -126 64 C-125.98223511 64.92406143 -125.96447021 65.84812286 -125.94616699 66.80018616 C-125.78562308 75.52446772 -125.66394783 84.2482507 -125.58550262 92.97367191 C-125.54381552 97.45924643 -125.48731097 101.94359682 -125.39648438 106.4284668 C-125.30931916 110.7598357 -125.26167715 115.09003028 -125.24098206 119.42220879 C-125.22624213 121.07172569 -125.19745585 122.72118092 -125.15415955 124.37019539 C-124.83060139 137.20843787 -124.83060139 137.20843787 -127.46838379 141.24961853 C-129.53901039 143.04576695 -131.71863266 144.48235525 -134 146 C-135.68262988 147.5761871 -137.32969962 149.1908497 -138.94726562 150.83374023 C-139.82757446 151.7141246 -140.7078833 152.59450897 -141.61486816 153.50157166 C-142.53602417 154.42788895 -143.45718018 155.35420624 -144.40625 156.30859375 C-145.38108645 157.2853001 -146.35614749 158.26178234 -147.3314209 159.23805237 C-149.87186301 161.78227461 -152.40928509 164.32948736 -154.94604492 166.87738037 C-157.54551127 169.48715882 -160.14788494 172.09403482 -162.75 174.70117188 C-167.83614918 179.79797872 -172.9191047 184.89795508 -178 190 C-176.4247116 193.32961648 -174.70501485 195.53661488 -172.0625 198.125 C-171.02802734 199.14980469 -171.02802734 199.14980469 -169.97265625 200.1953125 C-167.92738988 202.15844574 -167.92738988 202.15844574 -165 204 C-168.8190889 205.85498604 -171.7665937 206.6068698 -176 206 C-181.45907445 202.31466759 -185.7803038 197.00352633 -190 192 C-188.41500137 188.14315478 -185.95567067 185.72055953 -183.01538086 182.80419922 C-182.50950943 182.29964203 -182.003638 181.79508484 -181.48243713 181.27523804 C-179.81446082 179.61373667 -178.13962686 177.95932491 -176.46484375 176.3046875 C-175.30373732 175.14985307 -174.1431456 173.99450091 -172.98304749 172.83865356 C-169.93149838 169.80039516 -166.87442926 166.76775744 -163.81573486 163.73669434 C-158.91508857 158.8792052 -154.02118303 154.0149474 -149.13046455 149.14746475 C-147.41940933 147.44665093 -145.70499226 145.74927986 -143.99021912 144.05221558 C-142.94510682 143.01392915 -141.90010271 141.97553382 -140.85522461 140.93701172 C-139.93970322 140.02974335 -139.02418182 139.12247498 -138.08091736 138.18771362 C-134.57117393 134.49784412 -134.83342729 131.47489559 -134.79467773 126.61279297 C-134.78477814 125.85172241 -134.77487854 125.09065186 -134.76467896 124.30651855 C-134.73303322 121.78510676 -134.70829443 119.26367612 -134.68359375 116.7421875 C-134.66302687 114.99626164 -134.64203047 113.25034078 -134.62062073 111.50442505 C-134.56537254 106.90460258 -134.5159754 102.30473497 -134.46777344 97.70483398 C-134.41757845 93.01281711 -134.36188195 88.32086595 -134.30664062 83.62890625 C-134.19902546 74.41932694 -134.09758796 65.20969063 -134 56 C-133.04057495 56.0030162 -132.0811499 56.00603241 -131.09265137 56.00914001 C-122.02973488 56.03306393 -112.9675121 56.02012396 -103.90468597 55.97153378 C-99.24580262 55.94772806 -94.5876332 55.93669558 -89.92871094 55.95532227 C-85.42840048 55.97283707 -80.92936953 55.95618778 -76.42921448 55.91632271 C-74.71653955 55.9070627 -73.00375311 55.90990008 -71.29112244 55.92530632 C-60.78023463 56.37317087 -60.78023463 56.37317087 -51.58984375 52.14257812 C-50.3651526 50.78655797 -49.17097932 49.40266407 -48 48 C-46.23920844 46.25549819 -44.46664433 44.52283714 -42.68554688 42.79907227 C-40.68944148 40.81199131 -38.70515206 38.81318203 -36.71875 36.81640625 C-35.65423228 35.75001915 -34.58949038 34.68385581 -33.52453613 33.61790466 C-30.74736167 30.83694593 -27.97320575 28.05299556 -25.19970703 25.26837158 C-22.35894362 22.4173052 -19.51528128 19.56913331 -16.671875 16.72070312 C-11.1117717 11.14993482 -5.55485982 5.57599681 0 0 Z " fill="#F5A82F" transform="translate(255,65)"/>
<path d="M0 0 C1.61206055 1.43579102 1.61206055 1.43579102 3.19921875 3.44140625 C7.14550682 8.21971128 11.42132553 12.56917639 15.8125 16.9375 C16.57498047 17.70384766 17.33746094 18.47019531 18.12304688 19.25976562 C18.85201172 19.98744141 19.58097656 20.71511719 20.33203125 21.46484375 C21.31780151 22.44892212 21.31780151 22.44892212 22.32348633 23.45288086 C23.93380588 25.08270479 23.93380588 25.08270479 26 26 C26 50.75 26 75.5 26 101 C50.36802224 100.6836419 50.36802224 100.6836419 74.73461914 100.27929688 C79.46374512 100.24316406 79.46374512 100.24316406 81.68260193 100.2364502 C83.22164956 100.22422089 84.76062377 100.19619645 86.29917908 100.15539551 C99.19306172 99.83076435 99.19306172 99.83076435 103.21363831 102.43240356 C104.85986328 104.33447266 104.85986328 104.33447266 106.34236145 106.53973389 C108.35284545 109.52369299 110.69929405 111.84884209 113.26098633 114.37451172 C114.24536341 115.35780096 115.22922169 116.34160981 116.21260071 117.32589722 C117.252357 118.36054814 118.29216845 119.39514362 119.33203125 120.4296875 C120.41604753 121.51183401 121.49983977 122.59420499 122.5834198 123.67678833 C125.41293276 126.50251527 128.24543597 129.32522556 131.07861328 132.14727783 C133.97025699 135.02864077 136.85902841 137.91288028 139.74804688 140.796875 C144.81190679 145.85120424 149.87823061 150.90305191 154.94636536 155.95309448 C156.29866957 157.30096762 157.64990951 158.64990951 159 160 C157.35 161.65 155.7 163.3 154 165 C150.14315478 163.41500137 147.72055953 160.95567067 144.80419922 158.01538086 C144.29964203 157.50950943 143.79508484 157.003638 143.27523804 156.48243713 C141.61373667 154.81446082 139.95932491 153.13962686 138.3046875 151.46484375 C137.14985307 150.30373732 135.99450091 149.1431456 134.83865356 147.98304749 C131.80039516 144.93149838 128.76775744 141.87442926 125.73669434 138.81573486 C120.8792052 133.91508857 116.0149474 129.02118303 111.14746475 124.13046455 C109.44665093 122.41940933 107.74927986 120.70499226 106.05221558 118.99021912 C105.01392915 117.94510682 103.97553382 116.90010271 102.93701172 115.85522461 C102.02974335 114.93970322 101.12247498 114.02418182 100.18771362 113.08091736 C96.49784412 109.57117393 93.47489559 109.83342729 88.61279297 109.79467773 C87.85172241 109.78477814 87.09065186 109.77487854 86.30651855 109.76467896 C83.78510676 109.73303322 81.26367612 109.70829443 78.7421875 109.68359375 C76.99626164 109.66302687 75.25034078 109.64203047 73.50442505 109.62062073 C68.90460258 109.56537254 64.30473497 109.5159754 59.70483398 109.46777344 C55.01281711 109.41757845 50.32086595 109.36188195 45.62890625 109.30664062 C36.41932694 109.19902546 27.20969063 109.09758796 18 109 C18.0030162 108.04057495 18.00603241 107.0811499 18.00914001 106.09265137 C18.03306393 97.02973488 18.02012396 87.9675121 17.97153378 78.90468597 C17.94772806 74.24580262 17.93669558 69.5876332 17.95532227 64.92871094 C17.97283707 60.42840048 17.95618778 55.92936953 17.91632271 51.42921448 C17.9070627 49.71653955 17.90990008 48.00375311 17.92530632 46.29112244 C18.33282491 35.53804953 18.33282491 35.53804953 13.75976562 26.20703125 C12.53708188 25.10318509 11.28559157 24.02989621 10 23 C9.13189697 22.09443359 8.26379395 21.18886719 7.36938477 20.25585938 C6.56815186 19.45986328 5.76691895 18.66386719 4.94140625 17.84375 C4.06162109 16.9671875 3.18183594 16.090625 2.27539062 15.1875 C1.38013672 14.300625 0.48488281 13.41375 -0.4375 12.5 C-1.35982422 11.5821875 -2.28214844 10.664375 -3.23242188 9.71875 C-5.48599899 7.47684945 -7.74189075 5.237334 -10 3 C-9.67 2.34 -9.34 1.68 -9 1 C-5.85554549 0.15014743 -3.29227921 0 0 0 Z " fill="#F7BC89" transform="translate(103,282)"/>
<path d="M0 0 C4.72552913 0.62728263 8.60241733 2.21734853 12.875 4.27734375 C15.5664632 5.48454416 17.58455386 6.28429328 20.53125 6.46875 C23.24082453 5.27375427 23.24082453 5.27375427 25.96875 3.53125 C32.62757172 -0.00856973 39.08478257 -1.00902833 46.53125 0.46875 C49.46037413 2.75712822 50.4026603 3.71328549 51.03125 7.40625 C50.42129096 11.14224911 49.14401889 12.77913497 46.53125 15.46875 C43.98648719 16.74113141 41.73371028 16.82339708 38.90625 17.15625 C31.68718043 18.29290639 27.57959579 21.42040421 22.53125 26.46875 C15.83683114 27.37646781 15.83683114 27.37646781 12.80078125 25.265625 C11.67511174 24.20680047 10.55693968 23.139964 9.4453125 22.06640625 C4.98226513 18.34112793 -0.65296672 16.67375779 -6.34375 16.03125 C-9.46875 15.46875 -9.46875 15.46875 -11.90625 13.28125 C-13.75883409 9.94659863 -14.10799557 8.2243177 -13.46875 4.46875 C-9.59260098 -0.5592735 -5.98219089 -0.16168083 0 0 Z " fill="#040301" transform="translate(317.46875,154.53125)"/>
<path d="M0 0 C4.72552913 0.62728263 8.60241733 2.21734853 12.875 4.27734375 C15.5664632 5.48454416 17.58455386 6.28429328 20.53125 6.46875 C23.24082453 5.27375427 23.24082453 5.27375427 25.96875 3.53125 C32.62757172 -0.00856973 39.08478257 -1.00902833 46.53125 0.46875 C49.46037413 2.75712822 50.4026603 3.71328549 51.03125 7.40625 C50.42129096 11.14224911 49.14401889 12.77913497 46.53125 15.46875 C43.98648719 16.74113141 41.73371028 16.82339708 38.90625 17.15625 C31.68718043 18.29290639 27.57959579 21.42040421 22.53125 26.46875 C15.83683114 27.37646781 15.83683114 27.37646781 12.80078125 25.265625 C11.67511174 24.20680047 10.55693968 23.139964 9.4453125 22.06640625 C4.98226513 18.34112793 -0.65296672 16.67375779 -6.34375 16.03125 C-9.46875 15.46875 -9.46875 15.46875 -11.90625 13.28125 C-13.75883409 9.94659863 -14.10799557 8.2243177 -13.46875 4.46875 C-9.59260098 -0.5592735 -5.98219089 -0.16168083 0 0 Z " fill="#040301" transform="translate(165.46875,138.53125)"/>
<path d="M0 0 C0.66 0.33 1.32 0.66 2 1 C1.67 1.66 1.34 2.32 1 3 C22.0557028 16.35367918 43.61218848 27.31188473 67 36 C67.71559082 36.26893066 68.43118164 36.53786133 69.16845703 36.81494141 C82.63290258 41.81344795 96.91378836 45.26057505 111 48 C111 50.64 111 53.28 111 56 C73.8566206 52.74414027 36.44612033 35.09497705 5 16 C4.3179248 15.59056152 3.63584961 15.18112305 2.93310547 14.75927734 C-4.56019869 10.22259332 -4.56019869 10.22259332 -7 8 C-7 6.68 -7 5.36 -7 4 C-1.7265625 0.77734375 -1.7265625 0.77734375 0 0 Z " fill="#F4BA87" transform="translate(280,302)"/>
<path d="M0 0 C4.98669007 2.49334503 8.49675474 5.99350949 11 11 C11.54360446 15.95482094 11.56437074 19.87125852 9.3125 24.375 C6.14745126 27.96775803 2.78798338 31.69412413 -2.171875 32.23828125 C-8.01846537 32.40659218 -11.43192863 32.02425335 -16 28 C-20.39893104 23.00661882 -21.35676337 20.08984773 -21.28125 13.5390625 C-20.73016315 8.56397287 -17.99302299 5.87480597 -14.375 2.6875 C-9.71860985 -0.62098774 -5.60468123 -0.62082623 0 0 Z " fill="#FFF977" transform="translate(229,232)"/>
<path d="M0 0 C4.0743356 0.84881992 5.54405875 2.30225596 8 5.625 C8.625 8.625 8.625 8.625 8 11.625 C5.54405875 14.94774404 4.0743356 16.40118008 0 17.25 C-4.0743356 16.40118008 -5.54405875 14.94774404 -8 11.625 C-8.625 8.625 -8.625 8.625 -8 5.625 C-5.54405875 2.30225596 -4.0743356 0.84881992 0 0 Z " fill="#0B0907" transform="translate(256,383.375)"/>
<path d="M0 0 C4.0743356 0.84881992 5.54405875 2.30225596 8 5.625 C8.625 8.625 8.625 8.625 8 11.625 C5.54405875 14.94774404 4.0743356 16.40118008 0 17.25 C-4.0743356 16.40118008 -5.54405875 14.94774404 -8 11.625 C-8.625 8.625 -8.625 8.625 -8 5.625 C-5.54405875 2.30225596 -4.0743356 0.84881992 0 0 Z " fill="#0B0907" transform="translate(160,351.375)"/>
<path d="M0 0 C4.0743356 0.84881992 5.54405875 2.30225596 8 5.625 C8.625 8.625 8.625 8.625 8 11.625 C5.54405875 14.94774404 4.0743356 16.40118008 0 17.25 C-4.0743356 16.40118008 -5.54405875 14.94774404 -8 11.625 C-8.625 8.625 -8.625 8.625 -8 5.625 C-5.54405875 2.30225596 -4.0743356 0.84881992 0 0 Z " fill="#0B0907" transform="translate(208,327.375)"/>
<path d="M0 0 C4.0743356 0.84881992 5.54405875 2.30225596 8 5.625 C8.625 8.625 8.625 8.625 8 11.625 C5.54405875 14.94774404 4.0743356 16.40118008 0 17.25 C-4.0743356 16.40118008 -5.54405875 14.94774404 -8 11.625 C-8.625 8.625 -8.625 8.625 -8 5.625 C-5.54405875 2.30225596 -4.0743356 0.84881992 0 0 Z " fill="#0B0907" transform="translate(352,303.375)"/>
</svg>
